<svg width="178" height="26" viewBox="0 0 178 26" fill="none" xmlns="http://www.w3.org/2000/svg">
<path fill-rule="evenodd" clip-rule="evenodd" d="M16.7392 0L24.7088 4.82807V14.8492C24.7088 21.008 19.7155 26 13.558 26C10.5569 26 7.98938 24.1421 6.94305 21.5138C3.09201 21.4156 0 18.2627 0 14.388V0.00343064L8.00044 4.82697V18.8829C8.00044 19.2333 8.03287 19.5762 8.09491 19.9086C12.9485 19.4238 16.7392 15.3278 16.7392 10.3456V0ZM8.61137 21.4185C9.53304 23.2128 11.4023 24.4405 13.558 24.4405C18.8543 24.4405 23.1493 20.1466 23.1493 14.8492V5.70668L18.2987 2.76817V10.3456C18.2987 16.0126 14.079 20.6931 8.61137 21.4185ZM6.51643 19.9234C6.46667 19.5838 6.4409 19.2363 6.4409 18.8829V5.70777L1.55953 2.76474V14.388C1.55953 17.2565 3.72893 19.6187 6.51643 19.9234Z" fill="#1CB78D"/>
<path d="M53.3175 11.1483C52.7103 9.21562 50.9054 7.81299 48.7725 7.81299C48.6448 7.81299 48.518 7.8185 48.3922 7.82769C45.9397 8.0215 44.0098 10.0736 44.0098 12.5766C44.0098 15.2065 46.1417 17.3393 48.7725 17.3393C49.0453 17.3393 49.3126 17.3164 49.5735 17.2723C51.7348 16.9067 53.4002 15.0852 53.5269 12.8522C53.5324 12.7613 53.5352 12.6694 53.5352 12.5766C53.5352 12.0788 53.459 11.5993 53.3175 11.1483ZM50.7667 12.8044C50.6528 13.8038 49.8022 14.5837 48.7725 14.5837C47.6656 14.5837 46.7654 13.6826 46.7654 12.5766C46.7654 11.4707 47.6656 10.5687 48.7725 10.5687C49.6295 10.5687 50.3634 11.1097 50.65 11.8675C50.7336 12.088 50.7795 12.3268 50.7795 12.5766C50.7795 12.6538 50.7749 12.73 50.7667 12.8044Z" fill="#1CB78D"/>
<path d="M71.6317 11.1483C71.0245 9.21562 69.2196 7.81299 67.0867 7.81299C66.959 7.81299 66.8323 7.8185 66.7064 7.82769C64.2539 8.0215 62.324 10.0736 62.324 12.5766C62.324 15.2065 64.4559 17.3393 67.0867 17.3393C67.3595 17.3393 67.6268 17.3164 67.8877 17.2723C70.049 16.9067 71.7144 15.0852 71.8411 12.8522C71.8467 12.7613 71.8494 12.6694 71.8494 12.5766C71.8494 12.0788 71.7732 11.5993 71.6317 11.1483ZM69.0809 12.8044C68.967 13.8038 68.1164 14.5837 67.0867 14.5837C65.9798 14.5837 65.0796 13.6826 65.0796 12.5766C65.0796 11.4707 65.9798 10.5687 67.0867 10.5687C67.9437 10.5687 68.6776 11.1097 68.9642 11.8675C69.0478 12.088 69.0937 12.3268 69.0937 12.5766C69.0937 12.6538 69.0891 12.73 69.0809 12.8044Z" fill="#F0F8F0"/>
<path d="M160.866 11.1483C160.259 9.21562 158.454 7.81299 156.321 7.81299C156.193 7.81299 156.066 7.8185 155.941 7.82769C153.488 8.0215 151.558 10.0736 151.558 12.5766C151.558 15.2065 153.69 17.3393 156.321 17.3393C156.594 17.3393 156.861 17.3164 157.122 17.2723C159.283 16.9067 160.949 15.0852 161.075 12.8522C161.081 12.7613 161.084 12.6694 161.084 12.5766C161.084 12.0788 161.007 11.5993 160.866 11.1483ZM158.315 12.8044C158.201 13.8038 157.351 14.5837 156.321 14.5837C155.214 14.5837 154.314 13.6826 154.314 12.5766C154.314 11.4707 155.214 10.5687 156.321 10.5687C157.178 10.5687 157.912 11.1097 158.198 11.8675C158.282 12.088 158.328 12.3268 158.328 12.5766C158.328 12.6538 158.323 12.73 158.315 12.8044Z" fill="#F0F8F0"/>
<path d="M59.3065 6.22741C59.5251 6.00236 59.8338 5.8903 60.2333 5.8903C60.4455 5.8903 60.6265 5.9252 60.7762 5.99318C60.9259 6.06207 61.0573 6.15852 61.1693 6.28344L62.9853 4.44817C62.6354 4.09911 62.2266 3.81804 61.7591 3.60585C61.2906 3.39366 60.745 3.28711 60.1213 3.28711C59.3102 3.28711 58.5983 3.46255 57.9865 3.81161C57.3748 4.16158 56.9063 4.6328 56.5821 5.22526C56.2569 5.81865 56.0952 6.4892 56.0952 7.23782V8.00574H54.0735V10.4583H56.0952V17.105H58.9786V10.4592H61.5809V8.00665H58.9786V7.14505C58.9786 6.75834 59.0879 6.45246 59.3065 6.22741Z" fill="#F0F8F0"/>
<path d="M78.6945 7.81934C77.708 7.81934 76.9309 8.11327 76.3632 8.69931C76.3605 8.70299 76.3568 8.70574 76.3541 8.70942V8.00672H73.4707V17.1059H76.3541V12.1255C76.3541 11.5386 76.4946 11.0986 76.7757 10.8056C77.0567 10.5125 77.4407 10.3656 77.9275 10.3656C78.1645 10.3656 78.3767 10.4032 78.5641 10.4776C78.7515 10.553 78.9012 10.6522 79.0133 10.7771L80.7172 8.60562C80.4674 8.34383 80.1771 8.14726 79.8464 8.01591C79.5157 7.88455 79.1318 7.81934 78.6945 7.81934Z" fill="#F0F8F0"/>
<path d="M86.8769 13.2307C86.8769 13.7056 86.7556 14.0794 86.5122 14.3541C86.2688 14.6287 85.9344 14.7656 85.5101 14.7656C85.2225 14.7656 84.9736 14.7031 84.7614 14.5782C84.5492 14.4533 84.3867 14.276 84.2746 14.0445C84.1625 13.814 84.1065 13.5421 84.1065 13.2298V8.00684H81.2231V13.2683C81.2231 14.0546 81.4041 14.7509 81.766 15.3562C82.1279 15.9615 82.6368 16.4392 83.2917 16.7882C83.9467 17.1373 84.687 17.3127 85.5101 17.3127C86.3331 17.3127 87.1019 17.141 87.7385 16.7974C88.375 16.4539 88.8711 15.9799 89.2275 15.3746C89.5829 14.7693 89.7611 14.0675 89.7611 13.2683V8.00684H86.8778V13.2307H86.8769Z" fill="#F0F8F0"/>
<path d="M104.307 8.25927C103.758 7.96625 103.14 7.81928 102.454 7.81928C101.768 7.81928 101.099 7.969 100.525 8.26845C100.138 8.46962 99.8074 8.73232 99.5281 9.05198C99.2663 8.72589 98.9531 8.45767 98.5866 8.24916C98.0814 7.96257 97.5165 7.81836 96.8919 7.81836C96.2057 7.81836 95.5967 7.9589 95.0667 8.23998C94.8297 8.36582 94.6148 8.51554 94.4209 8.68823V8.00575H91.5376V17.105H94.4209V11.7874C94.4209 11.488 94.4862 11.2317 94.6175 11.0195C94.7489 10.8073 94.9262 10.642 95.1512 10.5235C95.3762 10.405 95.6316 10.3453 95.9191 10.3453C96.3306 10.3453 96.6769 10.473 96.958 10.7293C97.2391 10.9855 97.3796 11.3374 97.3796 11.7874V17.105H100.263V11.7874C100.263 11.488 100.325 11.2317 100.45 11.0195C100.575 10.8073 100.753 10.642 100.984 10.5235C101.215 10.405 101.467 10.3453 101.743 10.3453C102.142 10.3453 102.482 10.473 102.763 10.7293C103.044 10.9855 103.185 11.3374 103.185 11.7874V17.105H106.068V11.4503C106.068 10.6888 105.912 10.0403 105.6 9.50299C105.287 8.96656 104.857 8.55137 104.307 8.25743V8.25927Z" fill="#F0F8F0"/>
<path d="M114.259 8.01591C113.928 7.88455 113.544 7.81934 113.107 7.81934C112.121 7.81934 111.344 8.11327 110.776 8.69931C110.773 8.70299 110.769 8.70574 110.767 8.70942V8.00672H107.883V17.1059H110.767V12.1255C110.767 11.5386 110.907 11.0986 111.188 10.8056C111.469 10.5125 111.853 10.3656 112.34 10.3656C112.577 10.3656 112.789 10.4032 112.977 10.4776C113.164 10.553 113.314 10.6522 113.426 10.7771L115.13 8.60562C114.88 8.34383 114.59 8.14726 114.259 8.01591Z" fill="#F0F8F0"/>
<path d="M121.926 8.75902C121.681 8.52571 121.397 8.33097 121.074 8.17482C120.581 7.93783 120.029 7.81934 119.417 7.81934C118.58 7.81934 117.835 8.02234 117.179 8.42742C116.524 8.83342 116.006 9.39466 115.625 10.1121C115.244 10.8304 115.054 11.6442 115.054 12.5554C115.054 13.4666 115.244 14.275 115.625 14.9804C116.005 15.6859 116.527 16.2471 117.188 16.666C117.85 17.0839 118.593 17.2933 119.417 17.2933C120.041 17.2933 120.599 17.1748 121.092 16.9378C121.409 16.7854 121.687 16.5961 121.925 16.3693V17.1069H124.753V8.00672H121.925V8.75902H121.926ZM120.017 14.6911C119.63 14.6911 119.284 14.601 118.978 14.4192C118.672 14.2382 118.428 13.9856 118.248 13.6604C118.067 13.3362 117.976 12.9678 117.976 12.5554C117.976 12.143 118.066 11.7756 118.248 11.4504C118.428 11.1261 118.672 10.8735 118.978 10.6926C119.284 10.5116 119.63 10.4207 120.017 10.4207C120.403 10.4207 120.772 10.5116 121.084 10.6926C121.395 10.8735 121.633 11.1234 121.796 11.4412C121.958 11.759 122.039 12.1246 122.039 12.5361C122.039 13.1727 121.855 13.6908 121.487 14.0903C121.119 14.4899 120.629 14.6892 120.018 14.6892L120.017 14.6911Z" fill="#F0F8F0"/>
<path d="M133.965 8.25937C133.429 7.96635 132.804 7.81938 132.093 7.81938C131.382 7.81938 130.795 7.96635 130.258 8.25937C130.031 8.38337 129.826 8.53034 129.639 8.69844V3.51318H126.756V17.106H129.639V11.9198C129.639 11.6075 129.708 11.3329 129.845 11.0959C129.982 10.8589 130.169 10.6743 130.407 10.5438C130.644 10.4125 130.913 10.3472 131.213 10.3472C131.662 10.3472 132.037 10.4942 132.336 10.7872C132.636 11.0803 132.786 11.4587 132.786 11.9198V17.106H135.669V11.2833C135.669 10.5971 135.519 9.99452 135.22 9.47646C134.92 8.95839 134.501 8.5533 133.965 8.25937Z" fill="#F0F8F0"/>
<path d="M139.283 13.8477C138.783 13.8477 138.374 14.013 138.056 14.3437C137.738 14.6744 137.579 15.0831 137.579 15.57C137.579 16.0568 137.738 16.4683 138.056 16.8054C138.375 17.1425 138.784 17.3106 139.283 17.3106C139.781 17.3106 140.191 17.1425 140.509 16.8054C140.827 16.4683 140.986 16.0568 140.986 15.57C140.986 15.0831 140.828 14.6744 140.509 14.3437C140.19 14.013 139.781 13.8477 139.283 13.8477Z" fill="#F0F8F0"/>
<path d="M148.298 14.5035C148.005 14.6284 147.671 14.6909 147.296 14.6909C146.921 14.6909 146.553 14.6009 146.229 14.419C145.903 14.238 145.651 13.9854 145.471 13.6603C145.29 13.336 145.199 12.9612 145.199 12.5369C145.199 12.1125 145.289 11.7598 145.471 11.4419C145.652 11.1241 145.902 10.8743 146.219 10.6933C146.537 10.5124 146.896 10.4214 147.296 10.4214C147.658 10.4214 147.979 10.4775 148.26 10.5895C148.542 10.7016 148.788 10.877 149 11.114L150.854 9.242C150.392 8.76802 149.864 8.40887 149.272 8.16545C148.678 7.92203 148.02 7.80078 147.297 7.80078C146.348 7.80078 145.493 8.00654 144.731 8.41897C143.97 8.83048 143.371 9.3954 142.934 10.1137C142.497 10.832 142.279 11.6459 142.279 12.5571C142.279 13.4683 142.494 14.2674 142.925 14.9912C143.355 15.7151 143.952 16.2827 144.713 16.6952C145.474 17.1067 146.33 17.3134 147.278 17.3134C148.026 17.3134 148.698 17.1857 149.29 16.9294C149.883 16.674 150.423 16.2956 150.91 15.7968L149.056 13.9615C148.844 14.1985 148.591 14.3795 148.298 14.5044V14.5035Z" fill="#F0F8F0"/>
<path d="M176.766 9.50385C176.454 8.96742 176.023 8.55223 175.474 8.25829C174.924 7.96527 174.306 7.8183 173.62 7.8183C172.934 7.8183 172.265 7.96803 171.691 8.26748C171.304 8.46864 170.974 8.73135 170.694 9.051C170.433 8.72492 170.119 8.4567 169.753 8.24819C169.248 7.9616 168.683 7.81738 168.058 7.81738C167.372 7.81738 166.763 7.95792 166.233 8.239C165.996 8.36484 165.781 8.51457 165.587 8.68726V8.00477H162.704V17.104H165.587V11.7865C165.587 11.487 165.652 11.2307 165.784 11.0186C165.915 10.8064 166.092 10.641 166.317 10.5225C166.543 10.404 166.798 10.3443 167.085 10.3443C167.497 10.3443 167.843 10.472 168.124 10.7283C168.405 10.9846 168.546 11.3364 168.546 11.7865V17.104H171.429V11.7865C171.429 11.487 171.492 11.2307 171.617 11.0186C171.742 10.8064 171.919 10.641 172.15 10.5225C172.381 10.404 172.633 10.3443 172.909 10.3443C173.309 10.3443 173.648 10.472 173.93 10.7283C174.211 10.9846 174.351 11.3364 174.351 11.7865V17.104H177.235V11.4494C177.235 10.6879 177.078 10.0394 176.766 9.50202V9.50385Z" fill="#F0F8F0"/>
<path d="M42.8771 17.7465C42.8771 20.4893 40.6533 22.7131 37.9105 22.7131C35.1677 22.7131 32.9438 20.4893 32.9438 17.7465H35.4506C35.4506 19.105 36.5519 20.2064 37.9105 20.2064C38.8722 20.2064 39.7053 19.6543 40.1095 18.8506C40.9224 18.6641 41.6582 18.2783 42.2644 17.7465C42.473 17.5637 42.6659 17.3634 42.8413 17.1494C42.8652 17.3451 42.8771 17.5444 42.8771 17.7465Z" fill="#1CB78D"/>
<path d="M37.9105 10.3197C36.5519 10.3197 35.4506 11.4211 35.4506 12.7796C35.4506 12.99 35.4772 13.193 35.5268 13.3877C35.7978 14.4523 36.7623 15.2386 37.9105 15.2386C39.0587 15.2386 40.0241 14.4514 40.2951 13.3877C40.3447 13.193 40.3713 12.9891 40.3713 12.7796H42.878C42.878 13.6844 42.6365 14.5322 42.213 15.2625C41.773 16.024 41.1355 16.6578 40.3713 17.0941C40.3465 17.1088 40.3208 17.1226 40.2951 17.1363C39.5878 17.5249 38.7748 17.7453 37.9105 17.7453C37.0461 17.7453 36.2341 17.5249 35.5268 17.1363C35.2586 16.9894 35.006 16.8194 34.7718 16.6275C34.307 16.2481 33.9111 15.7851 33.6089 15.2625C33.1863 14.5322 32.9438 13.6835 32.9438 12.7796C32.9438 11.8758 33.1808 11.0445 33.5951 10.3197C34.4503 8.82248 36.0623 7.81299 37.9105 7.81299H42.8771V10.3197H37.9105Z" fill="#1CB78D"/>
</svg>
