<svg width="455" height="634" viewBox="0 0 455 634" fill="none" xmlns="http://www.w3.org/2000/svg">
<path d="M165.914 459.161H115.116V487.286H165.914V459.161Z" fill="#8295A3"/>
<path d="M318.919 459.161H268.198V487.286H318.919V459.161Z" fill="#8295A3"/>
<path d="M268.198 486.645V532.541C268.198 559.902 245.893 582.218 218.546 582.218H215.49C188.143 582.218 165.838 559.902 165.838 532.541V486.645H115.04V532.541C115.04 587.95 160.109 633.042 215.414 633.042H218.469C273.851 633.042 318.843 587.95 318.843 532.541V486.645H268.122H268.198Z" fill="#052C47"/>
<path d="M102.416 409.987L105.641 400.448L90.553 396.01L93.3689 388.206L59 376.191L85.0277 391.787L81.4854 402.304L96.7789 406.182L94.0366 413.501L128.945 425.382L102.416 409.987Z" fill="#EECA32"/>
<path d="M186.529 409.988L183.304 400.448L198.392 396.01L195.576 388.207L229.945 376.191L203.917 391.787L207.46 402.304L192.166 406.182L194.909 413.502L160 425.382L186.529 409.988Z" fill="#EECA32"/>
<path d="M253.416 409.987L256.641 400.448L241.553 396.01L244.369 388.206L210 376.191L236.028 391.787L232.485 402.304L247.779 406.182L245.037 413.501L279.945 425.382L253.416 409.987Z" fill="#EECA32"/>
<path d="M327.529 409.988L324.304 400.448L339.392 396.01L336.576 388.207L370.945 376.191L344.917 391.787L348.46 402.304L333.166 406.182L335.909 413.502L301 425.382L327.529 409.988Z" fill="#EECA32"/>
<g clip-path="url(#clip0_4183_111587)">
<path d="M359.554 146.5C359.554 179.152 333.111 205.608 300.475 205.608C267.839 205.608 241.396 179.152 241.396 146.5C241.396 113.847 267.839 87.3914 300.475 87.3914C333.111 87.3914 359.554 113.847 359.554 146.5Z" fill="white"/>
<path fill-rule="evenodd" clip-rule="evenodd" d="M316.436 108.763H281.1C267.442 114.562 268.315 155.001 275.144 173.829C272.206 175.021 267.124 171.843 265.695 169.936C265.06 170.969 265.06 174.068 266.489 176.848C265.615 176.292 264.901 175.657 264.265 175.101C262.439 179.152 264.027 192.182 291.264 185.27C297.775 183.601 292.455 174.862 292.931 164.931C289.12 161.038 286.499 155.954 285.388 149.36C281.497 146.659 280.306 141.177 278.956 135.933C298.331 137.602 313.021 130.452 320.247 118.217C323.9 122.825 308.813 158.576 309.527 172.161C309.527 181.933 307.701 185.349 316.356 186.541C341.846 146.42 331.602 114.642 316.436 108.763Z" fill="#052C47"/>
<path d="M300.475 181.218C306.907 181.218 312.545 177.722 315.721 172.558C313.577 171.525 311.989 170.254 311.592 168.904V151.505C308.416 153.809 304.763 155.239 300.952 155.239C297.14 155.239 292.535 153.491 289.12 150.552V169.619C288.644 170.81 287.214 171.843 285.309 172.717C288.405 177.802 294.043 181.218 300.475 181.218Z" fill="#D3A28E"/>
<path d="M318.898 113.609L276.098 113.927L279.75 141.812C279.75 148.963 283.324 155.954 288.565 160.403C291.979 163.263 296.108 166.044 300.396 166.044C304.684 166.044 307.86 163.66 311.037 161.356C316.913 157.066 318.104 149.519 318.104 141.812L319.851 128.863C318.421 123.937 319.374 118.773 318.898 113.609Z" fill="#EDBDA9"/>
<path d="M276.732 144.037C276.732 145.785 280.067 149.678 281.735 149.678V148.009C283.482 148.009 282.847 144.672 282.847 143.004V137.84C282.847 136.092 281.417 134.742 279.75 134.742C278.003 134.742 276.018 135.695 276.018 137.443L276.732 144.196V144.037Z" fill="#EDBDA9"/>
<path d="M284.514 122.586C284.117 119.488 283.085 117.184 283.085 117.184C283.085 117.184 282.767 116.469 282.449 115.833C282.052 115.198 281.655 114.562 281.655 114.562L279.114 138.873C279.114 138.873 280.941 137.284 282.529 134.344C283.879 132.04 284.276 128.863 284.276 128.863C284.276 128.863 284.99 125.446 284.514 122.666V122.586Z" fill="#EBB1A3"/>
<path fill-rule="evenodd" clip-rule="evenodd" d="M316.039 108.763C316.039 108.763 309.766 103.678 294.361 103.678C278.956 103.678 281.497 108.763 281.497 108.763C281.417 108.921 281.338 109.001 281.259 109.16C273.08 110.59 270.698 130.451 279.194 138.873C283.085 132.438 281.656 126.4 283.085 121.792C288.167 130.134 308.813 110.987 319.056 148.883C329.776 130.928 325.329 116.707 316.118 108.763H316.039Z" fill="#052C47"/>
<path d="M315.642 171.923C311.751 175.577 306.589 177.802 300.951 177.802C295.314 177.802 289.993 175.498 286.102 171.764C270.38 174.544 259.184 181.774 259.184 190.195C259.184 198.617 277.606 209.898 300.396 209.898C323.185 209.898 341.608 201.08 341.608 190.195C341.608 179.311 330.808 174.783 315.483 171.843L315.642 171.923Z" fill="#052C47"/>
</g>
<g clip-path="url(#clip1_4183_111587)">
<path d="M276.811 297.766C276.811 334.947 246.716 365.137 209.475 365.137C172.233 365.137 142.138 335.027 142.138 297.766C142.138 260.506 172.233 230.395 209.475 230.395C246.716 230.395 276.811 260.506 276.811 297.766Z" fill="white"/>
<path d="M193.356 246.364C192.561 247 183.827 253.276 181.762 261.936C180.889 265.749 183.35 284.578 183.509 288.63C183.589 290.775 185.733 287.835 187.082 289.265C186.844 286.802 204.79 270.595 208.443 269.721C210.904 269.165 228.533 281.479 228.374 284.101C228.294 286.008 228.85 287.358 228.691 289.186C228.85 289.186 228.93 289.345 229.089 289.424C229.565 288.153 232.185 287.835 232.424 286.564C233.059 283.545 232.9 272.264 232.106 266.782C230.756 251.528 222.498 249.701 214.081 249.383C193.038 248.509 196.294 244.298 193.514 246.364H193.356Z" fill="#052C47"/>
<path d="M235.441 286.564C235.202 285.611 234.329 284.339 233.535 284.181C232.741 284.101 231.629 285.055 230.994 285.849C230.279 286.643 229.962 287.835 229.247 289.186C229.247 288.312 229.247 287.915 229.168 287.517C228.453 281.321 227.738 275.203 227.024 269.006C226.865 267.338 225.991 266.305 224.324 266.226C222.259 266.067 220.195 265.828 218.13 266.067C214.557 266.385 211.46 268.132 208.284 269.721C207.807 269.96 207.41 270.198 206.934 270.357C202.408 272.502 197.881 272.979 193.276 270.834C192.005 270.277 190.735 269.801 189.067 269.086C188.194 275.441 187.4 281.638 186.526 287.994C186.05 287.2 185.812 286.246 185.176 285.69C184.541 285.055 183.588 284.419 182.794 284.498C182.238 284.498 181.444 285.531 181.285 286.246C180.332 289.901 180.888 293.476 182.953 296.654C183.35 297.289 186.447 298.958 186.685 299.434C187.717 301.5 188.194 303.327 189.147 305.393C189.861 306.823 190.576 308.253 191.211 309.683C191.211 309.842 191.37 310.001 191.449 310.16C191.608 310.557 191.846 311.192 192.085 311.907H225.356C225.515 311.113 225.674 310.557 225.832 310.16C225.912 309.842 228.771 305.87 229.962 299.196C230.041 298.719 231.391 298.402 231.709 298.084C232.582 297.289 233.694 296.654 234.25 295.7C235.758 292.84 236.235 289.662 235.282 286.485L235.441 286.564Z" fill="#EDBDA9"/>
<path d="M224.324 327.32C223.371 325.811 224.324 317.945 225.198 313.338H192.641C193.912 318.104 195.182 325.97 193.356 328.353C192.959 328.909 187.797 330.816 186.447 332.484L222.26 340.19C219.798 338.522 226.548 330.975 224.245 327.32H224.324Z" fill="#EDBDA9"/>
<path d="M224.642 327.082C223.768 325.652 224.642 316.436 225.436 311.828L192.085 310.875C193.355 315.562 194.705 325.731 193.038 327.956C192.879 328.115 192.006 328.512 191.211 328.909C189.465 329.783 187.082 330.895 186.129 332.087L185.732 332.643L224.403 340.985L222.577 339.793C221.704 339.237 222.577 337.172 223.53 335.027C224.721 332.325 226.071 329.147 224.721 327.082H224.642Z" fill="#D3A28E"/>
<path d="M226.388 321.6C221.782 325.89 215.668 328.591 208.998 328.591C202.328 328.591 195.975 325.811 191.37 321.441C172.709 324.778 159.448 333.358 159.448 343.368C159.448 353.379 181.364 366.805 208.442 366.805C235.52 366.805 257.436 356.318 257.436 343.368C257.436 330.419 244.572 325.016 226.388 321.6Z" fill="#1CB78D"/>
<path d="M235.837 286.405C235.52 285.372 234.567 283.863 233.614 283.783C233.614 283.783 233.535 283.783 233.455 283.783C232.344 283.783 231.073 285.213 230.755 285.611C230.279 286.167 230.041 286.802 229.723 287.517C229.485 285.611 229.247 283.704 229.088 281.797C228.611 277.587 228.056 273.296 227.659 269.006C227.42 267.1 226.388 265.987 224.562 265.828H224.165C222.815 265.67 221.465 265.59 220.115 265.59C218.765 265.59 218.924 265.59 218.368 265.59C215.033 265.908 212.016 267.417 209.157 268.847L208.363 269.245C207.886 269.483 207.489 269.721 207.013 269.88C204.472 271.151 202.01 271.707 199.628 271.707C197.246 271.707 195.658 271.231 193.673 270.357C192.799 269.96 192.005 269.642 191.052 269.245C190.576 269.086 190.02 268.847 189.464 268.609L188.988 268.371L186.605 286.405C186.367 285.928 186.129 285.531 185.811 285.213C185.176 284.578 184.064 283.863 183.112 283.863C182.317 283.863 181.365 285.134 181.206 285.928C180.253 289.821 180.809 293.396 182.953 296.654C183.191 297.051 183.906 297.528 185.017 298.243C185.573 298.64 186.447 299.196 186.605 299.355C187.161 300.388 187.479 301.341 187.876 302.374C188.194 303.327 188.591 304.281 189.067 305.313C189.543 306.267 190.02 307.22 190.417 308.173C190.179 308.173 193.434 313.894 196.055 315.8C200.74 319.375 204.789 322.315 209.792 322.315C214.795 322.315 218.765 319.932 222.18 316.833C227.103 312.384 227.5 309.206 228.691 305.79C229.564 303.645 230.279 301.341 230.676 298.958C230.755 298.799 231.232 298.64 231.47 298.481C231.788 298.322 232.105 298.163 232.344 298.004C232.582 297.766 232.899 297.528 233.217 297.289C233.852 296.813 234.567 296.256 234.885 295.541C236.552 292.364 236.87 289.186 235.996 286.087L235.837 286.405Z" fill="#EDBDA9"/>
</g>
<g clip-path="url(#clip2_4183_111587)">
<path d="M118.157 275.203C118.157 307.856 91.7147 334.311 59.0785 334.311C26.4424 334.311 0 307.856 0 275.203C0 242.551 26.4424 216.095 59.0785 216.095C91.7147 216.095 118.157 242.551 118.157 275.203Z" fill="white"/>
<path d="M46.6118 232.064C45.6589 232.064 34.939 232.938 35.9713 245.331C36.4478 251.608 38.3535 257.328 38.5917 260.823C38.6711 262.651 55.2671 248.032 58.8404 247.238C61.3814 246.761 75.754 258.599 75.5952 260.903C75.5158 262.571 77.4216 264.001 77.5804 264.081C78.0568 262.968 83.7741 246.841 80.1214 241.2C76.0716 235.798 74.2453 226.661 63.446 227.774C54.1554 228.806 52.5673 231.984 46.6118 231.984V232.064Z" fill="#052C47"/>
<path d="M39.7824 300.706L70.9892 307.459C68.8452 306.028 79.4857 299.752 77.1829 296.733C74.0067 292.681 73.3714 283.227 74.0861 281.321C70.8304 286.167 65.3513 289.424 59.1576 289.424C52.9639 289.424 47.1672 286.008 43.9909 280.923C43.9909 281.082 44.1498 281.162 44.2292 281.321C45.4203 283.863 45.3409 293.794 42.5616 295.7C37.0826 299.434 40.9735 299.276 39.7824 300.706Z" fill="#D3A28E"/>
<path d="M81.7095 258.202C80.9948 258.122 80.042 258.996 79.4067 259.632C78.7715 260.347 78.4538 261.3 77.8186 262.571C77.8186 261.777 77.8186 259.711 77.8186 259.393C77.3421 255.659 80.7566 246.92 75.8334 243.742C71.3072 241.994 67.1781 245.808 59.7139 245.808C53.2819 246.92 46.6912 240.962 41.9268 243.742C38.5123 245.728 39.9416 259.87 39.5446 259.473C38.9887 258.917 38.1153 258.36 37.4006 258.44C36.9242 258.44 36.2095 259.314 36.0507 259.949C35.1772 263.127 36.3683 271.946 38.7505 271.946C41.1327 271.946 41.6092 270.993 41.6886 271.469C42.4032 276.713 41.8474 274.965 42.3238 278.699C43.8326 289.424 59.2374 290.695 59.3168 290.695C65.7488 290.695 75.2776 287.915 76.5481 279.175C76.6275 278.937 75.9922 278.063 76.7863 271.39C76.7863 270.993 79.3273 273.296 80.6772 271.628C81.5507 270.516 84.1711 263.207 83.2976 260.426C83.0594 259.632 82.2654 258.44 81.6301 258.36L81.7095 258.202Z" fill="#EDBDA9"/>
<path d="M77.1041 269.324C75.0396 271.787 72.4985 274.012 69.2429 274.885C65.6696 275.839 68.29 270.198 59.317 269.483C59.2376 269.483 58.92 269.483 58.8406 269.483C53.2027 270.198 54.235 272.105 51.8528 273.773C50.5029 274.647 48.8354 275.044 47.3266 274.409C44.3092 273.217 43.1181 270.913 41.6094 268.291C41.2123 270.119 41.8476 277.11 42.4034 280.844C43.9121 291.569 59.3171 295.144 59.3965 295.144C65.8284 295.144 75.3572 290.06 76.6277 281.241C76.7071 281.003 77.5012 269.88 77.1835 269.324H77.1041ZM65.8284 277.11C63.8432 278.778 54.4732 278.778 52.4881 277.11C52.1704 276.792 54.9497 275.839 55.1879 275.68C58.0465 274.25 60.7464 273.932 63.3668 275.68C63.6844 275.839 66.0666 276.951 65.8284 277.189V277.11Z" fill="#052C47"/>
<path d="M76.3103 294.35C71.8635 298.481 65.9874 301.023 59.6349 301.023C53.2823 301.023 47.168 298.402 42.7213 294.191C24.8548 297.369 12.0703 305.552 12.0703 315.244C12.0703 324.937 33.1131 337.728 59.079 337.728C85.045 337.728 106.088 327.638 106.088 315.244C106.088 302.851 93.7797 297.607 76.3103 294.35Z" fill="url(#paint0_linear_4183_111587)"/>
</g>
<path d="M181.762 54.8976C181.762 42.1861 192.005 31.9375 204.71 31.9375C217.415 31.9375 227.659 42.1861 227.659 54.8976C227.659 67.6091 217.415 77.8577 204.71 77.8577C192.005 77.8577 181.762 67.6091 181.762 54.8976Z" fill="#CA3232"/>
<path d="M217.605 61.0595C217.312 61.3919 216.951 61.6581 216.547 61.8405C216.143 62.0229 215.705 62.1173 215.262 62.1173H208.243V64.2028C208.241 65.5851 207.692 66.9103 206.715 67.8877C205.738 68.8651 204.413 69.4149 203.032 69.4165C202.838 69.4165 202.649 69.3626 202.484 69.2608C202.319 69.159 202.186 69.0133 202.1 68.8401L197.177 58.9891H191.567C191.015 58.9885 190.485 58.7686 190.094 58.3776C189.704 57.9866 189.484 57.4566 189.483 56.9037V45.4335C189.484 44.8806 189.704 44.3506 190.094 43.9596C190.485 43.5686 191.015 43.3487 191.567 43.3481H213.698C214.46 43.3492 215.195 43.628 215.766 44.1324C216.337 44.6368 216.705 45.3322 216.801 46.0883L218.364 58.6012C218.419 59.0413 218.38 59.4881 218.249 59.9119C218.118 60.3357 217.899 60.7269 217.605 61.0595ZM191.567 56.9037H196.779V45.4335H191.567V56.9037Z" fill="white"/>
<path d="M215.192 152.935C215.192 160.632 208.989 166.838 201.296 166.838C193.602 166.838 187.399 160.632 187.399 152.935C187.399 145.238 193.602 139.032 201.296 139.032C208.989 139.032 215.192 145.238 215.192 152.935Z" fill="#1CB78D"/>
<path d="M209.681 149.348C209.504 149.147 209.285 148.985 209.041 148.875C208.796 148.764 208.531 148.707 208.262 148.707H204.012V147.444C204.011 146.607 203.678 145.805 203.087 145.213C202.495 144.621 201.693 144.288 200.857 144.287C200.739 144.287 200.625 144.32 200.525 144.382C200.425 144.443 200.345 144.532 200.292 144.636L197.311 150.602H193.915C193.58 150.602 193.259 150.735 193.022 150.972C192.786 151.209 192.653 151.53 192.652 151.864V158.81C192.653 159.145 192.786 159.466 193.022 159.702C193.259 159.939 193.58 160.072 193.915 160.073H207.315C207.777 160.072 208.222 159.903 208.568 159.598C208.914 159.292 209.136 158.871 209.194 158.413L210.141 150.836C210.174 150.57 210.15 150.299 210.071 150.043C209.992 149.786 209.859 149.549 209.681 149.348ZM193.915 151.864H197.07V158.81H193.915V151.864Z" fill="white"/>
<path d="M128.638 175.577C141.343 175.577 151.666 183.125 151.666 192.42C151.666 196.392 150.713 197.981 148.966 200.285L152.063 210.057L141.423 206.402C137.77 208.23 133.323 209.263 128.638 209.263C115.933 209.263 105.61 201.715 105.61 192.42C105.61 183.125 115.933 175.577 128.638 175.577Z" fill="#C6EDE3"/>
<path d="M125.7 192.976C125.7 193.612 125.224 194.088 124.588 194.088C123.953 194.088 123.477 193.612 123.477 192.976C123.477 192.34 123.953 191.864 124.588 191.864C125.224 191.864 125.7 192.34 125.7 192.976Z" fill="white"/>
<path d="M129.511 192.976C129.511 193.612 129.035 194.088 128.4 194.088C127.765 194.088 127.288 193.612 127.288 192.976C127.288 192.34 127.765 191.864 128.4 191.864C129.035 191.864 129.511 192.34 129.511 192.976Z" fill="white"/>
<path d="M133.323 192.976C133.323 193.612 132.847 194.088 132.211 194.088C131.576 194.088 131.1 193.612 131.1 192.976C131.1 192.34 131.576 191.864 132.211 191.864C132.847 191.864 133.323 192.34 133.323 192.976Z" fill="white"/>
<path d="M452.062 110.431H388.854C387.266 110.431 385.916 111.702 385.916 113.37V144.037C385.916 145.626 387.266 146.976 388.854 146.976H392.427V154.841L400.924 146.976H452.062C453.65 146.976 455 145.705 455 144.037V113.37C455 111.781 453.729 110.431 452.062 110.431Z" fill="#EECA32"/>
<path d="M444.121 122.666H407.276V124.175H444.121V122.666Z" fill="white"/>
<path d="M444.121 126.161H396.874V127.671H444.121V126.161Z" fill="white"/>
<path d="M444.121 129.657H396.874V131.166H444.121V129.657Z" fill="white"/>
<path d="M418.631 133.152H396.874V134.662H418.631V133.152Z" fill="white"/>
<path d="M149.443 100.977C149.443 115.913 137.294 128.068 122.366 128.068C107.437 128.068 95.2881 115.913 95.2881 100.977C95.2881 86.0407 107.437 73.8854 122.366 73.8854C137.294 73.8854 149.443 86.0407 149.443 100.977Z" fill="#1CB78D" stroke="white" stroke-width="2" stroke-miterlimit="10"/>
<path d="M138.247 100.977C138.247 115.913 131.18 128.068 122.445 128.068C113.711 128.068 106.644 115.913 106.644 100.977C106.644 86.0407 113.711 73.8854 122.445 73.8854C131.18 73.8854 138.247 86.0407 138.247 100.977Z" fill="#1CB78D" stroke="white" stroke-width="2" stroke-miterlimit="10"/>
<path d="M122.445 73.8854V127.671" stroke="white" stroke-width="2" stroke-miterlimit="10"/>
<path d="M147.934 110.113H96.876" stroke="white" stroke-width="2" stroke-miterlimit="10"/>
<path d="M147.934 91.9198H96.876" stroke="white" stroke-width="2" stroke-miterlimit="10"/>
<path d="M318.183 230.395C311.751 230.395 306.51 235.639 306.51 242.074C306.51 248.509 311.751 253.753 318.183 253.753C324.614 253.753 329.855 248.509 329.855 242.074C329.855 235.639 324.614 230.395 318.183 230.395Z" fill="#EECA32"/>
<path d="M322.073 242.471C321.517 241.836 320.406 241.359 318.738 241.041L317.706 240.803C317.071 240.644 316.594 240.406 316.197 240.088C315.8 239.77 315.641 239.214 315.641 238.499C315.641 237.148 316.356 236.354 317.706 236.115C317.706 236.115 317.944 236.115 318.182 236.115C318.421 236.115 318.738 236.115 318.738 236.115C319.929 236.274 320.565 236.989 320.644 238.181H322.55C322.312 235.957 321.041 234.765 318.738 234.606V233.096H317.706V234.606C316.515 234.685 315.483 235.162 314.768 235.798C314.053 236.513 313.736 237.466 313.736 238.578C313.736 240.644 315.085 241.915 317.706 242.471L318.738 242.709C319.612 242.948 320.247 243.266 320.565 243.583C320.882 243.901 321.041 244.457 321.041 245.172C321.041 246.841 320.326 247.794 318.738 247.953C318.738 247.953 318.5 247.953 318.262 247.953C318.024 247.953 317.706 247.953 317.706 247.953C316.277 247.715 315.483 246.761 315.324 245.093H313.418C313.577 247.715 315.006 249.145 317.706 249.383V250.892H318.738V249.383C320.088 249.304 321.041 248.827 321.835 248.032C322.55 247.159 322.947 246.205 322.947 245.013C322.947 243.822 322.629 243.027 322.073 242.392V242.471Z" fill="white"/>
<path d="M130.147 0C123.715 0 118.475 5.24348 118.475 11.6787C118.475 18.1138 123.715 23.3573 130.147 23.3573C136.579 23.3573 141.82 18.1138 141.82 11.6787C141.82 5.24348 136.579 0 130.147 0Z" fill="#EECA32"/>
<path d="M134.038 12.1553C133.482 11.5198 132.371 11.0431 130.703 10.7253L129.671 10.487C129.036 10.3281 128.559 10.0897 128.162 9.77195C127.765 9.45416 127.606 8.89803 127.606 8.18301C127.606 6.83242 128.321 6.03795 129.671 5.79961C129.671 5.79961 129.909 5.79961 130.147 5.79961C130.385 5.79961 130.703 5.79961 130.703 5.79961C131.894 5.95851 132.529 6.67352 132.609 7.86522H134.515C134.276 5.64071 133.006 4.44901 130.703 4.29012V2.78064H129.671V4.29012C128.48 4.36957 127.447 4.84625 126.733 5.56127C126.018 6.27629 125.7 7.22965 125.7 8.34191C125.7 10.4075 127.05 11.6787 129.671 12.2348L130.703 12.4731C131.577 12.7115 132.212 13.0293 132.529 13.347C132.847 13.6648 133.006 14.221 133.006 14.936C133.006 16.6044 132.212 17.5577 130.703 17.7166C130.703 17.7166 130.465 17.7166 130.227 17.7166C129.988 17.7166 129.671 17.7166 129.671 17.7166C128.241 17.4783 127.447 16.5249 127.289 14.8565H125.383C125.542 17.4783 126.971 18.9083 129.671 19.1467V20.6561H130.703V19.1467C132.053 19.1467 133.006 18.5905 133.8 17.7961C134.515 16.9221 134.912 15.9688 134.912 14.7771C134.912 13.5854 134.594 12.7909 134.038 12.1553Z" fill="white"/>
<path fill-rule="evenodd" clip-rule="evenodd" d="M361.697 353.776C361.697 355.206 360.506 356.318 359.077 356.318H318.262C316.833 356.318 315.642 355.126 315.642 353.776V271.787C315.642 270.357 316.833 269.245 318.262 269.245H359.077C360.506 269.245 361.697 270.436 361.697 271.787V353.776Z" fill="white"/>
<path fill-rule="evenodd" clip-rule="evenodd" d="M357.489 278.778H356.377H354.313H351.851H349.866H349.707H347.087H340.337H337.955H335.573H333.349H329.935H327.87H321.279H321.041H318.977H317.706V288.073V290.616V297.528V305.869V307.935V328.671V330.577V340.19V342.653V348.93H317.865H320.009H324.853H327.552H327.87H329.617H329.935H331.999H332.317H334.143H340.575H340.655H342.957H348.595H350.898H351.374H354.154H359.553V343.209V339.317V338.443V337.251V335.026V334.073V331.531V307.935V305.869V300.388V297.528V285.134V282.83V278.778H357.489Z" fill="#C6EDE3"/>
<path fill-rule="evenodd" clip-rule="evenodd" d="M346.213 274.409C346.213 274.885 345.816 275.283 345.34 275.283H332.476C332 275.283 331.603 274.885 331.603 274.409C331.603 273.932 332 273.535 332.476 273.535H345.34C345.816 273.535 346.213 273.932 346.213 274.409Z" fill="#C6EDE3"/>
<path fill-rule="evenodd" clip-rule="evenodd" d="M340.575 352.584C340.575 353.617 339.702 354.491 338.669 354.491C337.637 354.491 336.764 353.617 336.764 352.584C336.764 351.551 337.637 350.677 338.669 350.677C339.702 350.677 340.575 351.551 340.575 352.584Z" fill="#1CB78D"/>
<path d="M40.0211 143.004C39.5447 140.7 38.5918 138.555 37.2419 136.728L39.2271 134.662L34.8597 130.451L32.8745 132.517C30.9688 131.246 28.7454 130.372 26.4426 130.054V127.194L20.3283 127.353V130.213C19.7724 130.372 19.2166 130.531 18.5813 130.69C16.9138 131.246 15.4051 132.04 14.0552 132.994L11.9906 131.008L7.78202 135.377L9.8466 137.363C8.57609 139.27 7.70261 141.494 7.38499 143.798H4.52637L4.68517 149.916H7.54381C8.02025 152.14 8.97313 154.285 10.323 156.113L8.33788 158.178L12.7052 162.389L14.6904 160.323C16.5962 161.594 18.7401 162.468 21.1223 162.786V165.646L27.2366 165.487V162.627C27.7925 162.468 28.3483 162.31 28.9836 162.151C30.6511 161.594 32.1599 160.8 33.5098 159.847L35.5743 161.833L39.7829 157.463L37.7183 155.477C38.9888 153.57 39.8623 151.425 40.1799 149.042H43.0386L42.8798 142.925H40.0211V143.004ZM34.2244 146.261C34.3038 150.949 31.2864 155.08 27.0778 156.43C26.125 156.748 25.0927 156.907 24.0604 156.987C18.2637 157.145 13.4993 152.538 13.3405 146.738C13.2611 142.051 16.2785 137.919 20.4871 136.569C21.44 136.251 22.4723 136.092 23.5045 136.013C29.3012 135.854 34.0656 140.462 34.2244 146.261Z" fill="#1CB78D"/>
<path d="M20.169 152.617L16.5957 146.42L20.169 140.223H27.395L30.9683 146.42L27.395 152.617H20.169Z" fill="#C6EDE3"/>
<path d="M367.078 223.266C366.862 222.221 366.43 221.248 365.818 220.419L366.718 219.482L364.737 217.572L363.836 218.509C362.972 217.933 361.963 217.536 360.919 217.392V216.095L358.145 216.167V217.464C357.893 217.536 357.641 217.608 357.353 217.681C356.597 217.933 355.912 218.293 355.3 218.726L354.363 217.825L352.454 219.807L353.391 220.708C352.815 221.573 352.418 222.582 352.274 223.627H350.978L351.05 226.402H352.346C352.562 227.411 352.995 228.384 353.607 229.213L352.706 230.15L354.688 232.06L355.588 231.123C356.452 231.699 357.425 232.096 358.506 232.24V233.537L361.279 233.465V232.168C361.531 232.096 361.783 232.023 362.072 231.951C362.828 231.699 363.512 231.339 364.125 230.906L365.061 231.807L366.97 229.825L366.034 228.924C366.61 228.059 367.006 227.086 367.15 226.005H368.447L368.375 223.23H367.078V223.266ZM364.449 224.744C364.485 226.87 363.116 228.744 361.207 229.357C360.775 229.501 360.307 229.573 359.838 229.609C357.209 229.681 355.048 227.591 354.976 224.96C354.94 222.834 356.308 220.96 358.217 220.347C358.65 220.203 359.118 220.131 359.586 220.095C362.216 220.023 364.377 222.113 364.449 224.744Z" fill="#1CB78D"/>
<path d="M358.073 227.627L356.452 224.816L358.073 222.005H361.351L362.972 224.816L361.351 227.627H358.073Z" fill="#C6EDE3"/>
<path d="M134 415L139 426L140 419H147L134 393L142 415H134Z" fill="#EECA32"/>
<path d="M284 413L292 426L289 415L294.5 409L287 393L290 404.5L284 413Z" fill="#EECA32"/>
<defs>
<linearGradient id="paint0_linear_4183_111587" x1="12.0703" y1="315.959" x2="106.088" y2="315.959" gradientUnits="userSpaceOnUse">
<stop stop-color="#093057"/>
<stop offset="1" stop-color="#093E73"/>
</linearGradient>
<clipPath id="clip0_4183_111587">
<rect x="241.396" y="87.3914" width="118.157" height="118.217" rx="59.0785" fill="white"/>
</clipPath>
<clipPath id="clip1_4183_111587">
<rect x="142.138" y="230.395" width="134.674" height="134.742" rx="67.3368" fill="white"/>
</clipPath>
<clipPath id="clip2_4183_111587">
<rect y="216.095" width="118.157" height="118.217" rx="59.0785" fill="white"/>
</clipPath>
</defs>
</svg>
