<svg width="40" height="41" viewBox="0 0 40 41" fill="none" xmlns="http://www.w3.org/2000/svg">
<rect y="0.258789" width="40" height="40" rx="20" fill="#FAFBFB"/>
<g clip-path="url(#clip0_1371_75046)">
<path d="M30.5 27.7588H29.75V18.0088C29.75 17.611 29.592 17.2294 29.3107 16.9481C29.0294 16.6668 28.6478 16.5088 28.25 16.5088H22.25V12.0088C22.25 11.611 22.092 11.2294 21.8107 10.9481C21.5294 10.6668 21.1478 10.5088 20.75 10.5088H11.75C11.3522 10.5088 10.9706 10.6668 10.6893 10.9481C10.408 11.2294 10.25 11.611 10.25 12.0088V27.7588H9.5C9.30109 27.7588 9.11032 27.8378 8.96967 27.9785C8.82902 28.1191 8.75 28.3099 8.75 28.5088C8.75 28.7077 8.82902 28.8985 8.96967 29.0391C9.11032 29.1798 9.30109 29.2588 9.5 29.2588H30.5C30.6989 29.2588 30.8897 29.1798 31.0303 29.0391C31.171 28.8985 31.25 28.7077 31.25 28.5088C31.25 28.3099 31.171 28.1191 31.0303 27.9785C30.8897 27.8378 30.6989 27.7588 30.5 27.7588ZM19.25 21.0088C19.25 21.2077 19.171 21.3985 19.0303 21.5391C18.8897 21.6798 18.6989 21.7588 18.5 21.7588H15.5C15.3011 21.7588 15.1103 21.6798 14.9697 21.5391C14.829 21.3985 14.75 21.2077 14.75 21.0088C14.75 20.8099 14.829 20.6191 14.9697 20.4785C15.1103 20.3378 15.3011 20.2588 15.5 20.2588H18.5C18.6989 20.2588 18.8897 20.3378 19.0303 20.4785C19.171 20.6191 19.25 20.8099 19.25 21.0088ZM14 14.2588H17C17.1989 14.2588 17.3897 14.3378 17.5303 14.4785C17.671 14.6191 17.75 14.8099 17.75 15.0088C17.75 15.2077 17.671 15.3985 17.5303 15.5391C17.3897 15.6798 17.1989 15.7588 17 15.7588H14C13.8011 15.7588 13.6103 15.6798 13.4697 15.5391C13.329 15.3985 13.25 15.2077 13.25 15.0088C13.25 14.8099 13.329 14.6191 13.4697 14.4785C13.6103 14.3378 13.8011 14.2588 14 14.2588ZM14 24.0088H17C17.1989 24.0088 17.3897 24.0878 17.5303 24.2285C17.671 24.3691 17.75 24.5599 17.75 24.7588C17.75 24.9577 17.671 25.1485 17.5303 25.2891C17.3897 25.4298 17.1989 25.5088 17 25.5088H14C13.8011 25.5088 13.6103 25.4298 13.4697 25.2891C13.329 25.1485 13.25 24.9577 13.25 24.7588C13.25 24.5599 13.329 24.3691 13.4697 24.2285C13.6103 24.0878 13.8011 24.0088 14 24.0088ZM22.25 18.0088H28.25V27.7588H22.25V18.0088Z" fill="#1CB78D"/>
<path d="M26 24.0088H24.5C24.3011 24.0088 24.1103 24.0878 23.9697 24.2285C23.829 24.3691 23.75 24.5599 23.75 24.7588C23.75 24.9577 23.829 25.1485 23.9697 25.2891C24.1103 25.4298 24.3011 25.5088 24.5 25.5088H26C26.1989 25.5088 26.3897 25.4298 26.5303 25.2891C26.671 25.1485 26.75 24.9577 26.75 24.7588C26.75 24.5599 26.671 24.3691 26.5303 24.2285C26.3897 24.0878 26.1989 24.0088 26 24.0088Z" fill="#1CB78D"/>
<path d="M24.5 21.7588H26C26.1989 21.7588 26.3897 21.6798 26.5303 21.5391C26.671 21.3985 26.75 21.2077 26.75 21.0088C26.75 20.8099 26.671 20.6191 26.5303 20.4785C26.3897 20.3378 26.1989 20.2588 26 20.2588H24.5C24.3011 20.2588 24.1103 20.3378 23.9697 20.4785C23.829 20.6191 23.75 20.8099 23.75 21.0088C23.75 21.2077 23.829 21.3985 23.9697 21.5391C24.1103 21.6798 24.3011 21.7588 24.5 21.7588Z" fill="#1CB78D"/>
</g>
<defs>
<clipPath id="clip0_1371_75046">
<rect width="24" height="24" fill="white" transform="translate(8 8.25879)"/>
</clipPath>
</defs>
</svg>
