<svg width="41" height="41" viewBox="0 0 41 41" fill="none" xmlns="http://www.w3.org/2000/svg">
<rect x="0.332031" y="0.258789" width="40" height="40" rx="20" fill="#FAFBFB"/>
<path d="M20.332 9.75851C18.1448 9.76111 16.0479 10.6311 14.5013 12.1777C12.9547 13.7244 12.0846 15.8213 12.082 18.0085C12.082 25.0676 19.582 30.3996 19.9014 30.623C20.0277 30.7112 20.178 30.7585 20.332 30.7585C20.4861 30.7585 20.6364 30.7112 20.7627 30.623C21.082 30.3996 28.582 25.0676 28.582 18.0085C28.5794 15.8213 27.7094 13.7244 26.1628 12.1777C24.6162 10.6311 22.5193 9.76111 20.332 9.75851ZM20.3326 15.0088C20.9259 15.0088 21.5059 15.1847 21.9993 15.5144C22.4926 15.844 22.8772 16.3126 23.1042 16.8607C23.3313 17.4089 23.3907 18.0121 23.2749 18.5941C23.1592 19.176 22.8735 19.7105 22.4539 20.1301C22.0343 20.5497 21.4998 20.8354 20.9179 20.9511C20.3359 21.0669 19.7327 21.0075 19.1845 20.7804C18.6364 20.5534 18.1678 20.1688 17.8382 19.6755C17.5085 19.1821 17.3326 18.6021 17.3326 18.0088C17.3326 17.6148 17.4102 17.2247 17.5609 16.8607C17.7117 16.4967 17.9327 16.166 18.2112 15.8874C18.4898 15.6089 18.8205 15.3879 19.1845 15.2371C19.5485 15.0864 19.9386 15.0088 20.3326 15.0088Z" fill="#1CB78D"/>
</svg>
