<svg width="41" height="41" viewBox="0 0 41 41" fill="none" xmlns="http://www.w3.org/2000/svg">
<rect x="0.667969" y="0.258789" width="40" height="40" rx="20" fill="#FAFBFB"/>
<g clip-path="url(#clip0_1371_75037)">
<path d="M31.168 18.7588H30.1555L27.5492 12.8994C27.4325 12.6339 27.2408 12.4082 26.9977 12.25C26.7545 12.0918 26.4705 12.008 26.1805 12.0088H15.1555C14.8654 12.008 14.5814 12.0918 14.3383 12.25C14.0952 12.4082 13.9035 12.6339 13.7867 12.8994L11.1805 18.7588H10.168C9.96906 18.7588 9.77829 18.8378 9.63764 18.9785C9.49699 19.1191 9.41797 19.3099 9.41797 19.5088C9.41797 19.7077 9.49699 19.8985 9.63764 20.0391C9.77829 20.1798 9.96906 20.2588 10.168 20.2588H10.918V27.7588C10.918 28.1566 11.076 28.5382 11.3573 28.8195C11.6386 29.1008 12.0201 29.2588 12.418 29.2588H14.668C15.0658 29.2588 15.4473 29.1008 15.7286 28.8195C16.0099 28.5382 16.168 28.1566 16.168 27.7588V26.2588H25.168V27.7588C25.168 28.1566 25.326 28.5382 25.6073 28.8195C25.8886 29.1008 26.2701 29.2588 26.668 29.2588H28.918C29.3158 29.2588 29.6973 29.1008 29.9786 28.8195C30.2599 28.5382 30.418 28.1566 30.418 27.7588V20.2588H31.168C31.3669 20.2588 31.5576 20.1798 31.6983 20.0391C31.839 19.8985 31.918 19.7077 31.918 19.5088C31.918 19.3099 31.839 19.1191 31.6983 18.9785C31.5576 18.8378 31.3669 18.7588 31.168 18.7588ZM16.168 23.2588H14.668C14.4691 23.2588 14.2783 23.1798 14.1376 23.0391C13.997 22.8985 13.918 22.7077 13.918 22.5088C13.918 22.3099 13.997 22.1191 14.1376 21.9785C14.2783 21.8378 14.4691 21.7588 14.668 21.7588H16.168C16.3669 21.7588 16.5576 21.8378 16.6983 21.9785C16.839 22.1191 16.918 22.3099 16.918 22.5088C16.918 22.7077 16.839 22.8985 16.6983 23.0391C16.5576 23.1798 16.3669 23.2588 16.168 23.2588ZM25.168 23.2588C24.9691 23.2588 24.7783 23.1798 24.6376 23.0391C24.497 22.8985 24.418 22.7077 24.418 22.5088C24.418 22.3099 24.497 22.1191 24.6376 21.9785C24.7783 21.8378 24.9691 21.7588 25.168 21.7588H26.668C26.8669 21.7588 27.0576 21.8378 27.1983 21.9785C27.339 22.1191 27.418 22.3099 27.418 22.5088C27.418 22.7077 27.339 22.8985 27.1983 23.0391C27.0576 23.1798 26.8669 23.2588 26.668 23.2588H25.168Z" fill="#1CB78D"/>
</g>
<defs>
<clipPath id="clip0_1371_75037">
<rect width="24" height="24" fill="white" transform="translate(8.66797 8.25879)"/>
</clipPath>
</defs>
</svg>
