<svg width="20" height="20" viewBox="0 0 20 20" fill="none" xmlns="http://www.w3.org/2000/svg">
<path d="M15.1672 6.67766H4.83321C4.77084 6.67758 4.70907 6.6898 4.65143 6.71362C4.59379 6.73744 4.54142 6.77239 4.4973 6.81647C4.45318 6.86055 4.41819 6.9129 4.39432 6.97052C4.37045 7.02814 4.35818 7.0899 4.35821 7.15226V17.1297C4.35818 17.1921 4.37045 17.2539 4.39431 17.3115C4.41816 17.3692 4.45314 17.4216 4.49725 17.4657C4.54136 17.5099 4.59373 17.5449 4.65137 17.5688C4.70902 17.5927 4.77081 17.605 4.83321 17.6051H15.1672C15.2296 17.6051 15.2914 17.5928 15.3491 17.5689C15.4068 17.545 15.4592 17.51 15.5033 17.4659C15.5474 17.4217 15.5824 17.3693 15.6062 17.3116C15.6301 17.2539 15.6423 17.1921 15.6422 17.1297V7.15206C15.6423 7.0897 15.63 7.02794 15.6061 6.97032C15.5823 6.9127 15.5473 6.86035 15.5032 6.81628C15.459 6.77221 15.4067 6.73728 15.349 6.71349C15.2914 6.68971 15.2296 6.67753 15.1672 6.67766ZM15.8012 3.47046H11.8808V2.87066C11.8809 2.80827 11.8687 2.74647 11.8449 2.6888C11.8211 2.63112 11.7862 2.57871 11.7421 2.53455C11.698 2.4904 11.6456 2.45537 11.588 2.43147C11.5304 2.40757 11.4686 2.39526 11.4062 2.39526H8.59461C8.5322 2.39526 8.4704 2.40756 8.41274 2.43146C8.35509 2.45536 8.3027 2.49038 8.25859 2.53453C8.21448 2.57868 8.1795 2.63109 8.15565 2.68877C8.1318 2.74644 8.11956 2.80825 8.11961 2.87066V3.47046H4.19961C4.13724 3.47038 4.07547 3.4826 4.01783 3.50642C3.96019 3.53024 3.90782 3.56519 3.8637 3.60927C3.81958 3.65335 3.78459 3.7057 3.76072 3.76332C3.73685 3.82094 3.72458 3.8827 3.72461 3.94506V5.33146C3.72458 5.39383 3.73685 5.45559 3.76072 5.51321C3.78459 5.57083 3.81958 5.62318 3.8637 5.66726C3.90782 5.71134 3.96019 5.74629 4.01783 5.77011C4.07547 5.79392 4.13724 5.80614 4.19961 5.80606H15.8012C15.8636 5.8062 15.9254 5.79401 15.983 5.77021C16.0407 5.74641 16.0931 5.71147 16.1372 5.66737C16.1814 5.62328 16.2164 5.57091 16.2402 5.51327C16.2641 5.45563 16.2763 5.39384 16.2762 5.33146V3.94506C16.2763 3.88268 16.2641 3.8209 16.2402 3.76326C16.2164 3.70561 16.1814 3.65324 16.1372 3.60915C16.0931 3.56506 16.0407 3.53011 15.983 3.50631C15.9254 3.48252 15.8636 3.47033 15.8012 3.47046Z" fill="#CA3232"/>
</svg>
