<svg width="48" height="48" viewBox="0 0 48 48" fill="none" xmlns="http://www.w3.org/2000/svg">
<rect x="1" y="1" width="46" height="46" rx="23" fill="#FAFBFB"/>
<path d="M24 24L16.4 18.3C16.2758 18.2069 16.175 18.0861 16.1056 17.9472C16.0361 17.8084 16 17.6552 16 17.5V13C16 12.7348 16.1054 12.4804 16.2929 12.2929C16.4804 12.1054 16.7348 12 17 12H31C31.2652 12 31.5196 12.1054 31.7071 12.2929C31.8946 12.4804 32 12.7348 32 13V17.4551C32 17.6098 31.9642 17.7623 31.8953 17.9007C31.8264 18.0391 31.7263 18.1597 31.603 18.2529L24 24Z" stroke="#1CB78D" stroke-width="1.5" stroke-linecap="round" stroke-linejoin="round"/>
<path d="M24 24L16.4 29.7C16.2758 29.7931 16.175 29.9139 16.1056 30.0528C16.0361 30.1916 16 30.3448 16 30.5V35C16 35.2652 16.1054 35.5196 16.2929 35.7071C16.4804 35.8946 16.7348 36 17 36H31C31.2652 36 31.5196 35.8946 31.7071 35.7071C31.8946 35.5196 32 35.2652 32 35V30.5448C32 30.3902 31.9642 30.2377 31.8953 30.0993C31.8264 29.9609 31.7263 29.8403 31.603 29.7471L24 24Z" stroke="#1CB78D" stroke-width="1.5" stroke-linecap="round" stroke-linejoin="round"/>
<path d="M32 30.5448L16 30.5" stroke="#1CB78D" stroke-width="1.5" stroke-linecap="round" stroke-linejoin="round"/>
<rect x="1" y="1" width="46" height="46" rx="23" stroke="#1CB78D" stroke-width="2"/>
</svg>
