<svg width="72" height="72" viewBox="0 0 72 72" fill="none" xmlns="http://www.w3.org/2000/svg">
<rect width="72" height="72" rx="36" fill="#F9FEF8"/>
<path d="M36.6992 18H34.6992C24.7581 18 16.6992 26.0589 16.6992 36C16.6992 45.9411 24.7581 54 34.6992 54H36.6992C46.6403 54 54.6992 45.9411 54.6992 36C54.6992 26.0589 46.6403 18 36.6992 18Z" fill="white"/>
<path d="M45.3303 32.6307L45.3304 32.6306C45.6296 32.3439 45.8028 31.9502 45.812 31.5359C45.8212 31.1216 45.6655 30.7206 45.3793 30.421C45.093 30.1214 44.6995 29.9477 44.2852 29.938C43.871 29.9283 43.4698 30.0834 43.1698 30.3693L43.1697 30.3693L33.249 39.8394L28.8303 35.6194L28.8302 35.6193C28.5303 35.3334 28.1291 35.1783 27.7148 35.188C27.3005 35.1977 26.907 35.3714 26.6207 35.671C26.3345 35.9706 26.1788 36.3716 26.188 36.7859C26.1972 37.2002 26.3704 37.5939 26.6697 37.8806L26.6697 37.8807L32.1688 43.1307L32.1688 43.1307C32.4602 43.4079 32.8469 43.5625 33.249 43.5625C33.6512 43.5625 34.0379 43.4079 34.3292 43.1307L34.3293 43.1307L45.3303 32.6307ZM25.2011 19.8383C28.3976 17.7025 32.1556 16.5625 36 16.5625C41.1533 16.5685 46.0938 18.6183 49.7378 22.2622C53.3818 25.9062 55.4316 30.8467 55.4375 36.0001C55.4375 39.8444 54.2975 43.6024 52.1617 46.7989C50.0259 49.9954 46.9902 52.4867 43.4384 53.9579C39.8867 55.4291 35.9784 55.814 32.2079 55.064C28.4374 54.314 24.974 52.4628 22.2556 49.7444C19.5372 47.026 17.686 43.5626 16.936 39.7921C16.186 36.0216 16.5709 32.1133 18.0421 28.5616C19.5133 25.0099 22.0046 21.9741 25.2011 19.8383Z" fill="#74CC50" stroke="#74CC50" stroke-width="0.125"/>
</svg>
