<svg width="34" height="34" viewBox="0 0 34 34" fill="none" xmlns="http://www.w3.org/2000/svg">
<path d="M17.5832 2H15.9165C7.63224 2 0.916504 8.71573 0.916504 17C0.916504 25.2843 7.63222 32 15.9165 32H17.5832C25.8674 32 32.5832 25.2843 32.5832 17C32.5832 8.71573 25.8675 2 17.5832 2Z" fill="white"/>
<path d="M24.7824 14.1998L24.7825 14.1997C25.0339 13.9589 25.1794 13.6282 25.1871 13.2802C25.1948 12.9322 25.0641 12.5953 24.8236 12.3437C24.5831 12.092 24.2526 11.946 23.9046 11.9379C23.5566 11.9298 23.2196 12.0601 22.9676 12.3002L22.9676 12.3003L14.7075 20.1851L11.0324 16.6753L11.0324 16.6752C10.7804 16.4351 10.4434 16.3048 10.0954 16.3129C9.74742 16.321 9.41689 16.467 9.17642 16.7187C8.93596 16.9703 8.80522 17.3072 8.81292 17.6552C8.82063 18.0032 8.96615 18.3339 9.21752 18.5747L9.21759 18.5747L13.8001 22.9497L13.8002 22.9498C14.0449 23.1827 14.3698 23.3125 14.7075 23.3125C15.0453 23.3125 15.3702 23.1827 15.6149 22.9498L15.6149 22.9498L24.7824 14.1998ZM8.00671 3.54059C10.6687 1.76189 13.7984 0.812507 17 0.8125C21.2916 0.81747 25.4061 2.52453 28.4408 5.55921C31.4755 8.59389 33.1825 12.7084 33.1875 17.0001C33.1875 20.2016 32.2381 23.3313 30.4594 25.9933C28.6807 28.6553 26.1526 30.7301 23.1947 31.9553C20.2368 33.1805 16.982 33.5011 13.842 32.8765C10.7019 32.2519 7.81758 30.7102 5.55372 28.4463C3.28985 26.1824 1.74814 23.2981 1.12355 20.158C0.498947 17.018 0.819514 13.7632 2.04471 10.8053C3.2699 7.84743 5.34469 5.31929 8.00671 3.54059Z" fill="#1CB78D" stroke="#1CB78D" stroke-width="0.125"/>
</svg>
