<svg width="72" height="72" viewBox="0 0 72 72" fill="none" xmlns="http://www.w3.org/2000/svg">
<rect width="72" height="72" rx="36" fill="#FEFDF7"/>
<path d="M49.5 36C49.5016 39.0619 48.4578 42.0327 46.5413 44.4206L27.5794 25.4587C29.5641 23.8702 31.9574 22.8747 34.4832 22.5872C37.0091 22.2996 39.5649 22.7315 41.8559 23.8333C44.147 24.935 46.0801 26.6617 47.4326 28.8143C48.785 30.9669 49.5017 33.4578 49.5 36ZM22.5 36C22.4983 38.5422 23.215 41.0331 24.5675 43.1857C25.9199 45.3383 27.853 47.065 30.1441 48.1667C32.4352 49.2685 34.9909 49.7004 37.5168 49.4128C40.0427 49.1253 42.4359 48.1298 44.4206 46.5413L25.4588 27.5794C23.5422 29.9673 22.4984 32.9381 22.5 36ZM56.25 36C56.25 40.0051 55.0624 43.9202 52.8373 47.2503C50.6122 50.5804 47.4496 53.1759 43.7493 54.7086C40.0491 56.2412 35.9775 56.6423 32.0494 55.8609C28.1213 55.0796 24.5131 53.1509 21.6811 50.3189C18.8491 47.4869 16.9205 43.8787 16.1391 39.9506C15.3578 36.0225 15.7588 31.9509 17.2914 28.2507C18.8241 24.5505 21.4196 21.3878 24.7497 19.1627C28.0798 16.9376 31.9949 15.75 36 15.75C41.3688 15.756 46.516 17.8913 50.3123 21.6877C54.1087 25.484 56.2441 30.6312 56.25 36ZM52.5 36C52.5 32.7366 51.5323 29.5465 49.7193 26.8331C47.9062 24.1197 45.3293 22.0048 42.3143 20.756C39.2993 19.5071 35.9817 19.1804 32.781 19.817C29.5803 20.4537 26.6403 22.0252 24.3327 24.3327C22.0252 26.6403 20.4537 29.5803 19.8171 32.781C19.1804 35.9817 19.5072 39.2993 20.756 42.3143C22.0048 45.3293 24.1197 47.9062 26.8331 49.7192C29.5465 51.5323 32.7366 52.5 36 52.5C40.3746 52.495 44.5685 50.7551 47.6618 47.6618C50.7551 44.5685 52.495 40.3745 52.5 36Z" fill="#EECA32"/>
</svg>
