<svg width="56" height="57" viewBox="0 0 56 57" fill="none" xmlns="http://www.w3.org/2000/svg">
<rect y="0.258301" width="56" height="56" rx="28" fill="#E8F8F4"/>
<g clip-path="url(#clip0_1861_51313)">
<path d="M41 38.2583C41 38.5235 40.8946 38.7779 40.7071 38.9654C40.5196 39.1529 40.2652 39.2583 40 39.2583H16C15.7348 39.2583 15.4804 39.1529 15.2929 38.9654C15.1054 38.7779 15 38.5235 15 38.2583V18.2583C15 17.9931 15.1054 17.7387 15.2929 17.5512C15.4804 17.3637 15.7348 17.2583 16 17.2583C16.2652 17.2583 16.5196 17.3637 16.7071 17.5512C16.8946 17.7387 17 17.9931 17 18.2583V31.8458L23.2875 25.5458C23.4771 25.358 23.7332 25.2527 24 25.2527C24.2668 25.2527 24.5229 25.358 24.7125 25.5458L28 28.8458L34.0875 22.7583L32.2875 20.9708C32.1518 20.8262 32.0599 20.6462 32.0223 20.4515C31.9847 20.2568 32.003 20.0555 32.075 19.8708C32.1529 19.6898 32.2818 19.5354 32.4461 19.4266C32.6105 19.3178 32.8029 19.2593 33 19.2583H38C38.2652 19.2583 38.5196 19.3637 38.7071 19.5512C38.8946 19.7387 39 19.9931 39 20.2583V25.2583C39.0006 25.4557 38.9428 25.6489 38.8338 25.8135C38.7248 25.9781 38.5695 26.1068 38.3875 26.1833C38.2642 26.2323 38.1327 26.2577 38 26.2583C37.7345 26.2572 37.4795 26.1543 37.2875 25.9708L35.5 24.1708L28.7125 30.9708C28.5229 31.1586 28.2668 31.2639 28 31.2639C27.7332 31.2639 27.4771 31.1586 27.2875 30.9708L24 27.6708L17 34.6708V37.2583H40C40.2652 37.2583 40.5196 37.3637 40.7071 37.5512C40.8946 37.7387 41 37.9931 41 38.2583Z" fill="#1CB78D"/>
</g>
<defs>
<clipPath id="clip0_1861_51313">
<rect width="32" height="32" fill="white" transform="translate(12 12.2583)"/>
</clipPath>
</defs>
</svg>
