<svg width="72" height="72" viewBox="0 0 72 72" fill="none" xmlns="http://www.w3.org/2000/svg">
<rect width="72" height="72" rx="36" fill="#FFF9F9"/>
<path d="M21 36C21 44.2843 27.7157 51 36 51C44.2843 51 51 44.2843 51 36C51 27.7157 44.2843 21 36 21C27.7157 21 21 27.7157 21 36Z" fill="white"/>
<path d="M31.1047 43.1048L31.1047 43.1047L36 38.2095L40.8952 43.1047C41.0402 43.25 41.2125 43.3653 41.4021 43.4441C41.5917 43.5228 41.795 43.5634 42.0003 43.5635C42.2056 43.5636 42.4089 43.5232 42.5986 43.4447C42.7883 43.3662 42.9607 43.251 43.1059 43.1059C43.2511 42.9607 43.3662 42.7883 43.4447 42.5986C43.5232 42.4089 43.5636 42.2056 43.5635 42.0003C43.5634 41.795 43.5228 41.5917 43.4441 41.4021C43.3654 41.2125 43.25 41.0402 43.1047 40.8952L38.2095 36L43.1047 31.1047L43.1048 31.1047C43.3973 30.8116 43.5614 30.4144 43.5612 30.0003C43.561 29.5862 43.3964 29.1892 43.1036 28.8964C42.8108 28.6036 42.4138 28.439 41.9997 28.4388C41.5856 28.4386 41.1884 28.6027 40.8953 28.8952L40.8953 28.8953L36 33.7905L31.1047 28.8953L31.1047 28.8952C30.8116 28.6027 30.4144 28.4386 30.0003 28.4388C29.5862 28.439 29.1892 28.6036 28.8964 28.8964C28.6036 29.1892 28.439 29.5862 28.4388 30.0003C28.4386 30.4144 28.6027 30.8116 28.8952 31.1047L28.8953 31.1047L33.7905 36L28.8953 40.8953L28.8952 40.8953C28.6027 41.1884 28.4386 41.5856 28.4388 41.9997C28.439 42.4138 28.6036 42.8108 28.8964 43.1036C29.1892 43.3964 29.5862 43.561 30.0003 43.5612C30.4144 43.5614 30.8116 43.3973 31.1047 43.1048ZM25.2011 19.8383C28.3976 17.7025 32.1556 16.5625 36 16.5625C41.1533 16.5685 46.0938 18.6183 49.7378 22.2622C53.3818 25.9062 55.4316 30.8467 55.4375 36.0001C55.4375 39.8444 54.2975 43.6024 52.1617 46.7989C50.0259 49.9954 46.9902 52.4867 43.4384 53.9579C39.8867 55.4291 35.9784 55.814 32.2079 55.064C28.4374 54.314 24.974 52.4628 22.2556 49.7444C19.5372 47.026 17.686 43.5626 16.936 39.7921C16.186 36.0216 16.5709 32.1133 18.0421 28.5616C19.5133 25.0099 22.0046 21.9741 25.2011 19.8383Z" fill="#CA3232" stroke="#CA3232" stroke-width="0.125"/>
</svg>
