<svg width="200" height="200" viewBox="0 0 200 200" fill="none" xmlns="http://www.w3.org/2000/svg">
<rect width="200" height="200" rx="100" fill="#FAFBFB"/>
<g clip-path="url(#clip0_1135_19469)">
<path d="M128 120H126V94C126 92.9391 125.579 91.9217 124.828 91.1716C124.078 90.4214 123.061 90 122 90H106V78C106 76.9391 105.579 75.9217 104.828 75.1716C104.078 74.4214 103.061 74 102 74H78C76.9391 74 75.9217 74.4214 75.1716 75.1716C74.4214 75.9217 74 76.9391 74 78V120H72C71.4696 120 70.9609 120.211 70.5858 120.586C70.2107 120.961 70 121.47 70 122C70 122.53 70.2107 123.039 70.5858 123.414C70.9609 123.789 71.4696 124 72 124H128C128.53 124 129.039 123.789 129.414 123.414C129.789 123.039 130 122.53 130 122C130 121.47 129.789 120.961 129.414 120.586C129.039 120.211 128.53 120 128 120ZM98 102C98 102.53 97.7893 103.039 97.4142 103.414C97.0391 103.789 96.5304 104 96 104H88C87.4696 104 86.9609 103.789 86.5858 103.414C86.2107 103.039 86 102.53 86 102C86 101.47 86.2107 100.961 86.5858 100.586C86.9609 100.211 87.4696 100 88 100H96C96.5304 100 97.0391 100.211 97.4142 100.586C97.7893 100.961 98 101.47 98 102ZM84 84H92C92.5304 84 93.0391 84.2107 93.4142 84.5858C93.7893 84.9609 94 85.4696 94 86C94 86.5304 93.7893 87.0391 93.4142 87.4142C93.0391 87.7893 92.5304 88 92 88H84C83.4696 88 82.9609 87.7893 82.5858 87.4142C82.2107 87.0391 82 86.5304 82 86C82 85.4696 82.2107 84.9609 82.5858 84.5858C82.9609 84.2107 83.4696 84 84 84ZM84 110H92C92.5304 110 93.0391 110.211 93.4142 110.586C93.7893 110.961 94 111.47 94 112C94 112.53 93.7893 113.039 93.4142 113.414C93.0391 113.789 92.5304 114 92 114H84C83.4696 114 82.9609 113.789 82.5858 113.414C82.2107 113.039 82 112.53 82 112C82 111.47 82.2107 110.961 82.5858 110.586C82.9609 110.211 83.4696 110 84 110ZM106 94H122V120H106V94Z" fill="#052C47"/>
<path d="M116 110H112C111.47 110 110.961 110.211 110.586 110.586C110.211 110.961 110 111.47 110 112C110 112.53 110.211 113.039 110.586 113.414C110.961 113.789 111.47 114 112 114H116C116.53 114 117.039 113.789 117.414 113.414C117.789 113.039 118 112.53 118 112C118 111.47 117.789 110.961 117.414 110.586C117.039 110.211 116.53 110 116 110Z" fill="#052C47"/>
<path d="M112 104H116C116.53 104 117.039 103.789 117.414 103.414C117.789 103.039 118 102.53 118 102C118 101.47 117.789 100.961 117.414 100.586C117.039 100.211 116.53 100 116 100H112C111.47 100 110.961 100.211 110.586 100.586C110.211 100.961 110 101.47 110 102C110 102.53 110.211 103.039 110.586 103.414C110.961 103.789 111.47 104 112 104Z" fill="black"/>
</g>
<defs>
<clipPath id="clip0_1135_19469">
<rect width="64" height="64" fill="white" transform="translate(68 68)"/>
</clipPath>
</defs>
</svg>
