<svg width="146" height="26" viewBox="0 0 146 26" fill="none" xmlns="http://www.w3.org/2000/svg">
<path d="M20.9019 11.5736C20.2948 9.64092 18.4898 8.23828 16.3569 8.23828C16.2292 8.23828 16.1025 8.24379 15.9766 8.25298C13.5241 8.44679 11.5942 10.4989 11.5942 13.0019C11.5942 15.6317 13.7261 17.7646 16.3569 17.7646C16.6297 17.7646 16.897 17.7417 17.1579 17.6976C19.3192 17.332 20.9846 15.5105 21.1113 13.2775C21.1169 13.1865 21.1196 13.0947 21.1196 13.0019C21.1196 12.5041 21.0434 12.0246 20.9019 11.5736ZM18.3511 13.2297C18.2372 14.2291 17.3866 15.009 16.3569 15.009C15.25 15.009 14.3498 14.1079 14.3498 13.0019C14.3498 11.896 15.25 10.994 16.3569 10.994C17.2139 10.994 17.9478 11.535 18.2344 12.2928C18.318 12.5132 18.3639 12.7521 18.3639 13.0019C18.3639 13.0791 18.3594 13.1553 18.3511 13.2297Z" fill="#1CB78D"/>
<path d="M39.2161 11.5736C38.6089 9.64092 36.804 8.23828 34.6711 8.23828C34.5434 8.23828 34.4166 8.24379 34.2908 8.25298C31.8383 8.44679 29.9084 10.4989 29.9084 13.0019C29.9084 15.6317 32.0403 17.7646 34.6711 17.7646C34.9439 17.7646 35.2112 17.7417 35.4721 17.6976C37.6334 17.332 39.2988 15.5105 39.4255 13.2775C39.431 13.1865 39.4338 13.0947 39.4338 13.0019C39.4338 12.5041 39.3576 12.0246 39.2161 11.5736ZM36.6653 13.2297C36.5514 14.2291 35.7008 15.009 34.6711 15.009C33.5642 15.009 32.664 14.1079 32.664 13.0019C32.664 11.896 33.5642 10.994 34.6711 10.994C35.5281 10.994 36.262 11.535 36.5486 12.2928C36.6322 12.5132 36.6781 12.7521 36.6781 13.0019C36.6781 13.0791 36.6735 13.1553 36.6653 13.2297Z" fill="#F0F8F0"/>
<path d="M128.45 11.5736C127.843 9.64092 126.038 8.23828 123.905 8.23828C123.778 8.23828 123.651 8.24379 123.525 8.25298C121.072 8.44679 119.143 10.4989 119.143 13.0019C119.143 15.6317 121.274 17.7646 123.905 17.7646C124.178 17.7646 124.445 17.7417 124.706 17.6976C126.868 17.332 128.533 15.5105 128.66 13.2775C128.665 13.1865 128.668 13.0947 128.668 13.0019C128.668 12.5041 128.592 12.0246 128.45 11.5736ZM125.899 13.2297C125.786 14.2291 124.935 15.009 123.905 15.009C122.798 15.009 121.898 14.1079 121.898 13.0019C121.898 11.896 122.798 10.994 123.905 10.994C124.762 10.994 125.496 11.535 125.783 12.2928C125.866 12.5132 125.912 12.7521 125.912 13.0019C125.912 13.0791 125.908 13.1553 125.899 13.2297Z" fill="#F0F8F0"/>
<path d="M26.8909 6.65319C27.1095 6.42814 27.4182 6.31608 27.8177 6.31608C28.0299 6.31608 28.2109 6.35099 28.3606 6.41896C28.5103 6.48785 28.6417 6.5843 28.7537 6.70922L30.5697 4.87395C30.2198 4.52489 29.811 4.24382 29.3435 4.03163C28.875 3.81944 28.3294 3.71289 27.7057 3.71289C26.8946 3.71289 26.1827 3.88833 25.5709 4.23739C24.9592 4.58736 24.4907 5.05858 24.1665 5.65105C23.8413 6.24443 23.6796 6.91498 23.6796 7.6636V8.43152H21.6579V10.8841H23.6796V17.5307H26.563V10.885H29.1653V8.43244H26.563V7.57083C26.563 7.18412 26.6723 6.87824 26.8909 6.65319Z" fill="#F0F8F0"/>
<path d="M46.2789 8.24512C45.2924 8.24512 44.5153 8.53906 43.9476 9.12509C43.9448 9.12877 43.9412 9.13152 43.9384 9.1352V8.4325H41.0551V17.5317H43.9384V12.5513C43.9384 11.9644 44.0789 11.5244 44.36 11.2313C44.6411 10.9383 45.0251 10.7914 45.5119 10.7914C45.7489 10.7914 45.9611 10.829 46.1485 10.9034C46.3358 10.9787 46.4856 11.0779 46.5976 11.2029L48.3016 9.0314C48.0517 8.76961 47.7614 8.57304 47.4308 8.44169C47.1001 8.31033 46.7161 8.24512 46.2789 8.24512Z" fill="#F0F8F0"/>
<path d="M54.4614 13.6564C54.4614 14.1313 54.3401 14.5052 54.0967 14.7798C53.8533 15.0545 53.519 15.1914 53.0946 15.1914C52.8071 15.1914 52.5581 15.1289 52.346 15.004C52.1338 14.879 51.9712 14.7018 51.8591 14.4703C51.7471 14.2397 51.691 13.9678 51.691 13.6555V8.43262H48.8077V13.6941C48.8077 14.4804 48.9886 15.1767 49.3505 15.782C49.7125 16.3873 50.2213 16.865 50.8763 17.214C51.5312 17.5631 52.2716 17.7385 53.0946 17.7385C53.9176 17.7385 54.6864 17.5667 55.323 17.2232C55.9596 16.8797 56.4556 16.4057 56.812 15.8004C57.1675 15.195 57.3457 14.4933 57.3457 13.6941V8.43262H54.4623V13.6564H54.4614Z" fill="#F0F8F0"/>
<path d="M71.8919 8.68505C71.3426 8.39203 70.7244 8.24506 70.0383 8.24506C69.3521 8.24506 68.6834 8.39478 68.1093 8.69423C67.7226 8.8954 67.3919 9.1581 67.1127 9.47776C66.8509 9.15167 66.5377 8.88346 66.1712 8.67494C65.666 8.38835 65.101 8.24414 64.4764 8.24414C63.7903 8.24414 63.1813 8.38468 62.6512 8.66576C62.4143 8.7916 62.1993 8.94133 62.0055 9.11401V8.43153H59.1222V17.5308H62.0055V12.2132C62.0055 11.9138 62.0707 11.6575 62.2021 11.4453C62.3334 11.2331 62.5107 11.0678 62.7358 10.9493C62.9608 10.8308 63.2162 10.7711 63.5037 10.7711C63.9152 10.7711 64.2615 10.8988 64.5426 11.155C64.8236 11.4113 64.9642 11.7631 64.9642 12.2132V17.5308H67.8475V12.2132C67.8475 11.9138 67.91 11.6575 68.0349 11.4453C68.1598 11.2331 68.3371 11.0678 68.5686 10.9493C68.7992 10.8308 69.0518 10.7711 69.3273 10.7711C69.7269 10.7711 70.0668 10.8988 70.3478 11.155C70.6289 11.4113 70.7695 11.7631 70.7695 12.2132V17.5308H73.6528V11.8761C73.6528 11.1146 73.4967 10.4661 73.1843 9.92877C72.872 9.39234 72.4412 8.97715 71.8919 8.68321V8.68505Z" fill="#F0F8F0"/>
<path d="M81.8436 8.44169C81.5129 8.31033 81.1289 8.24512 80.6917 8.24512C79.7052 8.24512 78.9281 8.53906 78.3604 9.12509C78.3577 9.12877 78.354 9.13152 78.3512 9.1352V8.4325H75.4679V17.5317H78.3512V12.5513C78.3512 11.9644 78.4918 11.5244 78.7728 11.2313C79.0539 10.9383 79.4379 10.7914 79.9247 10.7914C80.1617 10.7914 80.3739 10.829 80.5613 10.9034C80.7487 10.9787 80.8984 11.0779 81.0105 11.2029L82.7144 9.0314C82.4645 8.76961 82.1743 8.57304 81.8436 8.44169Z" fill="#F0F8F0"/>
<path d="M89.5108 9.1848C89.2655 8.95149 88.9817 8.75675 88.6584 8.6006C88.1651 8.36361 87.613 8.24512 87.0013 8.24512C86.1645 8.24512 85.4195 8.44812 84.7637 8.8532C84.1087 9.2592 83.5907 9.82044 83.2095 10.5378C82.8283 11.2561 82.6381 12.07 82.6381 12.9812C82.6381 13.8924 82.8283 14.7007 83.2095 15.4062C83.5898 16.1116 84.1115 16.6729 84.7729 17.0917C85.4342 17.5097 86.1773 17.7191 87.0013 17.7191C87.625 17.7191 88.1835 17.6006 88.6767 17.3636C88.9936 17.2112 89.271 17.0219 89.5099 16.795V17.5326H92.3372V8.4325H89.5099V9.1848H89.5108ZM87.6011 15.1168C87.2144 15.1168 86.8681 15.0268 86.5622 14.8449C86.2563 14.664 86.0129 14.4114 85.8319 14.0862C85.651 13.762 85.5601 13.3936 85.5601 12.9812C85.5601 12.5688 85.6501 12.2013 85.8319 11.8762C86.0129 11.5519 86.2563 11.2993 86.5622 11.1184C86.8681 10.9374 87.2144 10.8465 87.6011 10.8465C87.9878 10.8465 88.3561 10.9374 88.6685 11.1184C88.9798 11.2993 89.2178 11.5492 89.3803 11.867C89.542 12.1848 89.6238 12.5504 89.6238 12.9619C89.6238 13.5985 89.4391 14.1165 89.0717 14.5161C88.7034 14.9157 88.2138 15.115 87.602 15.115L87.6011 15.1168Z" fill="#F0F8F0"/>
<path d="M101.549 8.68466C101.013 8.39164 100.388 8.24467 99.6774 8.24467C98.9664 8.24467 98.3795 8.39164 97.8421 8.68466C97.6152 8.80866 97.4104 8.95563 97.2239 9.12373V3.93848H94.3406V17.5313H97.2239V12.3451C97.2239 12.0328 97.2928 11.7582 97.4297 11.5212C97.5665 11.2842 97.7539 11.0995 97.9918 10.9691C98.2288 10.8378 98.497 10.7725 98.7974 10.7725C99.2466 10.7725 99.6213 10.9195 99.9208 11.2125C100.22 11.5055 100.37 11.884 100.37 12.3451V17.5313H103.253V11.7085C103.253 11.0224 103.104 10.4198 102.804 9.90175C102.505 9.38368 102.086 8.9786 101.549 8.68466Z" fill="#F0F8F0"/>
<path d="M106.867 14.2734C106.367 14.2734 105.958 14.4388 105.641 14.7695C105.323 15.1001 105.163 15.5089 105.163 15.9957C105.163 16.4826 105.322 16.8941 105.641 17.2312C105.959 17.5683 106.368 17.7364 106.867 17.7364C107.366 17.7364 107.775 17.5683 108.093 17.2312C108.411 16.8941 108.571 16.4826 108.571 15.9957C108.571 15.5089 108.412 15.1001 108.093 14.7695C107.774 14.4388 107.366 14.2734 106.867 14.2734Z" fill="#F0F8F0"/>
<path d="M115.883 14.9293C115.59 15.0542 115.255 15.1167 114.88 15.1167C114.506 15.1167 114.137 15.0266 113.813 14.8448C113.488 14.6638 113.235 14.4112 113.055 14.086C112.874 13.7618 112.783 13.387 112.783 12.9626C112.783 12.5383 112.873 12.1855 113.055 11.8677C113.236 11.5499 113.486 11.3001 113.804 11.1191C114.122 10.9381 114.481 10.8472 114.88 10.8472C115.242 10.8472 115.564 10.9032 115.845 11.0153C116.126 11.1274 116.372 11.3028 116.584 11.5398L118.438 9.66778C117.976 9.1938 117.449 8.83465 116.856 8.59123C116.263 8.34781 115.604 8.22656 114.881 8.22656C113.932 8.22656 113.077 8.43232 112.316 8.84475C111.554 9.25626 110.955 9.82118 110.518 10.5395C110.081 11.2578 109.863 12.0716 109.863 12.9829C109.863 13.8941 110.078 14.6932 110.509 15.417C110.94 16.1408 111.536 16.7085 112.297 17.1209C113.059 17.5325 113.914 17.7391 114.862 17.7391C115.611 17.7391 116.282 17.6115 116.875 17.3552C117.467 17.0998 118.007 16.7214 118.494 16.2226L116.64 14.3873C116.428 14.6243 116.176 14.8053 115.883 14.9302V14.9293Z" fill="#F0F8F0"/>
<path d="M144.35 9.92963C144.038 9.3932 143.607 8.97801 143.058 8.68407C142.509 8.39105 141.891 8.24408 141.204 8.24408C140.518 8.24408 139.85 8.39381 139.275 8.69326C138.889 8.89442 138.558 9.15713 138.279 9.47679C138.017 9.1507 137.704 8.88248 137.337 8.67397C136.832 8.38738 136.267 8.24316 135.643 8.24316C134.956 8.24316 134.347 8.3837 133.817 8.66478C133.58 8.79062 133.365 8.94035 133.172 9.11304V8.43055H130.288V17.5298H133.172V12.2122C133.172 11.9128 133.237 11.6565 133.368 11.4443C133.5 11.2321 133.677 11.0668 133.902 10.9483C134.127 10.8298 134.382 10.7701 134.67 10.7701C135.081 10.7701 135.428 10.8978 135.709 11.1541C135.99 11.4103 136.13 11.7622 136.13 12.2122V17.5298H139.014V12.2122C139.014 11.9128 139.076 11.6565 139.201 11.4443C139.326 11.2321 139.503 11.0668 139.735 10.9483C139.965 10.8298 140.218 10.7701 140.493 10.7701C140.893 10.7701 141.233 10.8978 141.514 11.1541C141.795 11.4103 141.936 11.7622 141.936 12.2122V17.5298H144.819V11.8751C144.819 11.1137 144.663 10.4652 144.35 9.9278V9.92963Z" fill="#F0F8F0"/>
<path d="M10.4616 18.1713C10.4616 20.9141 8.23777 23.1379 5.49496 23.1379C2.75215 23.1379 0.52832 20.9141 0.52832 18.1713H3.03506C3.03506 19.5298 4.13641 20.6312 5.49496 20.6312C6.45669 20.6312 7.28982 20.0791 7.69398 19.2754C8.50691 19.0889 9.24267 18.7031 9.84892 18.1713C10.0574 17.9885 10.2503 17.7882 10.4258 17.5742C10.4497 17.7699 10.4616 17.9692 10.4616 18.1713Z" fill="#1CB78D"/>
<path d="M5.49496 10.745C4.13641 10.745 3.03506 11.8464 3.03506 13.2049C3.03506 13.4153 3.0617 13.6183 3.1113 13.813C3.38228 14.8776 4.34676 15.6639 5.49496 15.6639C6.64315 15.6639 7.60856 14.8767 7.87953 13.813C7.92913 13.6183 7.95577 13.4143 7.95577 13.2049H10.4625C10.4625 14.1097 10.2209 14.9575 9.79748 15.6878C9.35749 16.4493 8.72001 17.0831 7.95577 17.5194C7.93097 17.5341 7.90525 17.5479 7.87953 17.5616C7.17224 17.9502 6.35932 18.1706 5.49496 18.1706C4.6306 18.1706 3.81859 17.9502 3.1113 17.5616C2.84308 17.4147 2.59048 17.2447 2.35625 17.0528C1.89146 16.6734 1.49556 16.2104 1.19336 15.6878C0.770819 14.9575 0.52832 14.1088 0.52832 13.2049C0.52832 12.3011 0.765308 11.4698 1.17958 10.745C2.03475 9.24778 3.64682 8.23828 5.49496 8.23828H10.4616V10.745H5.49496Z" fill="#1CB78D"/>
</svg>
