<svg width="209" height="32" viewBox="0 0 209 32" fill="none" xmlns="http://www.w3.org/2000/svg">
<path fill-rule="evenodd" clip-rule="evenodd" d="M20.6021 0L30.4108 5.94223V18.2759C30.4108 25.856 24.2652 32 16.6868 32C12.9931 32 9.83308 29.7133 8.54529 26.4785C3.80556 26.3577 0 22.4771 0 17.7083V0.00422232L9.84669 5.94089V23.2405C9.84669 23.6718 9.88662 24.0937 9.96297 24.5029C15.9366 23.9062 20.6021 18.8649 20.6021 12.7331V0ZM10.5986 26.3613C11.733 28.5696 14.0336 30.0806 16.6868 30.0806C23.2053 30.0806 28.4914 24.7958 28.4914 18.2759V7.0236L22.5215 3.40698V12.7331C22.5215 19.7078 17.328 25.4685 10.5986 26.3613ZM8.02022 24.5211C7.95898 24.1031 7.92727 23.6755 7.92727 23.2405V7.02494L1.91943 3.40276V17.7083C1.91943 21.2388 4.58945 24.1462 8.02022 24.5211Z" fill="#1CB78D"/>
<path d="M138.658 18.347V26.4651H143.142V17.3505C143.142 16.2759 142.908 15.3381 142.439 14.537C141.989 13.7164 141.345 13.0814 140.504 12.632C139.664 12.1631 138.687 11.9286 137.574 11.9286C136.48 11.9286 135.512 12.1631 134.672 12.632C134.329 12.8158 134.016 13.0324 133.734 13.2816V5.23096H129.25V26.4651H133.734V18.347C133.734 17.8585 133.842 17.4287 134.057 17.0574C134.272 16.6667 134.565 16.3736 134.936 16.1782C135.307 15.9633 135.737 15.8558 136.226 15.8558C136.929 15.8558 137.505 16.0903 137.955 16.5592C138.424 17.0086 138.658 17.6045 138.658 18.347Z" fill="#052C47"/>
<path fill-rule="evenodd" clip-rule="evenodd" d="M176.101 26.7688C177.342 26.6917 178.467 26.3755 179.476 25.8204C180.648 25.1561 181.577 24.2573 182.26 23.1241C182.944 21.9909 183.286 20.7209 183.286 19.3141C183.286 17.9074 182.944 16.6471 182.26 15.5334C181.577 14.4002 180.648 13.5112 179.476 12.8665C178.304 12.2217 176.975 11.8993 175.49 11.8993C174.005 11.8993 172.677 12.2315 171.505 12.8958C170.332 13.5405 169.404 14.4198 168.72 15.5334C168.036 16.6471 167.695 17.9074 167.695 19.3141C167.695 20.7209 168.036 21.9909 168.72 23.1241C169.404 24.2573 170.332 25.1561 171.505 25.8204C172.531 26.3755 173.658 26.6917 174.887 26.7688H176.101ZM175.49 22.7138C176.135 22.7138 176.702 22.577 177.19 22.3035C177.679 22.0104 178.05 21.6099 178.304 21.1019C178.577 20.5743 178.714 19.9784 178.714 19.3141C178.714 18.6498 178.577 18.0734 178.304 17.585C178.03 17.077 177.649 16.6862 177.161 16.4127C176.692 16.1196 176.135 15.9731 175.49 15.9731C174.865 15.9731 174.308 16.1196 173.82 16.4127C173.331 16.6862 172.95 17.077 172.677 17.585C172.403 18.093 172.267 18.6791 172.267 19.3434C172.267 19.9882 172.403 20.5743 172.677 21.1019C172.95 21.6099 173.331 22.0104 173.82 22.3035C174.308 22.577 174.865 22.7138 175.49 22.7138Z" fill="#052C47"/>
<path d="M161.931 26.7688C162.847 26.7115 163.689 26.5224 164.46 26.2014C165.398 25.7911 166.238 25.1952 166.98 24.4136L164.137 21.5415C163.805 21.9127 163.405 22.2058 162.936 22.4207C162.486 22.6161 161.969 22.7138 161.382 22.7138C160.757 22.7138 160.191 22.5672 159.683 22.2742C159.175 21.9811 158.774 21.5806 158.481 21.0726C158.207 20.5646 158.071 19.9784 158.071 19.3141C158.071 18.6498 158.207 18.0734 158.481 17.585C158.774 17.077 159.165 16.6862 159.653 16.4127C160.161 16.1196 160.738 15.9731 161.382 15.9731C161.949 15.9731 162.447 16.061 162.877 16.2368C163.326 16.4127 163.717 16.6862 164.049 17.0574L166.922 14.1853C166.199 13.4233 165.368 12.8567 164.43 12.4855C163.512 12.0947 162.496 11.8993 161.382 11.8993C159.898 11.8993 158.559 12.2217 157.367 12.8665C156.175 13.5112 155.228 14.4002 154.524 15.5334C153.841 16.6471 153.499 17.9171 153.499 19.3434C153.499 20.7502 153.841 22.0202 154.524 23.1534C155.208 24.2866 156.146 25.1756 157.338 25.8204C158.364 26.3755 159.492 26.6917 160.721 26.7688H161.931Z" fill="#052C47"/>
<path d="M149.186 26.7688C149.809 26.7002 150.327 26.4427 150.741 25.9962C151.249 25.4687 151.503 24.8337 151.503 24.0912C151.503 23.3097 151.249 22.6649 150.741 22.1569C150.252 21.6294 149.617 21.3656 148.836 21.3656C148.074 21.3656 147.439 21.6294 146.931 22.1569C146.423 22.6649 146.169 23.3097 146.169 24.0912C146.169 24.8337 146.423 25.4687 146.931 25.9962C147.361 26.4427 147.881 26.7002 148.493 26.7688H149.186Z" fill="#052C47"/>
<path d="M47.8216 26.7688C48.8887 26.7002 49.844 26.4427 50.6873 25.9962C51.6837 25.4492 52.4653 24.7067 53.0319 23.7689C53.5985 22.8115 53.8818 21.7076 53.8818 20.4571V12.2217H49.3977V20.4278C49.3977 21.1703 49.2024 21.7564 48.8116 22.1863C48.4208 22.5966 47.8933 22.8017 47.229 22.8017C46.7601 22.8017 46.3595 22.704 46.0274 22.5086C45.6952 22.3132 45.4412 22.0397 45.2654 21.688C45.1091 21.3363 45.0309 20.9163 45.0309 20.4278V12.2217H40.5469V20.4864C40.5469 21.7173 40.8302 22.8115 41.3968 23.7689C41.9634 24.7067 42.7449 25.4492 43.7414 25.9962C44.6012 26.4427 45.566 26.7002 46.6357 26.7688H47.8216Z" fill="#052C47"/>
<path d="M56.6971 12.2217V26.4651H61.1812V18.1418C61.1812 17.6534 61.2789 17.2431 61.4743 16.9109C61.6892 16.5787 61.9725 16.3247 62.3242 16.1489C62.6759 15.9535 63.0764 15.8558 63.5258 15.8558C64.1706 15.8558 64.7079 16.061 65.1377 16.4713C65.5871 16.8621 65.8118 17.4189 65.8118 18.1418V26.4651H70.2958V18.1418C70.2958 17.6534 70.3935 17.2431 70.5889 16.9109C70.8038 16.5787 71.0871 16.3247 71.4388 16.1489C71.7905 15.9535 72.1911 15.8558 72.6404 15.8558C73.2852 15.8558 73.8225 16.061 74.2523 16.4713C74.7017 16.8621 74.9264 17.4189 74.9264 18.1418V26.4651H79.4105V17.6436C79.4105 16.4517 79.1565 15.4358 78.6485 14.5956C78.16 13.7359 77.4859 13.0814 76.6263 12.632C75.7861 12.1631 74.819 11.9286 73.7248 11.9286C72.6111 11.9286 71.6049 12.1729 70.7061 12.6613C70.1226 12.9726 69.6121 13.3742 69.1749 13.8662C68.7674 13.3515 68.2716 12.9304 67.6875 12.6027C66.9059 12.1533 66.0169 11.9286 65.0205 11.9286C63.9654 11.9286 63.0178 12.1533 62.1777 12.6027C61.8122 12.7897 61.4801 13.0136 61.1812 13.2745V12.2217H56.6971Z" fill="#052C47"/>
<path fill-rule="evenodd" clip-rule="evenodd" d="M88.2334 26.7582C86.9243 26.7582 85.752 26.4358 84.7165 25.7911C83.7005 25.1463 82.8897 24.2671 82.284 23.1534C81.6978 22.0397 81.4048 20.7697 81.4048 19.3434C81.4048 17.9171 81.6978 16.6471 82.284 15.5334C82.8897 14.4198 83.7005 13.5405 84.7165 12.8958C85.752 12.251 86.9243 11.9286 88.2334 11.9286C89.1908 11.9286 90.0505 12.1142 90.8125 12.4855C91.3248 12.7288 91.7742 13.0352 92.1606 13.4045V12.2217H96.5567V26.4651H92.1606V25.3108C91.7862 25.6647 91.3466 25.9616 90.8418 26.2014C90.0602 26.5726 89.1908 26.7582 88.2334 26.7582ZM89.1419 22.7138C90.0993 22.7138 90.8711 22.4012 91.4572 21.7759C92.0434 21.1312 92.3365 20.3203 92.3365 19.3434C92.3365 18.6791 92.1997 18.093 91.9261 17.585C91.6721 17.077 91.3009 16.6862 90.8125 16.4127C90.3435 16.1196 89.7965 15.9731 89.1712 15.9731C88.546 15.9731 87.9892 16.1196 87.5007 16.4127C87.0318 16.6862 86.6508 17.077 86.3577 17.585C86.0842 18.093 85.9474 18.6791 85.9474 19.3434C85.9474 19.9882 86.0842 20.5646 86.3577 21.0726C86.6313 21.5806 87.0123 21.9811 87.5007 22.2742C87.9892 22.5672 88.5362 22.7138 89.1419 22.7138Z" fill="#052C47"/>
<path d="M104.198 12.2217H99.7139V26.4651H104.198V18.64C104.198 17.7217 104.413 17.0379 104.843 16.5885C105.292 16.1196 105.888 15.8851 106.631 15.8851C107.002 15.8851 107.334 15.9438 107.627 16.061C107.92 16.1782 108.164 16.3443 108.36 16.5592L111.027 13.1888C110.636 12.759 110.177 12.4464 109.649 12.251C109.141 12.0361 108.545 11.9286 107.861 11.9286C106.298 11.9286 105.077 12.3878 104.198 13.3061V12.2217Z" fill="#052C47"/>
<path fill-rule="evenodd" clip-rule="evenodd" d="M117.77 26.7582C116.461 26.7582 115.289 26.4358 114.253 25.7911C113.237 25.1463 112.426 24.2671 111.82 23.1534C111.234 22.0397 110.941 20.7697 110.941 19.3434C110.941 17.9171 111.234 16.6471 111.82 15.5334C112.426 14.4198 113.237 13.5405 114.253 12.8958C115.289 12.251 116.461 11.9286 117.77 11.9286C118.727 11.9286 119.587 12.1142 120.349 12.4855C120.861 12.7288 121.311 13.0352 121.697 13.4045V12.2217H126.093V26.4651H121.697V25.3108C121.323 25.6647 120.883 25.9616 120.378 26.2014C119.597 26.5726 118.727 26.7582 117.77 26.7582ZM118.678 22.7138C119.636 22.7138 120.408 22.4012 120.994 21.7759C121.58 21.1312 121.873 20.3203 121.873 19.3434C121.873 18.6791 121.736 18.093 121.463 17.585C121.209 17.077 120.837 16.6862 120.349 16.4127C119.88 16.1196 119.333 15.9731 118.708 15.9731C118.082 15.9731 117.526 16.1196 117.037 16.4127C116.568 16.6862 116.187 17.077 115.894 17.585C115.621 18.093 115.484 18.6791 115.484 19.3434C115.484 19.9882 115.621 20.5646 115.894 21.0726C116.168 21.5806 116.549 21.9811 117.037 22.2742C117.526 22.5672 118.073 22.7138 118.678 22.7138Z" fill="#052C47"/>
<path d="M190.003 12.2217H185.519V26.4651H190.003V18.1418C190.003 17.6534 190.1 17.2431 190.296 16.9109C190.511 16.5787 190.794 16.3247 191.146 16.1489C191.497 15.9535 191.898 15.8558 192.347 15.8558C192.992 15.8558 193.529 16.061 193.959 16.4713C194.408 16.8621 194.633 17.4189 194.633 18.1418V26.4651H199.117V18.1418C199.117 17.6534 199.215 17.2431 199.41 16.9109C199.625 16.5787 199.909 16.3247 200.26 16.1489C200.612 15.9535 201.012 15.8558 201.462 15.8558C202.107 15.8558 202.644 16.061 203.074 16.4713C203.523 16.8621 203.748 17.4189 203.748 18.1418V26.4651H208.232V17.6436C208.232 16.4517 207.978 15.4358 207.47 14.5956C206.981 13.7359 206.307 13.0814 205.448 12.632C204.608 12.1631 203.64 11.9286 202.546 11.9286C201.433 11.9286 200.426 12.1729 199.528 12.6613C198.944 12.9726 198.434 13.3742 197.996 13.8662C197.589 13.3515 197.093 12.9304 196.509 12.6027C195.727 12.1533 194.838 11.9286 193.842 11.9286C192.787 11.9286 191.839 12.1533 190.999 12.6027C190.634 12.7897 190.301 13.0136 190.003 13.2745V12.2217Z" fill="#052C47"/>
</svg>
