<svg width="147" height="26" viewBox="0 0 147 26" fill="none" xmlns="http://www.w3.org/2000/svg">
<path d="M20.9015 11.574C20.2943 9.64141 18.4893 8.23877 16.3565 8.23877C16.2288 8.23877 16.102 8.24428 15.9762 8.25347C13.5236 8.44728 11.5938 10.4993 11.5938 13.0024C11.5938 15.6322 13.7257 17.7651 16.3565 17.7651C16.6293 17.7651 16.8966 17.7422 17.1574 17.6981C19.3188 17.3325 20.9841 15.511 21.1109 13.278C21.1164 13.187 21.1191 13.0952 21.1191 13.0024C21.1191 12.5045 21.0429 12.0251 20.9015 11.574ZM18.3506 13.2302C18.2367 14.2296 17.3861 15.0095 16.3565 15.0095C15.2496 15.0095 14.3494 14.1083 14.3494 13.0024C14.3494 11.8965 15.2496 10.9944 16.3565 10.9944C17.2135 10.9944 17.9474 11.5355 18.234 12.2933C18.3176 12.5137 18.3635 12.7526 18.3635 13.0024C18.3635 13.0796 18.3589 13.1558 18.3506 13.2302Z" fill="#1CB78D"/>
<path d="M39.2139 11.574C38.6068 9.64141 36.8018 8.23877 34.6689 8.23877C34.5413 8.23877 34.4145 8.24428 34.2887 8.25347C31.8361 8.44728 29.9062 10.4993 29.9062 13.0024C29.9062 15.6322 32.0382 17.7651 34.6689 17.7651C34.9418 17.7651 35.2091 17.7422 35.4699 17.6981C37.6313 17.3325 39.2966 15.511 39.4234 13.278C39.4289 13.187 39.4316 13.0952 39.4316 13.0024C39.4316 12.5045 39.3554 12.0251 39.2139 11.574ZM36.6631 13.2302C36.5492 14.2296 35.6986 15.0095 34.6689 15.0095C33.5621 15.0095 32.6619 14.1083 32.6619 13.0024C32.6619 11.8965 33.5621 10.9944 34.6689 10.9944C35.526 10.9944 36.2599 11.5355 36.5465 12.2933C36.6301 12.5137 36.676 12.7526 36.676 13.0024C36.676 13.0796 36.6714 13.1558 36.6631 13.2302Z" fill="#052C47"/>
<path d="M128.448 11.574C127.841 9.64141 126.036 8.23877 123.903 8.23877C123.776 8.23877 123.649 8.24428 123.523 8.25347C121.071 8.44728 119.141 10.4993 119.141 13.0024C119.141 15.6322 121.273 17.7651 123.903 17.7651C124.176 17.7651 124.443 17.7422 124.704 17.6981C126.866 17.3325 128.531 15.511 128.658 13.278C128.663 13.187 128.666 13.0952 128.666 13.0024C128.666 12.5045 128.59 12.0251 128.448 11.574ZM125.897 13.2302C125.784 14.2296 124.933 15.0095 123.903 15.0095C122.796 15.0095 121.896 14.1083 121.896 13.0024C121.896 11.8965 122.796 10.9944 123.903 10.9944C124.76 10.9944 125.494 11.5355 125.781 12.2933C125.864 12.5137 125.91 12.7526 125.91 13.0024C125.91 13.0796 125.906 13.1558 125.897 13.2302Z" fill="#052C47"/>
<path d="M26.8892 6.65319C27.1079 6.42814 27.4165 6.31608 27.8161 6.31608C28.0283 6.31608 28.2092 6.35099 28.3589 6.41896C28.5087 6.48785 28.64 6.5843 28.7521 6.70922L30.5681 4.87395C30.2181 4.52489 29.8093 4.24382 29.3418 4.03163C28.8733 3.81944 28.3277 3.71289 27.704 3.71289C26.8929 3.71289 26.181 3.88833 25.5693 4.23739C24.9575 4.58736 24.4891 5.05858 24.1648 5.65105C23.8397 6.24443 23.678 6.91498 23.678 7.6636V8.43152H21.6562V10.8841H23.678V17.5307H26.5613V10.885H29.1636V8.43244H26.5613V7.57083C26.5613 7.18412 26.6706 6.87824 26.8892 6.65319Z" fill="#052C47"/>
<path d="M46.2785 8.24512C45.292 8.24512 44.5149 8.53906 43.9472 9.12509C43.9445 9.12877 43.9408 9.13152 43.938 9.1352V8.4325H41.0547V17.5317H43.938V12.5513C43.938 11.9644 44.0786 11.5244 44.3596 11.2313C44.6407 10.9383 45.0247 10.7914 45.5115 10.7914C45.7485 10.7914 45.9607 10.829 46.1481 10.9034C46.3354 10.9787 46.4852 11.0779 46.5972 11.2029L48.3012 9.0314C48.0513 8.76961 47.761 8.57304 47.4304 8.44169C47.0997 8.31033 46.7157 8.24512 46.2785 8.24512Z" fill="#052C47"/>
<path d="M54.4623 13.6564C54.4623 14.1313 54.341 14.5052 54.0976 14.7798C53.8542 15.0545 53.5199 15.1914 53.0955 15.1914C52.808 15.1914 52.559 15.1289 52.3469 15.004C52.1347 14.879 51.9721 14.7018 51.86 14.4703C51.748 14.2397 51.6919 13.9678 51.6919 13.6555V8.43262H48.8086V13.6941C48.8086 14.4804 48.9896 15.1767 49.3515 15.782C49.7134 16.3873 50.2222 16.865 50.8772 17.214C51.5321 17.5631 52.2725 17.7385 53.0955 17.7385C53.9185 17.7385 54.6873 17.5667 55.3239 17.2232C55.9605 16.8797 56.4565 16.4057 56.8129 15.8004C57.1683 15.195 57.3465 14.4933 57.3465 13.6941V8.43262H54.4632V13.6564H54.4623Z" fill="#052C47"/>
<path d="M71.8908 8.68505C71.3415 8.39203 70.7233 8.24506 70.0372 8.24506C69.351 8.24506 68.6823 8.39478 68.1082 8.69423C67.7215 8.8954 67.3908 9.1581 67.1116 9.47776C66.8498 9.15167 66.5366 8.88346 66.1701 8.67494C65.6649 8.38835 65.1 8.24414 64.4753 8.24414C63.7892 8.24414 63.1802 8.38468 62.6502 8.66576C62.4132 8.7916 62.1982 8.94133 62.0044 9.11401V8.43153H59.1211V17.5308H62.0044V12.2132C62.0044 11.9138 62.0696 11.6575 62.201 11.4453C62.3324 11.2331 62.5096 11.0678 62.7347 10.9493C62.9597 10.8308 63.2151 10.7711 63.5026 10.7711C63.9141 10.7711 64.2604 10.8988 64.5415 11.155C64.8226 11.4113 64.9631 11.7631 64.9631 12.2132V17.5308H67.8464V12.2132C67.8464 11.9138 67.9089 11.6575 68.0338 11.4453C68.1587 11.2331 68.336 11.0678 68.5675 10.9493C68.798 10.8308 69.0507 10.7711 69.3262 10.7711C69.7258 10.7711 70.0657 10.8988 70.3467 11.155C70.6278 11.4113 70.7683 11.7631 70.7683 12.2132V17.5308H73.6517V11.8761C73.6517 11.1146 73.4955 10.4661 73.1832 9.92877C72.8709 9.39234 72.4401 8.97715 71.8908 8.68321V8.68505Z" fill="#052C47"/>
<path d="M81.8405 8.44169C81.5098 8.31033 81.1259 8.24512 80.6887 8.24512C79.7021 8.24512 78.925 8.53906 78.3574 9.12509C78.3546 9.12877 78.3509 9.13152 78.3482 9.1352V8.4325H75.4648V17.5317H78.3482V12.5513C78.3482 11.9644 78.4887 11.5244 78.7698 11.2313C79.0509 10.9383 79.4348 10.7914 79.9217 10.7914C80.1586 10.7914 80.3708 10.829 80.5582 10.9034C80.7456 10.9787 80.8953 11.0779 81.0074 11.2029L82.7113 9.0314C82.4615 8.76961 82.1712 8.57304 81.8405 8.44169Z" fill="#052C47"/>
<path d="M89.5093 9.1848C89.2641 8.95149 88.9802 8.75675 88.6569 8.6006C88.1637 8.36361 87.6116 8.24512 86.9998 8.24512C86.163 8.24512 85.4181 8.44812 84.7622 8.8532C84.1073 9.2592 83.5893 9.82044 83.2081 10.5378C82.8269 11.2561 82.6367 12.07 82.6367 12.9812C82.6367 13.8924 82.8269 14.7007 83.2081 15.4062C83.5883 16.1116 84.1101 16.6729 84.7714 17.0917C85.4328 17.5097 86.1759 17.7191 86.9998 17.7191C87.6235 17.7191 88.182 17.6006 88.6753 17.3636C88.9922 17.2112 89.2696 17.0219 89.5084 16.795V17.5326H92.3357V8.4325H89.5084V9.1848H89.5093ZM87.5997 15.1168C87.2129 15.1168 86.8667 15.0268 86.5608 14.8449C86.2549 14.664 86.0115 14.4114 85.8305 14.0862C85.6496 13.762 85.5586 13.3936 85.5586 12.9812C85.5586 12.5688 85.6487 12.2013 85.8305 11.8762C86.0115 11.5519 86.2549 11.2993 86.5608 11.1184C86.8667 10.9374 87.2129 10.8465 87.5997 10.8465C87.9864 10.8465 88.3547 10.9374 88.667 11.1184C88.9784 11.2993 89.2163 11.5492 89.3789 11.867C89.5406 12.1848 89.6223 12.5504 89.6223 12.9619C89.6223 13.5985 89.4377 14.1165 89.0703 14.5161C88.7019 14.9157 88.2123 15.115 87.6006 15.115L87.5997 15.1168Z" fill="#052C47"/>
<path d="M101.549 8.68515C101.012 8.39213 100.388 8.24516 99.6766 8.24516C98.9657 8.24516 98.3787 8.39213 97.8414 8.68515C97.6145 8.80915 97.4096 8.95612 97.2232 9.12422V3.93896H94.3398V17.5318H97.2232V12.3456C97.2232 12.0333 97.2921 11.7586 97.4289 11.5217C97.5658 11.2847 97.7532 11.1 97.9911 10.9696C98.2281 10.8382 98.4963 10.773 98.7967 10.773C99.2458 10.773 99.6206 10.92 99.9201 11.213C100.22 11.506 100.369 11.8845 100.369 12.3456V17.5318H103.253V11.709C103.253 11.0229 103.103 10.4203 102.803 9.90224C102.504 9.38417 102.085 8.97909 101.549 8.68515Z" fill="#052C47"/>
<path d="M106.864 14.2734C106.364 14.2734 105.956 14.4388 105.638 14.7695C105.32 15.1001 105.16 15.5089 105.16 15.9957C105.16 16.4826 105.319 16.8941 105.638 17.2312C105.957 17.5683 106.365 17.7364 106.864 17.7364C107.363 17.7364 107.773 17.5683 108.09 17.2312C108.408 16.8941 108.568 16.4826 108.568 15.9957C108.568 15.5089 108.409 15.1001 108.09 14.7695C107.772 14.4388 107.363 14.2734 106.864 14.2734Z" fill="#052C47"/>
<path d="M115.883 14.9293C115.59 15.0542 115.255 15.1167 114.88 15.1167C114.506 15.1167 114.137 15.0266 113.813 14.8448C113.488 14.6638 113.235 14.4112 113.055 14.086C112.874 13.7618 112.783 13.387 112.783 12.9626C112.783 12.5383 112.873 12.1855 113.055 11.8677C113.236 11.5499 113.486 11.3001 113.804 11.1191C114.122 10.9381 114.481 10.8472 114.88 10.8472C115.242 10.8472 115.564 10.9032 115.845 11.0153C116.126 11.1274 116.372 11.3028 116.584 11.5398L118.438 9.66778C117.976 9.1938 117.449 8.83465 116.856 8.59123C116.263 8.34781 115.604 8.22656 114.881 8.22656C113.932 8.22656 113.077 8.43232 112.316 8.84475C111.554 9.25626 110.955 9.82118 110.518 10.5395C110.081 11.2578 109.863 12.0716 109.863 12.9829C109.863 13.8941 110.078 14.6932 110.509 15.417C110.94 16.1408 111.536 16.7085 112.297 17.1209C113.059 17.5325 113.914 17.7391 114.862 17.7391C115.611 17.7391 116.282 17.6115 116.875 17.3552C117.467 17.0998 118.007 16.7214 118.494 16.2226L116.64 14.3873C116.428 14.6243 116.176 14.8053 115.883 14.9302V14.9293Z" fill="#052C47"/>
<path d="M144.347 9.92963C144.035 9.3932 143.604 8.97801 143.055 8.68407C142.506 8.39105 141.887 8.24408 141.201 8.24408C140.515 8.24408 139.846 8.39381 139.272 8.69326C138.886 8.89442 138.555 9.15713 138.276 9.47679C138.014 9.1507 137.701 8.88248 137.334 8.67397C136.829 8.38738 136.264 8.24316 135.639 8.24316C134.953 8.24316 134.344 8.3837 133.814 8.66478C133.577 8.79062 133.362 8.94035 133.168 9.11304V8.43055H130.285V17.5298H133.168V12.2122C133.168 11.9128 133.234 11.6565 133.365 11.4443C133.496 11.2321 133.674 11.0668 133.899 10.9483C134.124 10.8298 134.379 10.7701 134.667 10.7701C135.078 10.7701 135.424 10.8978 135.706 11.1541C135.987 11.4103 136.127 11.7622 136.127 12.2122V17.5298H139.01V12.2122C139.01 11.9128 139.073 11.6565 139.198 11.4443C139.323 11.2321 139.5 11.0668 139.732 10.9483C139.962 10.8298 140.215 10.7701 140.49 10.7701C140.89 10.7701 141.23 10.8978 141.511 11.1541C141.792 11.4103 141.932 11.7622 141.932 12.2122V17.5298H144.816V11.8751C144.816 11.1137 144.66 10.4652 144.347 9.9278V9.92963Z" fill="#052C47"/>
<path d="M10.4606 18.1723C10.4606 20.9151 8.23676 23.1389 5.49396 23.1389C2.75116 23.1389 0.527344 20.9151 0.527344 18.1723H3.03408C3.03408 19.5308 4.13542 20.6322 5.49396 20.6322C6.45569 20.6322 7.28882 20.0801 7.69298 19.2764C8.5059 19.0899 9.24166 18.7041 9.84791 18.1723C10.0564 17.9895 10.2493 17.7892 10.4248 17.5752C10.4486 17.7708 10.4606 17.9702 10.4606 18.1723Z" fill="#1CB78D"/>
<path d="M5.49396 10.7455C4.13542 10.7455 3.03408 11.8469 3.03408 13.2054C3.03408 13.4158 3.06071 13.6188 3.11032 13.8135C3.38129 14.8781 4.34577 15.6644 5.49396 15.6644C6.64215 15.6644 7.60755 14.8772 7.87853 13.8135C7.92813 13.6188 7.95477 13.4148 7.95477 13.2054H10.4615C10.4615 14.1102 10.2199 14.958 9.79646 15.6883C9.35648 16.4497 8.719 17.0836 7.95477 17.5199C7.92996 17.5346 7.90424 17.5483 7.87853 17.5621C7.17124 17.9507 6.35832 18.1711 5.49396 18.1711C4.6296 18.1711 3.8176 17.9507 3.11032 17.5621C2.8421 17.4152 2.5895 17.2452 2.35526 17.0532C1.89048 16.6739 1.49458 16.2109 1.19238 15.6883C0.769842 14.958 0.527344 14.1093 0.527344 13.2054C0.527344 12.3015 0.76433 11.4703 1.1786 10.7455C2.03377 9.24826 3.64583 8.23877 5.49396 8.23877H10.4606V10.7455H5.49396Z" fill="#1CB78D"/>
</svg>
