<svg width="100%" height="100%" viewBox="0 0 17 16" fill="none" xmlns="http://www.w3.org/2000/svg">
<path d="M7.75003 0.985901H5.75003C5.67605 0.985901 5.60299 1.00232 5.53613 1.03396C5.46926 1.06561 5.41025 1.1117 5.36335 1.16891C5.31645 1.22613 5.28283 1.29303 5.26491 1.36481C5.24699 1.43659 5.24522 1.51144 5.25974 1.58398L6.14014 5.9859H4.45505L3.60107 5.14392C3.50751 5.0517 3.38141 5 3.25003 5H1.75003C1.66832 4.99999 1.58786 5.02001 1.51568 5.05831C1.4435 5.0966 1.3818 5.15201 1.33599 5.21967C1.29019 5.28733 1.26166 5.36518 1.25291 5.44642C1.24415 5.52766 1.25545 5.60981 1.2858 5.68567L2.21152 8L1.2858 10.3143C1.25545 10.3902 1.24416 10.4723 1.25291 10.5536C1.26166 10.6348 1.29019 10.7127 1.336 10.7803C1.38181 10.848 1.4435 10.9034 1.51568 10.9417C1.58786 10.98 1.66832 11 1.75003 11H3.25003C3.38263 11 3.5098 10.9473 3.60358 10.8536L4.45716 10H6.14014L5.25974 14.4019C5.24522 14.4745 5.24699 14.5493 5.26491 14.6211C5.28283 14.6929 5.31645 14.7598 5.36335 14.817C5.41025 14.8742 5.46926 14.9203 5.53613 14.9519C5.60299 14.9836 5.67605 15 5.75003 15H7.75003C7.84288 15 7.9339 14.9741 8.01289 14.9253C8.09187 14.8765 8.15571 14.8067 8.19724 14.7236L10.5594 9.99927L13.2512 9.99298C13.7816 9.99283 14.2903 9.78197 14.6652 9.40679C15.0402 9.0316 15.2508 8.52283 15.2506 7.9924C15.2505 7.46197 15.0396 6.95332 14.6644 6.57836C14.2892 6.20339 13.7805 5.99283 13.25 5.99298L10.5594 5.98663L8.19724 1.26227C8.15571 1.17922 8.09187 1.10938 8.01289 1.06056C7.9339 1.01175 7.84288 0.985898 7.75003 0.985901Z" fill="currentColor"/>
</svg>
