<svg width="100%" height="100%" viewBox="0 0 351 8" fill="none" xmlns="http://www.w3.org/2000/svg">
<path d="M0.333333 4C0.333333 5.47276 1.52724 6.66667 3 6.66667C4.47276 6.66667 5.66667 5.47276 5.66667 4C5.66667 2.52724 4.47276 1.33333 3 1.33333C1.52724 1.33333 0.333333 2.52724 0.333333 4ZM350.354 4.35355C350.549 4.15829 350.549 3.84171 350.354 3.64645L347.172 0.464466C346.976 0.269204 346.66 0.269204 346.464 0.464466C346.269 0.659728 346.269 0.976311 346.464 1.17157L349.293 4L346.464 6.82843C346.269 7.02369 346.269 7.34027 346.464 7.53553C346.66 7.7308 346.976 7.7308 347.172 7.53553L350.354 4.35355ZM3 4.5H3.99713V3.5H3V4.5ZM5.99138 4.5H7.98563V3.5H5.99138V4.5ZM9.97989 4.5H11.9741V3.5H9.97989V4.5ZM13.9684 4.5H15.9626V3.5H13.9684V4.5ZM17.9569 4.5H19.9512V3.5H17.9569V4.5ZM21.9454 4.5H23.9397V3.5H21.9454V4.5ZM25.9339 4.5H27.9282V3.5H25.9339V4.5ZM29.9224 4.5H31.9167V3.5H29.9224V4.5ZM33.9109 4.5H35.9052V3.5H33.9109V4.5ZM37.8994 4.5H39.8937V3.5H37.8994V4.5ZM41.8879 4.5H43.8822V3.5H41.8879V4.5ZM45.8764 4.5H47.8707V3.5H45.8764V4.5ZM49.8649 4.5H51.8592V3.5H49.8649V4.5ZM53.8534 4.5H55.8477V3.5H53.8534V4.5ZM57.8419 4.5H59.8362V3.5H57.8419V4.5ZM61.8304 4.5H63.8247V3.5H61.8304V4.5ZM65.8189 4.5H67.8132V3.5H65.8189V4.5ZM69.8074 4.5H71.8017V3.5H69.8074V4.5ZM73.796 4.5H75.7902V3.5H73.796V4.5ZM77.7845 4.5H79.7787V3.5H77.7845V4.5ZM81.773 4.5H83.7672V3.5H81.773V4.5ZM85.7615 4.5H87.7557V3.5H85.7615V4.5ZM89.75 4.5H91.7443V3.5H89.75V4.5ZM93.7385 4.5H95.7328V3.5H93.7385V4.5ZM97.727 4.5H99.7213V3.5H97.727V4.5ZM101.716 4.5H103.71V3.5H101.716V4.5ZM105.704 4.5H107.698V3.5H105.704V4.5ZM109.693 4.5H111.687V3.5H109.693V4.5ZM113.681 4.5H115.675V3.5H113.681V4.5ZM117.67 4.5H119.664V3.5H117.67V4.5ZM121.658 4.5H123.652V3.5H121.658V4.5ZM125.647 4.5H127.641V3.5H125.647V4.5ZM129.635 4.5H131.629V3.5H129.635V4.5ZM133.624 4.5H135.618V3.5H133.624V4.5ZM137.612 4.5H139.606V3.5H137.612V4.5ZM141.601 4.5H143.595V3.5H141.601V4.5ZM145.589 4.5H147.583V3.5H145.589V4.5ZM149.578 4.5H151.572V3.5H149.578V4.5ZM153.566 4.5H155.56V3.5H153.566V4.5ZM157.555 4.5H159.549V3.5H157.555V4.5ZM161.543 4.5H163.537V3.5H161.543V4.5ZM165.532 4.5H167.526V3.5H165.532V4.5ZM169.52 4.5H171.514V3.5H169.52V4.5ZM173.509 4.5H175.503V3.5H173.509V4.5ZM177.497 4.5H179.491V3.5H177.497V4.5ZM181.486 4.5H183.48V3.5H181.486V4.5ZM185.474 4.5H187.468V3.5H185.474V4.5ZM189.463 4.5H191.457V3.5H189.463V4.5ZM193.451 4.5H195.445V3.5H193.451V4.5ZM197.439 4.5H199.434V3.5H197.439V4.5ZM201.428 4.5H203.422V3.5H201.428V4.5ZM205.416 4.5H207.411V3.5H205.416V4.5ZM209.405 4.5H211.399V3.5H209.405V4.5ZM213.393 4.5H215.388V3.5H213.393V4.5ZM217.382 4.5H219.376V3.5H217.382V4.5ZM221.37 4.5H223.365V3.5H221.37V4.5ZM225.359 4.5H227.353V3.5H225.359V4.5ZM229.347 4.5H231.342V3.5H229.347V4.5ZM233.336 4.5H235.33V3.5H233.336V4.5ZM237.324 4.5H239.319V3.5H237.324V4.5ZM241.313 4.5H243.307V3.5H241.313V4.5ZM245.301 4.5H247.296V3.5H245.301V4.5ZM249.29 4.5H251.284V3.5H249.29V4.5ZM253.278 4.5H255.273V3.5H253.278V4.5ZM257.267 4.5H259.261V3.5H257.267V4.5ZM261.255 4.5H263.25V3.5H261.255V4.5ZM265.244 4.5H267.238V3.5H265.244V4.5ZM269.233 4.5H271.227V3.5H269.233V4.5ZM273.221 4.5H275.215V3.5H273.221V4.5ZM277.21 4.5H279.204V3.5H277.21V4.5ZM281.198 4.5H283.192V3.5H281.198V4.5ZM285.187 4.5H287.181V3.5H285.187V4.5ZM289.175 4.5H291.169V3.5H289.175V4.5ZM293.164 4.5H295.158V3.5H293.164V4.5ZM297.152 4.5H299.146V3.5H297.152V4.5ZM301.141 4.5H303.135V3.5H301.141V4.5ZM305.129 4.5H307.124V3.5H305.129V4.5ZM309.118 4.5H311.112V3.5H309.118V4.5ZM313.106 4.5H315.101V3.5H313.106V4.5ZM317.095 4.5H319.089V3.5H317.095V4.5ZM321.083 4.5H323.078V3.5H321.083V4.5ZM325.072 4.5H327.066V3.5H325.072V4.5ZM329.06 4.5H331.055V3.5H329.06V4.5ZM333.049 4.5H335.043V3.5H333.049V4.5ZM337.037 4.5H339.032V3.5H337.037V4.5ZM341.026 4.5H343.02V3.5H341.026V4.5ZM345.014 4.5H347.009V3.5H345.014V4.5ZM349.003 4.5H350V3.5H349.003V4.5Z" fill="#052C47"/>
</svg>
