
<svg width="100%" height="100%" viewBox="0 0 165 8" fill="none" xmlns="http://www.w3.org/2000/svg">
<path d="M0.333333 4C0.333333 5.47276 1.52724 6.66667 3 6.66667C4.47276 6.66667 5.66667 5.47276 5.66667 4C5.66667 2.52724 4.47276 1.33333 3 1.33333C1.52724 1.33333 0.333333 2.52724 0.333333 4ZM164.354 4.35355C164.549 4.15829 164.549 3.84171 164.354 3.64645L161.172 0.464466C160.976 0.269204 160.66 0.269204 160.464 0.464466C160.269 0.659728 160.269 0.976311 160.464 1.17157L163.293 4L160.464 6.82843C160.269 7.02369 160.269 7.34027 160.464 7.53553C160.66 7.7308 160.976 7.7308 161.172 7.53553L164.354 4.35355ZM3 4.5H4.00625V3.5H3V4.5ZM6.01875 4.5H8.03125V3.5H6.01875V4.5ZM10.0437 4.5H12.0562V3.5H10.0437V4.5ZM14.0687 4.5H16.0812V3.5H14.0687V4.5ZM18.0937 4.5H20.1062V3.5H18.0937V4.5ZM22.1187 4.5H24.1313V3.5H22.1187V4.5ZM26.1438 4.5H28.1563V3.5H26.1438V4.5ZM30.1688 4.5H32.1813V3.5H30.1688V4.5ZM34.1938 4.5H36.2063V3.5H34.1938V4.5ZM38.2188 4.5H40.2313V3.5H38.2188V4.5ZM42.2438 4.5H44.2563V3.5H42.2438V4.5ZM46.2688 4.5H48.2813V3.5H46.2688V4.5ZM50.2938 4.5H52.3063V3.5H50.2938V4.5ZM54.3188 4.5H56.3313V3.5H54.3188V4.5ZM58.3438 4.5H60.3563V3.5H58.3438V4.5ZM62.3688 4.5H64.3813V3.5H62.3688V4.5ZM66.3938 4.5H68.4063V3.5H66.3938V4.5ZM70.4188 4.5H72.4313V3.5H70.4188V4.5ZM74.4438 4.5H76.4563V3.5H74.4438V4.5ZM78.4688 4.5H80.4812V3.5H78.4688V4.5ZM82.4937 4.5H84.5062V3.5H82.4937V4.5ZM86.5187 4.5H88.5312V3.5H86.5187V4.5ZM90.5437 4.5H92.5562V3.5H90.5437V4.5ZM94.5687 4.5H96.5812V3.5H94.5687V4.5ZM98.5937 4.5H100.606V3.5H98.5937V4.5ZM102.619 4.5H104.631V3.5H102.619V4.5ZM106.644 4.5H108.656V3.5H106.644V4.5ZM110.669 4.5H112.681V3.5H110.669V4.5ZM114.694 4.5H116.706V3.5H114.694V4.5ZM118.719 4.5H120.731V3.5H118.719V4.5ZM122.744 4.5H124.756V3.5H122.744V4.5ZM126.769 4.5H128.781V3.5H126.769V4.5ZM130.794 4.5H132.806V3.5H130.794V4.5ZM134.819 4.5H136.831V3.5H134.819V4.5ZM138.844 4.5H140.856V3.5H138.844V4.5ZM142.869 4.5H144.881V3.5H142.869V4.5ZM146.894 4.5H148.906V3.5H146.894V4.5ZM150.919 4.5H152.931V3.5H150.919V4.5ZM154.944 4.5H156.956V3.5H154.944V4.5ZM158.969 4.5H160.981V3.5H158.969V4.5ZM162.994 4.5H164V3.5H162.994V4.5Z" fill="#1B1B1B" fill-opacity="0.96"/>
</svg>
