<svg width="100%" height="100%" viewBox="0 0 61 8" fill="none" xmlns="http://www.w3.org/2000/svg">
<path d="M0.583333 4C0.583333 5.47276 1.77724 6.66667 3.25 6.66667C4.72276 6.66667 5.91667 5.47276 5.91667 4C5.91667 2.52724 4.72276 1.33333 3.25 1.33333C1.77724 1.33333 0.583333 2.52724 0.583333 4ZM60.6036 4.35355C60.7988 4.15829 60.7988 3.84171 60.6036 3.64645L57.4216 0.464466C57.2263 0.269204 56.9097 0.269204 56.7145 0.464466C56.5192 0.659728 56.5192 0.976311 56.7145 1.17157L59.5429 4L56.7145 6.82843C56.5192 7.02369 56.5192 7.34027 56.7145 7.53553C56.9097 7.7308 57.2263 7.7308 57.4216 7.53553L60.6036 4.35355ZM3.25 4.5H4.26786V3.5H3.25V4.5ZM6.30357 4.5H8.33929V3.5H6.30357V4.5ZM10.375 4.5H12.4107V3.5H10.375V4.5ZM14.4464 4.5H16.4821V3.5H14.4464V4.5ZM18.5179 4.5H20.5536V3.5H18.5179V4.5ZM22.5893 4.5H24.625V3.5H22.5893V4.5ZM26.6607 4.5H28.6964V3.5H26.6607V4.5ZM30.7321 4.5H32.7679V3.5H30.7321V4.5ZM34.8036 4.5H36.8393V3.5H34.8036V4.5ZM38.875 4.5H40.9107V3.5H38.875V4.5ZM42.9464 4.5H44.9821V3.5H42.9464V4.5ZM47.0179 4.5H49.0536V3.5H47.0179V4.5ZM51.0893 4.5H53.125V3.5H51.0893V4.5ZM55.1607 4.5H57.1964V3.5H55.1607V4.5ZM59.2321 4.5H60.25V3.5H59.2321V4.5Z" fill="currentColor"/>
</svg>
