<svg width="100%" height="100%" viewBox="0 0 20 20" fill="none" xmlns="http://www.w3.org/2000/svg">
<path d="M1.875 16.875H13.125" stroke="currentColor" stroke-width="1.5" stroke-linecap="round" stroke-linejoin="round"/>
<path d="M1.32241 10.9663L4.26737 13.7272C4.65974 14.095 5.16028 14.3265 5.69467 14.3873C6.22906 14.4481 6.76881 14.3349 7.23377 14.0646L19.0625 7.18743L17.6063 5.40763C17.2285 4.94591 16.6981 4.63449 16.1108 4.52964C15.5235 4.42479 14.9181 4.53341 14.4038 4.83589L10.9375 6.87493L6.24998 5.31243L4.961 5.86485C4.86456 5.90618 4.78008 5.97112 4.71535 6.05369C4.65061 6.13625 4.60771 6.23379 4.59058 6.3373C4.57345 6.44081 4.58266 6.54697 4.61736 6.64598C4.65205 6.745 4.71111 6.83369 4.78909 6.90387L7.18748 9.06243L4.99998 10.3124L2.81248 9.37493L1.50368 9.93585C1.40823 9.97675 1.32448 10.0408 1.26 10.1222C1.19551 10.2036 1.15232 10.2998 1.13433 10.402C1.11634 10.5043 1.12411 10.6094 1.15695 10.708C1.18979 10.8065 1.24666 10.8952 1.32241 10.9663V10.9663Z" stroke="currentColor" stroke-width="1.5" stroke-linecap="round" stroke-linejoin="round"/>
</svg>
