<svg width="100%" height="100%" viewBox="0 0 20 20" fill="none" xmlns="http://www.w3.org/2000/svg">
<path d="M7.5 16.875H18.75" stroke="currentColor" stroke-width="1.5" stroke-linecap="round" stroke-linejoin="round"/>
<path d="M1.875 8.1039V3.99219C1.875 3.89316 1.89853 3.79554 1.94366 3.70739C1.98879 3.61923 2.05422 3.54307 2.13456 3.48516C2.2149 3.42726 2.30784 3.38927 2.40574 3.37434C2.50364 3.3594 2.60369 3.36794 2.69764 3.39926L3.75 3.75005L5 6.0938L7.5 6.87505V3.99219C7.5 3.89316 7.52353 3.79554 7.56866 3.70739C7.61379 3.61923 7.67922 3.54307 7.75956 3.48516C7.8399 3.42726 7.93284 3.38927 8.03074 3.37434C8.12864 3.3594 8.22869 3.36794 8.32264 3.39926L9.375 3.75005L11.875 8.12505L15.6691 9.17897C16.1956 9.32521 16.6597 9.63992 16.9903 10.0749C17.321 10.51 17.5 11.0413 17.5 11.5878V14.375L3.70093 10.5113C3.17559 10.3642 2.71279 10.0493 2.38312 9.61466C2.05345 9.18 1.875 8.64943 1.875 8.1039V8.1039Z" stroke="currentColor" stroke-width="1.5" stroke-linecap="round" stroke-linejoin="round"/>
</svg>
