<svg width="100%" height="100%" viewBox="0 0 25 24" fill="none" xmlns="http://www.w3.org/2000/svg">
<path d="M16.04 11.2895L10.38 5.63955C10.287 5.54582 10.1764 5.47143 10.0546 5.42066C9.9327 5.36989 9.80199 5.34375 9.66998 5.34375C9.53797 5.34375 9.40726 5.36989 9.28541 5.42066C9.16355 5.47143 9.05294 5.54582 8.95998 5.63955C8.77373 5.82691 8.66919 6.08036 8.66919 6.34455C8.66919 6.60873 8.77373 6.86219 8.95998 7.04955L13.91 12.0495L8.95998 16.9995C8.77373 17.1869 8.66919 17.4404 8.66919 17.7045C8.66919 17.9687 8.77373 18.2222 8.95998 18.4095C9.0526 18.504 9.16304 18.5792 9.28492 18.6307C9.40679 18.6822 9.53767 18.709 9.66998 18.7095C9.80229 18.709 9.93317 18.6822 10.055 18.6307C10.1769 18.5792 10.2874 18.504 10.38 18.4095L16.04 12.7595C16.1415 12.6659 16.2225 12.5523 16.2779 12.4258C16.3333 12.2993 16.3619 12.1627 16.3619 12.0245C16.3619 11.8864 16.3333 11.7498 16.2779 11.6233C16.2225 11.4968 16.1415 11.3832 16.04 11.2895Z" fill="currentColor"/>
</svg>
