<svg width="100%" height="100%" viewBox="0 0 25 24" fill="none" xmlns="http://www.w3.org/2000/svg">
<path d="M8.99115 11.2895L14.6511 5.63955C14.7441 5.54582 14.8547 5.47143 14.9766 5.42066C15.0984 5.36989 15.2291 5.34375 15.3611 5.34375C15.4932 5.34375 15.6239 5.36989 15.7457 5.42066C15.8676 5.47143 15.9782 5.54582 16.0711 5.63955C16.2574 5.82691 16.3619 6.08036 16.3619 6.34455C16.3619 6.60873 16.2574 6.86219 16.0711 7.04955L11.1211 12.0495L16.0711 16.9995C16.2574 17.1869 16.3619 17.4404 16.3619 17.7045C16.3619 17.9687 16.2574 18.2222 16.0711 18.4095C15.9785 18.504 15.8681 18.5792 15.7462 18.6307C15.6243 18.6822 15.4935 18.709 15.3611 18.7095C15.2288 18.709 15.098 18.6822 14.9761 18.6307C14.8542 18.5792 14.7438 18.504 14.6511 18.4095L8.99115 12.7595C8.88964 12.6659 8.80863 12.5523 8.75323 12.4258C8.69782 12.2993 8.66921 12.1627 8.66921 12.0245C8.66921 11.8864 8.69782 11.7498 8.75323 11.6233C8.80863 11.4968 8.88964 11.3832 8.99115 11.2895Z" fill="currentColor"/>
</svg>
