<svg width="100%" height="100%" viewBox="0 0 20 20" fill="none" xmlns="http://www.w3.org/2000/svg">
<path d="M5.3125 12.5V11.875C5.31251 11.3777 5.51005 10.9008 5.86168 10.5492C6.2133 10.1976 6.6902 10.0001 7.18746 10.0001L12.8125 9.99994C13.3098 9.99994 13.7867 9.80241 14.1383 9.45079C14.4899 9.09917 14.6875 8.62228 14.6875 8.12501V7.5" stroke="curentColor" stroke-opacity="0.96" stroke-width="1.5" stroke-linecap="round" stroke-linejoin="round"/>
<path d="M5.3125 7.5V12.5" stroke="curentColor" stroke-opacity="0.96" stroke-width="1.5" stroke-linecap="round" stroke-linejoin="round"/>
<path d="M5.3125 16.875C6.52062 16.875 7.5 15.8956 7.5 14.6875C7.5 13.4794 6.52062 12.5 5.3125 12.5C4.10438 12.5 3.125 13.4794 3.125 14.6875C3.125 15.8956 4.10438 16.875 5.3125 16.875Z" stroke="#616161" stroke-width="1.5" stroke-linecap="round" stroke-linejoin="round"/>
<path d="M14.6875 7.5C15.8956 7.5 16.875 6.52062 16.875 5.3125C16.875 4.10438 15.8956 3.125 14.6875 3.125C13.4794 3.125 12.5 4.10438 12.5 5.3125C12.5 6.52062 13.4794 7.5 14.6875 7.5Z" stroke="#616161" stroke-width="1.5" stroke-linecap="round" stroke-linejoin="round"/>
<path d="M5.3125 7.5C6.52062 7.5 7.5 6.52062 7.5 5.3125C7.5 4.10438 6.52062 3.125 5.3125 3.125C4.10438 3.125 3.125 4.10438 3.125 5.3125C3.125 6.52062 4.10438 7.5 5.3125 7.5Z" stroke="#616161" stroke-width="1.5" stroke-linecap="round" stroke-linejoin="round"/>
</svg>
