<svg width="48" height="48" viewBox="0 0 48 48" fill="none" xmlns="http://www.w3.org/2000/svg">
<g id="Icon / Calendar" clip-path="url(#clip0_5228_27833)">
<path id="Vector" d="M39 6H34.5V4.5C34.5 4.10218 34.342 3.72064 34.0607 3.43934C33.7794 3.15804 33.3978 3 33 3C32.6022 3 32.2206 3.15804 31.9393 3.43934C31.658 3.72064 31.5 4.10218 31.5 4.5V6H16.5V4.5C16.5 4.10218 16.342 3.72064 16.0607 3.43934C15.7794 3.15804 15.3978 3 15 3C14.6022 3 14.2206 3.15804 13.9393 3.43934C13.658 3.72064 13.5 4.10218 13.5 4.5V6H9C8.20435 6 7.44129 6.31607 6.87868 6.87868C6.31607 7.44129 6 8.20435 6 9V39C6 39.7957 6.31607 40.5587 6.87868 41.1213C7.44129 41.6839 8.20435 42 9 42H39C39.7957 42 40.5587 41.6839 41.1213 41.1213C41.6839 40.5587 42 39.7957 42 39V9C42 8.20435 41.6839 7.44129 41.1213 6.87868C40.5587 6.31607 39.7957 6 39 6ZM21 34.5C21 34.8978 20.842 35.2794 20.5607 35.5607C20.2794 35.842 19.8978 36 19.5 36C19.1022 36 18.7206 35.842 18.4393 35.5607C18.158 35.2794 18 34.8978 18 34.5V24.9263L17.1713 25.3425C16.8152 25.5205 16.403 25.5498 16.0254 25.4239C15.6477 25.2981 15.3355 25.0273 15.1575 24.6712C14.9795 24.3152 14.9502 23.903 15.0761 23.5254C15.2019 23.1477 15.4727 22.8355 15.8287 22.6575L18.8287 21.1575C19.0575 21.043 19.3118 20.989 19.5673 21.0004C19.8229 21.0119 20.0713 21.0886 20.2888 21.2231C20.5064 21.3576 20.686 21.5456 20.8105 21.7691C20.9349 21.9926 21.0002 22.2442 21 22.5V34.5ZM31.5 33C31.8978 33 32.2794 33.158 32.5607 33.4393C32.842 33.7206 33 34.1022 33 34.5C33 34.8978 32.842 35.2794 32.5607 35.5607C32.2794 35.842 31.8978 36 31.5 36H25.5C25.2214 36 24.9484 35.9224 24.7114 35.776C24.4744 35.6295 24.2829 35.42 24.1584 35.1708C24.0338 34.9217 23.981 34.6427 24.0061 34.3653C24.0311 34.0878 24.1329 33.8229 24.3 33.6L29.6963 26.4056C29.819 26.2422 29.907 26.0555 29.955 25.8568C30.003 25.6581 30.0098 25.4518 29.9752 25.2504C29.9405 25.049 29.8651 24.8568 29.7535 24.6856C29.6419 24.5144 29.4964 24.3678 29.3261 24.2548C29.1558 24.1418 28.9643 24.0648 28.7631 24.0285C28.562 23.9923 28.3556 23.9975 28.1566 24.0439C27.9575 24.0902 27.7701 24.1768 27.6057 24.2982C27.4413 24.4196 27.3035 24.5734 27.2006 24.75C27.105 24.926 26.9752 25.0811 26.8187 25.2062C26.6622 25.3312 26.4822 25.4236 26.2894 25.4779C26.0966 25.5323 25.8949 25.5475 25.6961 25.5226C25.4974 25.4977 25.3056 25.4333 25.1322 25.3331C24.9587 25.2329 24.8071 25.099 24.6862 24.9393C24.5654 24.7795 24.4777 24.5972 24.4285 24.403C24.3792 24.2089 24.3694 24.0068 24.3995 23.8088C24.4296 23.6108 24.499 23.4208 24.6038 23.25C25.0992 22.3925 25.8638 21.7225 26.7788 21.3437C27.6938 20.9649 28.7082 20.8985 29.6648 21.1549C30.6214 21.4112 31.4667 21.9759 32.0697 22.7615C32.6727 23.5471 32.9997 24.5097 33 25.5C33.0032 26.4783 32.6843 27.4304 32.0925 28.2094L28.5 33H31.5ZM9 15V9H13.5V10.5C13.5 10.8978 13.658 11.2794 13.9393 11.5607C14.2206 11.842 14.6022 12 15 12C15.3978 12 15.7794 11.842 16.0607 11.5607C16.342 11.2794 16.5 10.8978 16.5 10.5V9H31.5V10.5C31.5 10.8978 31.658 11.2794 31.9393 11.5607C32.2206 11.842 32.6022 12 33 12C33.3978 12 33.7794 11.842 34.0607 11.5607C34.342 11.2794 34.5 10.8978 34.5 10.5V9H39V15H9Z" fill="#1CB78D"/>
</g>
<defs>
<clipPath id="clip0_5228_27833">
<rect width="48" height="48" fill="white"/>
</clipPath>
</defs>
</svg>
