<svg width="100%" height="100%" viewBox="0 0 24 24" fill="none" xmlns="http://www.w3.org/2000/svg">
<path d="M1.5 11.25H22.5" stroke="currentColor" stroke-opacity="0.96" stroke-width="1.5" stroke-linecap="round" stroke-linejoin="round"/>
<path d="M21 17.25V19.5C21 19.6989 20.921 19.8897 20.7803 20.0303C20.6397 20.171 20.4489 20.25 20.25 20.25H18C17.8011 20.25 17.6103 20.171 17.4697 20.0303C17.329 19.8897 17.25 19.6989 17.25 19.5V17.25" stroke="currentColor" stroke-opacity="0.96" stroke-width="1.5" stroke-linecap="round" stroke-linejoin="round"/>
<path d="M6.75 17.25V19.5C6.75 19.6989 6.67098 19.8897 6.53033 20.0303C6.38968 20.171 6.19891 20.25 6 20.25H3.75C3.55109 20.25 3.36032 20.171 3.21967 20.0303C3.07902 19.8897 3 19.6989 3 19.5V17.25" stroke="currentColor" stroke-opacity="0.96" stroke-width="1.5" stroke-linecap="round" stroke-linejoin="round"/>
<path d="M6 14.25H7.5" stroke="currentColor" stroke-opacity="0.96" stroke-width="1.5" stroke-linecap="round" stroke-linejoin="round"/>
<path d="M16.5 14.25H18" stroke="currentColor" stroke-opacity="0.96" stroke-width="1.5" stroke-linecap="round" stroke-linejoin="round"/>
<path d="M21 11.25L18.198 4.9454C18.139 4.81282 18.0429 4.70018 17.9213 4.62113C17.7996 4.54208 17.6577 4.5 17.5126 4.5H6.48741C6.34233 4.5 6.20037 4.54208 6.07872 4.62113C5.95708 4.70018 5.86097 4.81282 5.80205 4.9454L3 11.25V17.25H21V11.25Z" stroke="currentColor" stroke-opacity="0.96" stroke-width="1.5" stroke-linecap="round" stroke-linejoin="round"/>
</svg>
