<svg width="100%" height="100%" viewBox="0 0 20 21" fill="none" xmlns="http://www.w3.org/2000/svg">
<path d="M7.81261 9.61172C7.90765 9.55685 7.98656 9.47793 8.04142 9.38289C8.09627 9.28785 8.12514 9.18005 8.12511 9.07031V3.44531C8.12456 3.34567 8.10018 3.2476 8.05402 3.15929C8.00786 3.07098 7.94126 2.99499 7.85976 2.93765C7.77826 2.88031 7.68424 2.84329 7.58553 2.82967C7.48681 2.81606 7.38628 2.82624 7.2923 2.85938C5.46807 3.50501 3.93396 4.78019 2.96575 6.45568C1.99755 8.13117 1.65875 10.0971 2.01027 12C2.02849 12.0984 2.07008 12.191 2.13153 12.27C2.19298 12.349 2.27249 12.412 2.3634 12.4539C2.44531 12.4922 2.53468 12.512 2.62511 12.5117C2.73481 12.5118 2.84259 12.4829 2.93761 12.4281L7.81261 9.61172ZM6.87511 4.39219V8.70938L3.13449 10.868C3.12511 10.75 3.12511 10.6313 3.12511 10.5156C3.12622 9.24872 3.4769 8.00669 4.13855 6.92628C4.80019 5.84587 5.74713 4.96899 6.87511 4.39219ZM18.1251 10.5156C18.1257 12.2993 17.5394 14.0337 16.4565 15.451C15.3737 16.8684 13.8545 17.8901 12.1334 18.3584C10.4122 18.8267 8.58484 18.7156 6.9331 18.0423C5.28137 17.369 3.8971 16.1709 2.99386 14.6328C2.95176 14.5618 2.92415 14.4831 2.91263 14.4013C2.90112 14.3195 2.90592 14.2363 2.92677 14.1564C2.94762 14.0765 2.9841 14.0015 3.0341 13.9357C3.0841 13.87 3.14664 13.8149 3.21808 13.7734L9.37511 10.1898V3.01563C9.37511 2.84986 9.44096 2.69089 9.55817 2.57368C9.67538 2.45647 9.83435 2.39063 10.0001 2.39062C11.418 2.39135 12.811 2.76292 14.0409 3.46844C15.2707 4.17397 16.2947 5.18891 17.0111 6.4125C17.0196 6.425 17.0275 6.4375 17.0353 6.45078C17.0431 6.46406 17.0509 6.47969 17.0579 6.49375C17.759 7.7181 18.1269 9.10478 18.1251 10.5156Z" fill="currentColor"/>
</svg>
