<svg width="100%" height="100%" viewBox="0 0 21 20" fill="none" xmlns="http://www.w3.org/2000/svg">
<g id="Icon / Check">
<g id="CheckCircle">
<path id="Vector" d="M11.1253 2.5H10.292C6.14986 2.5 2.79199 5.85786 2.79199 10C2.79199 14.1421 6.14985 17.5 10.292 17.5H11.1253C15.2675 17.5 18.6253 14.1421 18.6253 10C18.6253 5.85786 15.2675 2.5 11.1253 2.5Z" fill="currentColor"/>
<path id="Vector_2" d="M10.8335 1.875C9.22653 1.875 7.65564 2.35152 6.31949 3.24431C4.98334 4.1371 3.94194 5.40605 3.32698 6.8907C2.71202 8.37535 2.55111 10.009 2.86462 11.5851C3.17812 13.1612 3.95196 14.6089 5.08826 15.7452C6.22456 16.8815 7.6723 17.6554 9.24839 17.9689C10.8245 18.2824 12.4582 18.1215 13.9428 17.5065C15.4275 16.8916 16.6964 15.8502 17.5892 14.514C18.482 13.1779 18.9585 11.607 18.9585 10C18.956 7.84588 18.0992 5.7807 16.576 4.25751C15.0528 2.73431 12.9876 1.87749 10.8335 1.875ZM14.7031 8.57727L10.1194 12.9523C10.0028 13.0632 9.84813 13.125 9.68726 13.125C9.52639 13.125 9.37168 13.0632 9.25513 12.9523L6.96387 10.7648C6.84417 10.6501 6.77487 10.4926 6.7712 10.3269C6.76753 10.1612 6.82979 10.0008 6.9443 9.88092C7.05882 9.76107 7.21622 9.69157 7.38193 9.68769C7.54765 9.68381 7.70813 9.74587 7.82813 9.86023L9.68726 11.6357L13.8389 7.67273C13.9589 7.55837 14.1193 7.49631 14.2851 7.50019C14.4508 7.50407 14.6082 7.57357 14.7227 7.69342C14.8372 7.81327 14.8995 7.97367 14.8958 8.13939C14.8921 8.30512 14.8228 8.46261 14.7031 8.57727Z" fill="white"/>
</g>
</g>
</svg>
