<svg width="100%" height="100%" viewBox="0 0 48 48" fill="none" xmlns="http://www.w3.org/2000/svg">
<path d="M24.7002 6H22.7002C12.7591 6 4.7002 14.0589 4.7002 24C4.7002 33.9411 12.7591 42 22.7002 42H24.7002C34.6413 42 42.7002 33.9411 42.7002 24C42.7002 14.0589 34.6413 6 24.7002 6Z" fill="white"/>
<path d="M22.3292 31.1307L22.3293 31.1307L33.3303 20.6307L33.2871 20.5854L33.3304 20.6306C33.6296 20.3439 33.8028 19.9502 33.812 19.5359C33.8212 19.1216 33.6655 18.7206 33.3793 18.421C33.093 18.1214 32.6995 17.9477 32.2852 17.938C31.8709 17.9283 31.4698 18.0834 31.1698 18.3693L31.1697 18.3693L21.249 27.8394L16.8303 23.6194L16.8302 23.6193C16.5303 23.3334 16.1291 23.1783 15.7148 23.188C15.3005 23.1977 14.907 23.3714 14.6207 23.671C14.3345 23.9706 14.1788 24.3716 14.188 24.7859C14.1972 25.2002 14.3704 25.5939 14.6697 25.8806L14.6697 25.8807L20.1688 31.1307L20.1688 31.1307C20.4602 31.4079 20.8469 31.5625 21.249 31.5625C21.6512 31.5625 22.0379 31.4079 22.3292 31.1307ZM13.2011 7.83831C16.3976 5.7025 20.1556 4.56251 24 4.5625C29.1533 4.56847 34.0938 6.61826 37.7378 10.2622C41.3818 13.9062 43.4316 18.8467 43.4375 24.0001C43.4375 27.8444 42.2975 31.6024 40.1617 34.7989C38.0259 37.9954 34.9902 40.4867 31.4384 41.9579C27.8867 43.4291 23.9784 43.814 20.2079 43.064C16.4374 42.314 12.974 40.4628 10.2556 37.7444C7.53724 35.026 5.686 31.5626 4.93599 27.7921C4.18599 24.0216 4.57092 20.1133 6.0421 16.5616C7.51328 13.0099 10.0046 9.97413 13.2011 7.83831Z" fill="#74CC50" stroke="#74CC50" stroke-width="0.125"/>
</svg>
