<svg width="100%" height="100%" viewBox="0 0 12 10" fill="none" xmlns="http://www.w3.org/2000/svg">
<path d="M1.85109 4.64147C1.71568 4.49746 1.52889 4.41273 1.33134 4.4057C1.1338 4.39868 0.941461 4.46992 0.796165 4.60395C0.650869 4.73798 0.56436 4.92395 0.55545 5.12142C0.546541 5.3189 0.615951 5.5119 0.748587 5.65847L3.45759 8.59772C3.86034 8.99222 4.46034 8.99222 4.83309 8.62022L5.10609 8.35097C6.09199 7.38138 7.07674 6.41063 8.06034 5.43872L8.09034 5.40872C9.0096 4.50277 9.92412 3.592 10.8338 2.67647C10.9698 2.53412 11.0443 2.34402 11.0414 2.14719C11.0384 1.95036 10.9582 1.76259 10.818 1.62438C10.6779 1.48617 10.489 1.40862 10.2921 1.40845C10.0953 1.40828 9.90625 1.48551 9.76584 1.62347C8.86033 2.53422 7.95032 3.44048 7.03584 4.34222L7.00584 4.37222C6.06329 5.30394 5.11954 6.23444 4.17459 7.16372L1.85109 4.64147V4.64147Z" fill="currentColor" stroke="currentColor"/>
</svg>
