<svg width="92" height="92" viewBox="0 0 92 92" fill="none" xmlns="http://www.w3.org/2000/svg">
<rect width="92" height="92" rx="46" fill="#FFF9F9"/>
<path d="M27.25 46C27.25 56.3553 35.6447 64.75 46 64.75C56.3553 64.75 64.75 56.3553 64.75 46C64.75 35.6447 56.3553 27.25 46 27.25C35.6447 27.25 27.25 35.6447 27.25 46Z" fill="white"/>
<path d="M46 64.6875C35.6792 64.6875 27.3125 56.3208 27.3125 46C27.3125 35.6792 35.6792 27.3125 46 27.3125C56.3208 27.3125 64.6875 35.6792 64.6875 46C64.6875 56.3208 56.3208 64.6875 46 64.6875Z" stroke="#1B1B1B" stroke-opacity="0.96" stroke-width="0.125"/>
<path d="M46 21.625C41.1791 21.625 36.4664 23.0546 32.458 25.7329C28.4495 28.4113 25.3253 32.2181 23.4804 36.6721C21.6356 41.126 21.1529 46.027 22.0934 50.7553C23.0339 55.4836 25.3554 59.8268 28.7643 63.2357C32.1732 66.6446 36.5164 68.9661 41.2447 69.9066C45.973 70.8472 50.874 70.3644 55.3279 68.5196C59.7819 66.6747 63.5887 63.5505 66.2671 59.542C68.9454 55.5336 70.375 50.8209 70.375 46C70.3675 39.5376 67.7971 33.3421 63.2275 28.7725C58.6579 24.2029 52.4624 21.6325 46 21.625V21.625ZM54.8257 52.1743C55.0001 52.3483 55.1385 52.555 55.2329 52.7826C55.3274 53.0101 55.3761 53.254 55.3762 53.5004C55.3764 53.7468 55.3279 53.9908 55.2337 54.2184C55.1395 54.446 55.0013 54.6529 54.8271 54.8271C54.6529 55.0013 54.4461 55.1395 54.2184 55.2337C53.9908 55.3279 53.7468 55.3763 53.5004 55.3762C53.2541 55.3761 53.0101 55.3274 52.7826 55.2329C52.555 55.1385 52.3484 55.0001 52.1743 54.8257L46 48.6514L39.8257 54.8257C39.474 55.1767 38.9973 55.3736 38.5004 55.3734C38.0035 55.3731 37.5271 55.1756 37.1757 54.8243C36.8244 54.4729 36.6269 53.9965 36.6266 53.4996C36.6264 53.0027 36.8234 52.526 37.1743 52.1743L43.3486 46L37.1743 39.8257C36.8234 39.474 36.6264 38.9973 36.6266 38.5004C36.6269 38.0035 36.8244 37.5271 37.1757 37.1757C37.5271 36.8244 38.0035 36.6269 38.5004 36.6266C38.9973 36.6263 39.474 36.8233 39.8257 37.1743L46 43.3486L52.1743 37.1743C52.526 36.8233 53.0027 36.6263 53.4996 36.6266C53.9965 36.6269 54.4729 36.8244 54.8243 37.1757C55.1756 37.5271 55.3731 38.0035 55.3734 38.5004C55.3737 38.9973 55.1767 39.474 54.8257 39.8257L48.6514 46L54.8257 52.1743Z" fill="#CA3232"/>
</svg>
