<svg width="100%" height="100%" viewBox="0 0 48 48" fill="none" xmlns="http://www.w3.org/2000/svg">
<path d="M9 24C9 32.2843 15.7157 39 24 39C32.2843 39 39 32.2843 39 24C39 15.7157 32.2843 9 24 9C15.7157 9 9 15.7157 9 24Z" fill="white"/>
<path d="M19.1047 31.1048L19.1047 31.1047L24 26.2095L28.8952 31.1047C29.0402 31.25 29.2125 31.3653 29.4021 31.4441C29.5917 31.5228 29.795 31.5634 30.0003 31.5635C30.2056 31.5636 30.4089 31.5232 30.5986 31.4447C30.7883 31.3662 30.9607 31.251 31.1059 31.1059C31.2511 30.9607 31.3662 30.7883 31.4447 30.5986C31.5232 30.4089 31.5636 30.2056 31.5635 30.0003C31.5634 29.795 31.5228 29.5917 31.4441 29.4021C31.3654 29.2125 31.25 29.0402 31.1047 28.8952L26.2095 24L31.1047 19.1047L31.1048 19.1047C31.3973 18.8116 31.5614 18.4144 31.5612 18.0003C31.561 17.5862 31.3964 17.1892 31.1036 16.8964C30.8108 16.6036 30.4138 16.439 29.9997 16.4388C29.5856 16.4386 29.1884 16.6027 28.8953 16.8952L28.8953 16.8953L24 21.7905L19.1047 16.8953L19.1047 16.8952C18.8116 16.6027 18.4144 16.4386 18.0003 16.4388C17.5862 16.439 17.1892 16.6036 16.8964 16.8964C16.6036 17.1892 16.439 17.5862 16.4388 18.0003C16.4386 18.4144 16.6027 18.8116 16.8952 19.1047L16.8953 19.1047L21.7905 24L16.8953 28.8953L16.8952 28.8953C16.6027 29.1884 16.4386 29.5856 16.4388 29.9997C16.439 30.4138 16.6036 30.8108 16.8964 31.1036C17.1892 31.3964 17.5862 31.561 18.0003 31.5612C18.4144 31.5614 18.8116 31.3973 19.1047 31.1048ZM13.2011 7.83831C16.3976 5.7025 20.1556 4.56251 24 4.5625C29.1533 4.56847 34.0938 6.61826 37.7378 10.2622C41.3818 13.9062 43.4316 18.8467 43.4375 24.0001C43.4375 27.8444 42.2975 31.6024 40.1617 34.7989C38.0259 37.9954 34.9902 40.4867 31.4384 41.9579C27.8867 43.4291 23.9784 43.814 20.2079 43.064C16.4374 42.314 12.974 40.4628 10.2556 37.7444C7.53724 35.026 5.686 31.5626 4.93599 27.7921C4.18599 24.0216 4.57092 20.1133 6.0421 16.5616C7.51328 13.0099 10.0046 9.97413 13.2011 7.83831Z" fill="#CA3232" stroke="#CA3232" stroke-width="0.125"/>
</svg>
