<svg width="100%" height="100%" viewBox="0 0 25 24" fill="none" xmlns="http://www.w3.org/2000/svg">
<g id="Icon / Circle cancel">
<path id="Vector" d="M5.07141 12C5.07141 16.1421 8.42928 19.5 12.5714 19.5C16.7135 19.5 20.0714 16.1421 20.0714 12C20.0714 7.85786 16.7135 4.5 12.5714 4.5C8.42928 4.5 5.07141 7.85786 5.07141 12Z" fill="currentColor"/>
<path id="Vector_2" d="M12.5714 2.25C10.643 2.25 8.75799 2.82183 7.15461 3.89317C5.55123 4.96451 4.30154 6.48726 3.56359 8.26884C2.82564 10.0504 2.63255 12.0108 3.00876 13.9021C3.38496 15.7934 4.31356 17.5307 5.67712 18.8943C7.04069 20.2579 8.77797 21.1865 10.6693 21.5627C12.5606 21.9389 14.521 21.7458 16.3026 21.0078C18.0842 20.2699 19.6069 19.0202 20.6782 17.4168C21.7496 15.8134 22.3214 13.9284 22.3214 12C22.3184 9.41506 21.2902 6.93684 19.4624 5.10901C17.6346 3.28118 15.1564 2.25299 12.5714 2.25ZM16.1017 14.4697C16.1714 14.5393 16.2268 14.622 16.2646 14.713C16.3024 14.804 16.3218 14.9016 16.3219 15.0002C16.322 15.0987 16.3026 15.1963 16.2649 15.2874C16.2272 15.3784 16.1719 15.4612 16.1023 15.5308C16.0326 15.6005 15.9498 15.6558 15.8588 15.6935C15.7677 15.7312 15.6701 15.7505 15.5716 15.7505C15.473 15.7504 15.3755 15.731 15.2844 15.6932C15.1934 15.6554 15.1108 15.6 15.0411 15.5303L12.5714 13.0605L10.1017 15.5303C9.961 15.6707 9.77033 15.7495 9.57158 15.7494C9.37283 15.7492 9.18225 15.6702 9.04171 15.5297C8.90117 15.3892 8.82217 15.1986 8.82206 14.9998C8.82195 14.8011 8.90075 14.6104 9.04114 14.4697L11.5109 12L9.04114 9.53027C8.90075 9.38958 8.82195 9.19892 8.82206 9.00016C8.82217 8.80141 8.90117 8.61083 9.04171 8.47029C9.18225 8.32975 9.37283 8.25075 9.57158 8.25064C9.77033 8.25054 9.961 8.32934 10.1017 8.46973L12.5714 10.9395L15.0411 8.46973C15.1818 8.32934 15.3725 8.25054 15.5712 8.25064C15.77 8.25075 15.9606 8.32975 16.1011 8.47029C16.2417 8.61083 16.3207 8.80141 16.3208 9.00016C16.3209 9.19892 16.2421 9.38958 16.1017 9.53027L13.632 12L16.1017 14.4697Z" fill="white"/>
</g>
</svg>
