<svg width="92" height="92" viewBox="0 0 92 92" fill="none" xmlns="http://www.w3.org/2000/svg">
<rect width="92" height="92" rx="46" fill="#F4FBF9"/>
<path d="M44.375 24.25H46.875C58.8872 24.25 68.625 33.9878 68.625 46C68.625 58.0122 58.8872 67.75 46.875 67.75H44.375C32.3628 67.75 22.625 58.0122 22.625 46C22.625 33.9878 32.3628 24.25 44.375 24.25Z" fill="white" stroke="#1CB78D" stroke-width="1.5"/>
<path d="M46 21.625C41.1791 21.625 36.4664 23.0546 32.458 25.7329C28.4495 28.4113 25.3253 32.2181 23.4804 36.6721C21.6356 41.126 21.1529 46.027 22.0934 50.7553C23.0339 55.4836 25.3554 59.8268 28.7643 63.2357C32.1732 66.6446 36.5164 68.9661 41.2447 69.9066C45.973 70.8472 50.874 70.3644 55.3279 68.5196C59.7819 66.6747 63.5887 63.5505 66.2671 59.542C68.9454 55.5336 70.375 50.8209 70.375 46C70.3675 39.5376 67.7971 33.3421 63.2275 28.7725C58.6579 24.2029 52.4624 21.6325 46 21.625V21.625ZM57.6089 41.7318L43.8577 54.8568C43.508 55.1895 43.0439 55.375 42.5613 55.375C42.0787 55.375 41.6145 55.1895 41.2649 54.8568L34.3911 48.2943C34.032 47.9503 33.8241 47.4778 33.8131 46.9807C33.8021 46.4835 33.9889 46.0023 34.3324 45.6428C34.676 45.2832 35.1482 45.0747 35.6453 45.0631C36.1425 45.0514 36.6239 45.2376 36.9839 45.5807L42.5613 50.9072L55.0161 39.0182C55.3761 38.6751 55.8576 38.4889 56.3547 38.5006C56.8519 38.5122 57.3241 38.7207 57.6676 39.0803C58.0111 39.4398 58.1979 39.921 58.1869 40.4182C58.1759 40.9153 57.968 41.3878 57.6089 41.7318V41.7318Z" fill="#1CB78D"/>
</svg>
