<svg width="100%" height="100%" viewBox="0 0 72 72" fill="none" xmlns="http://www.w3.org/2000/svg">
<rect width="72" height="72" rx="36" fill="#FFF9F9"/>
<path d="M21 36C21 44.2843 27.7157 51 36 51C44.2843 51 51 44.2843 51 36C51 27.7157 44.2843 21 36 21C27.7157 21 21 27.7157 21 36Z" fill="white"/>
<path d="M36 16.5C32.1433 16.5 28.3731 17.6437 25.1664 19.7863C21.9596 21.929 19.4603 24.9745 17.9844 28.5377C16.5084 32.1008 16.1223 36.0216 16.8747 39.8043C17.6271 43.5869 19.4843 47.0615 22.2114 49.7886C24.9386 52.5157 28.4131 54.3729 32.1957 55.1253C35.9784 55.8777 39.8992 55.4916 43.4623 54.0156C47.0255 52.5397 50.071 50.0404 52.2137 46.8336C54.3564 43.6269 55.5 39.8567 55.5 36C55.494 30.8301 53.4377 25.8737 49.782 22.218C46.1263 18.5624 41.1699 16.506 36 16.5ZM43.0606 40.9395C43.2001 41.0787 43.3108 41.244 43.3864 41.4261C43.4619 41.6081 43.5009 41.8032 43.501 42.0003C43.5011 42.1974 43.4623 42.3926 43.387 42.5747C43.3116 42.7568 43.2011 42.9223 43.0617 43.0617C42.9223 43.201 42.7568 43.3116 42.5747 43.387C42.3926 43.4623 42.1974 43.5011 42.0003 43.501C41.8032 43.5009 41.6081 43.4619 41.4261 43.3863C41.244 43.3108 41.0787 43.2001 40.9395 43.0605L36 38.1211L31.0606 43.0605C30.7792 43.3413 30.3978 43.4989 30.0003 43.4987C29.6028 43.4985 29.2217 43.3405 28.9406 43.0594C28.6595 42.7783 28.5015 42.3972 28.5013 41.9997C28.5011 41.6022 28.6587 41.2208 28.9395 40.9395L33.8789 36L28.9395 31.0605C28.6587 30.7792 28.5011 30.3978 28.5013 30.0003C28.5015 29.6028 28.6595 29.2217 28.9406 28.9406C29.2217 28.6595 29.6028 28.5015 30.0003 28.5013C30.3978 28.5011 30.7792 28.6587 31.0606 28.9395L36 33.8789L40.9395 28.9395C41.2208 28.6587 41.6022 28.5011 41.9997 28.5013C42.3972 28.5015 42.7783 28.6595 43.0594 28.9406C43.3405 29.2217 43.4985 29.6028 43.4987 30.0003C43.4989 30.3978 43.3413 30.7792 43.0606 31.0605L38.1211 36L43.0606 40.9395Z" fill="currentColor"/>
</svg>
