<svg width="100%" height="100%" viewBox="0 0 18 18" fill="none" xmlns="http://www.w3.org/2000/svg">
<path d="M14.0625 9C14.0631 10.1482 13.6717 11.2622 12.953 12.1577L5.84227 5.04703C6.58655 4.45132 7.48401 4.07803 8.43121 3.97018C9.37842 3.86234 10.3368 4.02432 11.196 4.43747C12.0551 4.85062 12.78 5.49812 13.2872 6.30535C13.7944 7.11257 14.0631 8.04667 14.0625 9ZM3.9375 9C3.93688 9.95333 4.20564 10.8874 4.7128 11.6947C5.21996 12.5019 5.94489 13.1494 6.80404 13.5625C7.66319 13.9757 8.62159 14.1377 9.56879 14.0298C10.516 13.922 11.4135 13.5487 12.1577 12.953L5.04703 5.84227C4.32833 6.73775 3.9369 7.85177 3.9375 9ZM16.5938 9C16.5938 10.5019 16.1484 11.9701 15.314 13.2189C14.4796 14.4676 13.2936 15.441 11.906 16.0157C10.5184 16.5905 8.99158 16.7408 7.51854 16.4478C6.04549 16.1548 4.69242 15.4316 3.63041 14.3696C2.56841 13.3076 1.84517 11.9545 1.55217 10.4815C1.25916 9.00842 1.40954 7.48157 1.98429 6.094C2.55905 4.70642 3.53236 3.52044 4.78114 2.68603C6.02993 1.85162 7.4981 1.40625 9 1.40625C11.0133 1.40848 12.9435 2.20925 14.3671 3.63287C15.7907 5.0565 16.5915 6.9867 16.5938 9ZM15.1875 9C15.1875 7.77623 14.8246 6.57994 14.1447 5.56241C13.4648 4.54488 12.4985 3.75181 11.3679 3.2835C10.2372 2.81518 8.99314 2.69264 7.79288 2.93139C6.59262 3.17014 5.49012 3.75944 4.62478 4.62478C3.75944 5.49011 3.17014 6.59262 2.93139 7.79288C2.69265 8.99314 2.81518 10.2372 3.2835 11.3679C3.75182 12.4985 4.54488 13.4648 5.56241 14.1447C6.57994 14.8246 7.77623 15.1875 9 15.1875C10.6405 15.1856 12.2132 14.5331 13.3732 13.3732C14.5331 12.2132 15.1856 10.6405 15.1875 9Z" fill="currentColor"/>
</svg>
