<svg width="100%" height="100%" viewBox="0 0 21 20" fill="none" xmlns="http://www.w3.org/2000/svg">
<path d="M2.375 17.5H18.625" stroke="currentColor" stroke-opacity="0.96" stroke-width="1.5" stroke-linecap="round" stroke-linejoin="round"/>
<path d="M4.875 17.5V3.125C4.875 2.95924 4.94085 2.80027 5.05806 2.68306C5.17527 2.56585 5.33424 2.5 5.5 2.5H15.5C15.6658 2.5 15.8247 2.56585 15.9419 2.68306C16.0592 2.80027 16.125 2.95924 16.125 3.125V17.5" stroke="currentColor" stroke-opacity="0.96" stroke-width="1.5" stroke-linecap="round" stroke-linejoin="round"/>
<path d="M12.6875 10.7812C13.119 10.7812 13.4688 10.4315 13.4688 10C13.4688 9.56853 13.119 9.21875 12.6875 9.21875C12.256 9.21875 11.9062 9.56853 11.9062 10C11.9062 10.4315 12.256 10.7812 12.6875 10.7812Z" fill="#616161"/>
</svg>
