<svg width="24" height="24" viewBox="0 0 24 24" fill="none" xmlns="http://www.w3.org/2000/svg">
<path d="M11.4699 5.78097C11.4002 5.71124 11.3449 5.62846 11.3072 5.53735C11.2694 5.44624 11.25 5.34859 11.25 5.24997C11.25 5.15135 11.2694 5.0537 11.3072 4.9626C11.3449 4.87149 11.4002 4.7887 11.4699 4.71897C11.5397 4.64924 11.6225 4.59392 11.7136 4.55619C11.8047 4.51845 11.9023 4.49902 12.0009 4.49902C12.0996 4.49902 12.1972 4.51845 12.2883 4.55619C12.3794 4.59392 12.4622 4.64924 12.5319 4.71897L19.2819 11.469C19.3518 11.5386 19.4072 11.6214 19.445 11.7125C19.4828 11.8036 19.5023 11.9013 19.5023 12C19.5023 12.0986 19.4828 12.1963 19.445 12.2874C19.4072 12.3785 19.3518 12.4613 19.2819 12.531L12.5319 19.281C12.3911 19.4218 12.2001 19.5009 12.0009 19.5009C11.8018 19.5009 11.6108 19.4218 11.4699 19.281C11.3291 19.1401 11.25 18.9491 11.25 18.75C11.25 18.5508 11.3291 18.3598 11.4699 18.219L17.6904 12L11.4699 5.78097ZM5.46995 5.78097C5.40022 5.71124 5.3449 5.62846 5.30716 5.53735C5.26942 5.44624 5.25 5.34859 5.25 5.24997C5.25 5.15135 5.26942 5.0537 5.30716 4.9626C5.3449 4.87149 5.40022 4.7887 5.46995 4.71897C5.53968 4.64924 5.62246 4.59392 5.71357 4.55619C5.80468 4.51845 5.90233 4.49902 6.00095 4.49902C6.09956 4.49902 6.19721 4.51845 6.28832 4.55619C6.37943 4.59392 6.46222 4.64924 6.53195 4.71897L13.2819 11.469C13.3518 11.5386 13.4072 11.6214 13.445 11.7125C13.4828 11.8036 13.5023 11.9013 13.5023 12C13.5023 12.0986 13.4828 12.1963 13.445 12.2874C13.4072 12.3785 13.3518 12.4613 13.2819 12.531L6.53195 19.281C6.46222 19.3507 6.37943 19.406 6.28832 19.4438C6.19721 19.4815 6.09956 19.5009 6.00095 19.5009C5.90233 19.5009 5.80468 19.4815 5.71357 19.4438C5.62246 19.406 5.53968 19.3507 5.46995 19.281C5.40022 19.2112 5.3449 19.1285 5.30716 19.0373C5.26942 18.9462 5.25 18.8486 5.25 18.75C5.25 18.6514 5.26942 18.5537 5.30716 18.4626C5.3449 18.3715 5.40022 18.2887 5.46995 18.219L11.6904 12L5.46995 5.78097Z" fill="#1B1B1B" fill-opacity="0.96"/>
</svg>
