<svg width="100%" height="100%" viewBox="0 0 25 24" fill="none" xmlns="http://www.w3.org/2000/svg">
<path d="M4.64282 3.75L19.6428 20.25" stroke="currentColor" stroke-width="1.5" stroke-linecap="round" stroke-linejoin="round"/>
<path d="M14.6654 14.7748C13.9294 15.4437 12.9579 15.7929 11.9645 15.7455C10.9711 15.6982 10.0373 15.2582 9.36827 14.5223C8.69929 13.7864 8.35002 12.815 8.39728 11.8216C8.44454 10.8282 8.88446 9.89425 9.62028 9.22521" stroke="currentColor" stroke-width="1.5" stroke-linecap="round" stroke-linejoin="round"/>
<path d="M7.0798 6.43065C3.25768 8.36617 1.64282 12 1.64282 12C1.64282 12 4.64282 18.7493 12.1428 18.7493C13.9001 18.7633 15.6354 18.3585 17.2051 17.5685" stroke="currentColor" stroke-width="1.5" stroke-linecap="round" stroke-linejoin="round"/>
<path d="M19.7 15.8531C21.7439 14.0224 22.6428 12 22.6428 12C22.6428 12 19.6428 5.24927 12.1428 5.24927C11.4932 5.24821 10.8447 5.30102 10.2039 5.40716" stroke="currentColor" stroke-width="1.5" stroke-linecap="round" stroke-linejoin="round"/>
<path d="M12.8485 8.31635C13.6455 8.4694 14.3715 8.87675 14.9174 9.47729C15.4633 10.0778 15.7998 10.8392 15.8764 11.6472" stroke="currentColor" stroke-width="1.5" stroke-linecap="round" stroke-linejoin="round"/>
</svg>
