<svg width="100%" height="100%" viewBox="0 0 20 21" fill="none" xmlns="http://www.w3.org/2000/svg">
<path d="M0 10.5C0 16.0228 4.47715 20.5 10 20.5C15.5228 20.5 20 16.0228 20 10.5C20 4.97715 15.5228 0.5 10 0.5C4.47715 0.5 0 4.97715 0 10.5Z" fill="#1877F2"/>
<path d="M15 10.5C15 7.75 12.75 5.5 10 5.5C7.25 5.5 5 7.75 5 10.5C5 13 6.8125 15.0625 9.1875 15.4375V11.9375H7.9375V10.5H9.1875V9.375C9.1875 8.125 9.9375 7.4375 11.0625 7.4375C11.625 7.4375 12.1875 7.5625 12.1875 7.5625V8.8125H11.5625C10.9375 8.8125 10.75 9.1875 10.75 9.5625V10.5H12.125L11.875 11.9375H10.6875V15.5C13.1875 15.125 15 13 15 10.5Z" fill="white"/>
</svg>
