<svg width="100%" height="100%" viewBox="0 0 20 20" fill="none" xmlns="http://www.w3.org/2000/svg">
<path d="M7.25934 12.9733C7.99738 12.2684 8.97874 11.875 9.99938 11.875C11.02 11.875 12.0014 12.2684 12.7394 12.9733" stroke="#9E9E9E" stroke-width="1.5" stroke-linecap="round" stroke-linejoin="round"/>
<path d="M4.60773 10.3217C6.04911 8.91343 7.98427 8.125 9.99942 8.125C12.0146 8.125 13.9497 8.91343 15.3911 10.3217" stroke="#9E9E9E" stroke-width="1.5" stroke-linecap="round" stroke-linejoin="round"/>
<path d="M1.95813 7.67005C4.10199 5.55855 6.99033 4.375 9.99941 4.375C13.0085 4.375 15.8968 5.55855 18.0407 7.67005" stroke="#9E9E9E" stroke-width="1.5" stroke-linecap="round" stroke-linejoin="round"/>
<path d="M10.7188 15.625C10.7188 16.022 10.397 16.3438 10 16.3438C9.60305 16.3438 9.28125 16.022 9.28125 15.625C9.28125 15.228 9.60305 14.9062 10 14.9062C10.397 14.9062 10.7188 15.228 10.7188 15.625Z" fill="#9E9E9E" stroke="#9E9E9E" stroke-width="0.125"/>
</svg>
