<svg width="100%" height="100%" viewBox="0 0 24 24" fill="none" xmlns="http://www.w3.org/2000/svg">
<path d="M19.6443 7.53773L16.4894 10.5L19.4894 18.75L17.2394 21L12.7575 14.4395L10.4894 16.5V18.75L8.23944 21L6.9089 17.0762L2.98944 15.75L5.23944 13.5H7.48944L9.73944 11.25L2.98944 6.75004L5.23944 4.50004L13.4894 7.50004L16.4623 4.35575L16.3985 4.40905C16.6073 4.19974 16.8554 4.03365 17.1284 3.92027C17.4015 3.80689 17.6943 3.74845 17.99 3.74829C18.2856 3.74813 18.5785 3.80625 18.8517 3.91933C19.1249 4.0324 19.3731 4.19822 19.5822 4.4073C19.7913 4.61638 19.9571 4.86462 20.0702 5.13783C20.1832 5.41103 20.2414 5.70385 20.2412 5.99953C20.241 6.29521 20.1826 6.58796 20.0692 6.86104C19.9558 7.13412 19.7897 7.38218 19.5804 7.59103L19.6443 7.53773Z" stroke="currentColor" stroke-opacity="0.96" stroke-width="1.5" stroke-linecap="round" stroke-linejoin="round"/>
</svg>
