<svg width="100%" height="100%" viewBox="0 0 21 21" fill="none" xmlns="http://www.w3.org/2000/svg">
<path d="M20.5 10.5C20.5 4.97715 16.0228 0.5 10.5 0.5C4.97715 0.5 0.5 4.97715 0.5 10.5C0.5 16.0228 4.97715 20.5 10.5 20.5C16.0228 20.5 20.5 16.0228 20.5 10.5Z" fill="transparent"/>
<path fill-rule="evenodd" clip-rule="evenodd" d="M18.625 10.6895C18.625 10.0986 18.572 9.53038 18.4735 8.98492H10.625V12.2084H15.1099C14.9167 13.2501 14.3296 14.1327 13.447 14.7236V16.8145H16.1402C17.716 15.3638 18.625 13.2274 18.625 10.6895Z" fill="#4285F4"/>
<path fill-rule="evenodd" clip-rule="evenodd" d="M10.6248 18.8333C12.8748 18.8333 14.7612 18.0871 16.14 16.8144L13.4468 14.7234C12.7006 15.2235 11.746 15.5189 10.6248 15.5189C8.45434 15.5189 6.61721 14.053 5.9619 12.0833H3.1778V14.2424C4.54902 16.9659 7.36721 18.8333 10.6248 18.8333Z" fill="#34A853"/>
<path fill-rule="evenodd" clip-rule="evenodd" d="M5.96216 12.0833C5.7955 11.5833 5.7008 11.0492 5.7008 10.5C5.7008 9.95071 5.7955 9.41661 5.96216 8.91661V6.75751H3.17806C2.61366 7.88251 2.29169 9.15525 2.29169 10.5C2.29169 11.8447 2.61366 13.1174 3.17806 14.2424L5.96216 12.0833Z" fill="#FBBC05"/>
<path fill-rule="evenodd" clip-rule="evenodd" d="M10.6248 5.48107C11.8483 5.48107 12.9468 5.90153 13.8104 6.72729L16.2006 4.33712C14.7574 2.99242 12.871 2.16666 10.6248 2.16666C7.36721 2.16666 4.54902 4.03409 3.1778 6.75759L5.9619 8.9167C6.61721 6.94699 8.45434 5.48107 10.6248 5.48107Z" fill="#EA4335"/>
</svg>
