<svg width="100%" height="100%" viewBox="0 0 20 21" fill="none" xmlns="http://www.w3.org/2000/svg">
<path d="M10 14.321C11.7259 14.321 13.125 12.9219 13.125 11.196C13.125 9.47016 11.7259 8.07104 10 8.07104C8.27411 8.07104 6.875 9.47016 6.875 11.196C6.875 12.9219 8.27411 14.321 10 14.321Z" stroke="currentColor" stroke-width="1.5" stroke-linecap="round" stroke-linejoin="round"/>
<path d="M15.3125 9.32105C16.0403 9.32044 16.7582 9.48957 17.4092 9.815C18.0602 10.1404 18.6263 10.6132 19.0626 11.1957" stroke="currentColor" stroke-width="1.5" stroke-linecap="round" stroke-linejoin="round"/>
<path d="M0.9375 11.1959C1.37378 10.6133 1.93992 10.1405 2.59093 9.81505C3.24194 9.48959 3.95989 9.32044 4.68772 9.32105" stroke="currentColor" stroke-width="1.5" stroke-linecap="round" stroke-linejoin="round"/>
<path d="M5.50391 17.1335C5.91447 16.2902 6.55385 15.5793 7.34907 15.082C8.14429 14.5847 9.0633 14.321 10.0012 14.321C10.9391 14.321 11.8581 14.5847 12.6534 15.082C13.4486 15.5793 14.088 16.2902 14.4985 17.1335" stroke="currentColor" stroke-width="1.5" stroke-linecap="round" stroke-linejoin="round"/>
<path d="M4.68703 9.32105C4.21269 9.32096 3.74816 9.18592 3.34769 8.93171C2.94721 8.67749 2.62733 8.31459 2.42538 7.88538C2.22344 7.45617 2.14777 6.97837 2.20721 6.50776C2.26665 6.03715 2.45875 5.59317 2.76108 5.22765C3.06341 4.86214 3.46348 4.59018 3.91459 4.44352C4.36569 4.29687 4.84921 4.28159 5.30868 4.39945C5.76815 4.51731 6.18461 4.76346 6.50942 5.10914C6.83423 5.45483 7.054 5.88579 7.14305 6.3517" stroke="currentColor" stroke-width="1.5" stroke-linecap="round" stroke-linejoin="round"/>
<path d="M12.8555 6.3518C12.9445 5.88582 13.1642 5.45478 13.489 5.10901C13.8139 4.76325 14.2304 4.51704 14.6899 4.39913C15.1494 4.28122 15.633 4.29649 16.0842 4.44314C16.5353 4.58979 16.9355 4.86178 17.2379 5.22735C17.5402 5.59291 17.7323 6.03695 17.7918 6.50762C17.8512 6.97829 17.7755 7.45616 17.5735 7.88542C17.3716 8.31468 17.0516 8.67761 16.6511 8.93183C16.2505 9.18605 15.7859 9.32106 15.3115 9.3211" stroke="currentColor" stroke-width="1.5" stroke-linecap="round" stroke-linejoin="round"/>
</svg>
