<svg width="100%" height="100%" viewBox="0 0 28 28" fill="currentColor" xmlns="http://www.w3.org/2000/svg">
<g id="Icon / Heart" clip-path="url(#clip0_4274_41)">
<path id="Vector" d="M19.25 3.5C18.2312 3.5 17.2264 3.7372 16.3152 4.19282C15.4039 4.64844 14.6113 5.30996 14 6.125C13.1736 5.02312 12.0214 4.20919 10.7067 3.7985C9.39202 3.38782 7.98143 3.40121 6.67476 3.83677C5.36808 4.27232 4.23158 5.10797 3.42622 6.22534C2.62087 7.34271 2.1875 8.68515 2.1875 10.0625C2.1875 17.9266 13.1141 24.1281 13.5734 24.3906C13.7036 24.4638 13.8507 24.5015 14 24.5C14.1494 24.5026 14.2968 24.4648 14.4266 24.3906C16.4387 23.2143 18.326 21.8364 20.0594 20.2781C23.8766 16.8437 25.8125 13.4094 25.8125 10.0625C25.8125 8.32202 25.1211 6.65282 23.8904 5.42211C22.6597 4.1914 20.9905 3.5 19.25 3.5Z" fill="currentColor"/>
</g>
<defs>
<clipPath id="clip0_4274_41">
<rect width="28" height="28" fill="currentColor"/>
</clipPath>
</defs>
</svg>
