<svg width="100%" height="100%" viewBox="0 0 24 24" fill="none" xmlns="http://www.w3.org/2000/svg">
<path d="M12.0001 21C16.9707 21 21.0001 16.9706 21.0001 12C21.0001 7.02944 16.9707 3 12.0001 3C7.02956 3 3.00012 7.02944 3.00012 12C3.00012 16.9706 7.02956 21 12.0001 21Z" stroke="currentColor" stroke-opacity="0.96" stroke-width="1.5" stroke-linecap="round" stroke-linejoin="round"/>
<path d="M12 17.8125C12.5178 17.8125 12.9375 17.3928 12.9375 16.875C12.9375 16.3572 12.5178 15.9375 12 15.9375C11.4822 15.9375 11.0625 16.3572 11.0625 16.875C11.0625 17.3928 11.4822 17.8125 12 17.8125Z" fill="currentColor" fill-opacity="0.96"/>
<path d="M12 13.5V12.75C12.5192 12.75 13.0267 12.596 13.4584 12.3076C13.8901 12.0192 14.2265 11.6092 14.4252 11.1295C14.6239 10.6499 14.6758 10.1221 14.5746 9.61289C14.4733 9.10369 14.2233 8.63596 13.8562 8.26885C13.489 7.90173 13.0213 7.65173 12.5121 7.55044C12.0029 7.44915 11.4751 7.50114 10.9955 7.69982C10.5158 7.8985 10.1058 8.23495 9.81739 8.66663C9.52895 9.09831 9.375 9.60583 9.375 10.125" stroke="currentColor" stroke-opacity="0.96" stroke-width="1.5" stroke-linecap="round" stroke-linejoin="round"/>
</svg>
