<svg width="100%" height="100%" viewBox="0 0 20 20" fill="none" xmlns="http://www.w3.org/2000/svg">
<path d="M4.375 16.875V4.375C4.375 4.04348 4.5067 3.72554 4.74112 3.49112C4.97554 3.2567 5.29348 3.125 5.625 3.125H11.875C12.2065 3.125 12.5245 3.2567 12.7589 3.49112C12.9933 3.72554 13.125 4.04348 13.125 4.375V16.875" stroke="currentColor" stroke-opacity="0.96" stroke-width="1.5" stroke-linecap="round" stroke-linejoin="round"/>
<path d="M2.5 16.875H15" stroke="currentColor" stroke-opacity="0.96" stroke-width="1.5" stroke-linecap="round" stroke-linejoin="round"/>
<path d="M13.125 8.75H15C15.3315 8.75 15.6495 8.8817 15.8839 9.11612C16.1183 9.35054 16.25 9.66848 16.25 10V13.125C16.25 13.4565 16.3817 13.7745 16.6161 14.0089C16.8505 14.2433 17.1685 14.375 17.5 14.375C17.8315 14.375 18.1495 14.2433 18.3839 14.0089C18.6183 13.7745 18.75 13.4565 18.75 13.125V6.76777C18.75 6.43625 18.6183 6.1183 18.3839 5.88388L16.875 4.375" stroke="currentColor" stroke-opacity="0.96" stroke-width="1.5" stroke-linecap="round" stroke-linejoin="round"/>
<path d="M10.625 8.75H6.875" stroke="currentColor" stroke-opacity="0.96" stroke-width="1.5" stroke-linecap="round" stroke-linejoin="round"/>
</svg>
