<svg width="100%" height="100%" viewBox="0 0 48 48" fill="none" xmlns="http://www.w3.org/2000/svg">
<rect width="100%" height="100%" rx="24" fill="#475BCA"/>
<path d="M24 33.5C28.9706 33.5 33 29.4706 33 24.5C33 19.5294 28.9706 15.5 24 15.5C19.0294 15.5 15 19.5294 15 24.5C15 29.4706 19.0294 33.5 24 33.5Z" stroke="white" stroke-width="1.5" stroke-linecap="round" stroke-linejoin="round"/>
<path d="M23.25 23.75H24V29H24.75" stroke="white" stroke-width="1.5" stroke-linecap="round" stroke-linejoin="round"/>
<path d="M24.1875 20.375C24.1875 20.5821 24.0196 20.75 23.8125 20.75C23.6054 20.75 23.4375 20.5821 23.4375 20.375C23.4375 20.1679 23.6054 20 23.8125 20C24.0196 20 24.1875 20.1679 24.1875 20.375Z" fill="white" stroke="white" stroke-width="1.5"/>
</svg>
