<svg width="100%" height="100%" viewBox="0 0 20 20" fill="none" xmlns="http://www.w3.org/2000/svg">
<g id="Icon / Link" clip-path="url(#clip0_4279_118592)">
<path id="Vector" d="M7.5 12.5L12.5 7.5" stroke="currentColor" stroke-opacity="0.96" stroke-width="1.5" stroke-linecap="round" stroke-linejoin="round"/>
<path id="Vector_2" d="M8.75 5.94598L11.0984 3.60223C11.8036 2.90843 12.7544 2.52139 13.7437 2.52542C14.7329 2.52945 15.6805 2.92422 16.3801 3.62374C17.0796 4.32326 17.4743 5.27086 17.4784 6.26012C17.4824 7.24938 17.0954 8.20016 16.4016 8.90536L14.0531 11.2499" stroke="currentColor" stroke-opacity="0.96" stroke-width="1.5" stroke-linecap="round" stroke-linejoin="round"/>
<path id="Vector_3" d="M5.94598 8.75L3.60223 11.0984C2.90843 11.8036 2.52139 12.7544 2.52542 13.7437C2.52945 14.7329 2.92422 15.6805 3.62374 16.3801C4.32326 17.0796 5.27086 17.4743 6.26012 17.4784C7.24938 17.4824 8.20016 17.0954 8.90536 16.4016L11.2499 14.0531" stroke="currentColor" stroke-opacity="0.96" stroke-width="1.5" stroke-linecap="round" stroke-linejoin="round"/>
</g>
<defs>
<clipPath id="clip0_4279_118592">
<rect width="20" height="20" fill="white"/>
</clipPath>
</defs>
</svg>
