<svg width="92" height="92" viewBox="0 0 92 92" fill="none" xmlns="http://www.w3.org/2000/svg">
<rect width="92" height="92" rx="46" fill="#F4FBF9"/>
<path d="M46 22C41.2533 22 36.6131 23.4076 32.6663 26.0447C28.7195 28.6819 25.6434 32.4302 23.8269 36.8156C22.0104 41.201 21.5351 46.0266 22.4612 50.6822C23.3872 55.3377 25.673 59.6141 29.0294 62.9706C32.3859 66.327 36.6623 68.6128 41.3178 69.5388C45.9734 70.4649 50.799 69.9896 55.1844 68.1731C59.5698 66.3566 63.3181 63.2805 65.9553 59.3337C68.5924 55.3869 70 50.7467 70 46C69.9926 39.6371 67.4617 33.5368 62.9624 29.0376C58.4632 24.5383 52.3629 22.0074 46 22Z" fill="#1CB78D"/>
<path d="M53.5 42.75H50.5V40.5C50.5 39.3065 50.0259 38.1619 49.182 37.318C48.3381 36.4741 47.1935 36 46 36C44.8065 36 43.6619 36.4741 42.818 37.318C41.9741 38.1619 41.5 39.3065 41.5 40.5V42.75H38.5C38.1022 42.75 37.7206 42.908 37.4393 43.1893C37.158 43.4706 37 43.8522 37 44.25V54.75C37 55.1478 37.158 55.5294 37.4393 55.8107C37.7206 56.092 38.1022 56.25 38.5 56.25H53.5C53.8978 56.25 54.2794 56.092 54.5607 55.8107C54.842 55.5294 55 55.1478 55 54.75V44.25C55 43.8522 54.842 43.4706 54.5607 43.1893C54.2794 42.908 53.8978 42.75 53.5 42.75ZM46 50.625C45.7775 50.625 45.56 50.559 45.375 50.4354C45.19 50.3118 45.0458 50.1361 44.9606 49.9305C44.8755 49.725 44.8532 49.4988 44.8966 49.2805C44.94 49.0623 45.0472 48.8618 45.2045 48.7045C45.3618 48.5472 45.5623 48.44 45.7805 48.3966C45.9988 48.3532 46.225 48.3755 46.4305 48.4606C46.6361 48.5458 46.8118 48.69 46.9354 48.875C47.059 49.06 47.125 49.2775 47.125 49.5C47.125 49.7984 47.0065 50.0845 46.7955 50.2955C46.5845 50.5065 46.2984 50.625 46 50.625ZM49 42.75H43V40.5C43 39.7044 43.3161 38.9413 43.8787 38.3787C44.4413 37.8161 45.2044 37.5 46 37.5C46.7956 37.5 47.5587 37.8161 48.1213 38.3787C48.6839 38.9413 49 39.7044 49 40.5V42.75Z" fill="white"/>
<path d="M63 46C63 55.3888 55.3888 63 46 63C36.6112 63 29 55.3888 29 46C29 36.6112 36.6112 29 46 29M46 29L41 26M46 29L42.5 33.5" stroke="white" stroke-width="2" stroke-linecap="round"/>
</svg>
