<svg width="100%" height="100%" viewBox="0 0 64 64" fill="none" xmlns="http://www.w3.org/2000/svg">
<g id="Imagery">
<g clip-path="url(#clip0_4183_111700)">
<rect width="64" height="64" rx="6" fill="#052C47"/>
<path id="Vector" d="M52.8333 14.2604H46.5833V12.1302C46.5833 11.5652 46.3638 11.0234 45.9731 10.6239C45.5824 10.2244 45.0525 10 44.5 10C43.9475 10 43.4176 10.2244 43.0269 10.6239C42.6362 11.0234 42.4167 11.5652 42.4167 12.1302V14.2604H21.5833V12.1302C21.5833 11.5652 21.3638 11.0234 20.9731 10.6239C20.5824 10.2244 20.0525 10 19.5 10C18.9475 10 18.4176 10.2244 18.0269 10.6239C17.6362 11.0234 17.4167 11.5652 17.4167 12.1302V14.2604H11.1667C10.0616 14.2604 9.00179 14.7092 8.22039 15.5082C7.43899 16.3072 7 17.3908 7 18.5207V65.7396C7 66.8696 7.43899 67.9532 8.22039 68.7522C9.00179 69.5511 10.0616 70 11.1667 70H52.8333C53.9384 70 54.9982 69.5511 55.7796 68.7522C56.561 67.9532 57 66.8696 57 65.7396V18.5207C57 17.3908 56.561 16.3072 55.7796 15.5082C54.9982 14.7092 53.9384 14.2604 52.8333 14.2604ZM52.8333 27.0414H11.1667V18.5207H17.4167V20.6509C17.4167 21.2158 17.6362 21.7577 18.0269 22.1572C18.4176 22.5566 18.9475 22.7811 19.5 22.7811C20.0525 22.7811 20.5824 22.5566 20.9731 22.1572C21.3638 21.7577 21.5833 21.2158 21.5833 20.6509V18.5207H42.4167V20.6509C42.4167 21.2158 42.6362 21.7577 43.0269 22.1572C43.4176 22.5566 43.9475 22.7811 44.5 22.7811C45.0525 22.7811 45.5824 22.5566 45.9731 22.1572C46.3638 21.7577 46.5833 21.2158 46.5833 20.6509V18.5207H52.8333V27.0414Z" fill="#1CB78D"/>
<rect id="Rectangle 46" x="11" y="30" width="13" height="13" rx="2" fill="#55C9A9"/>
<rect id="Rectangle 49" x="26" y="44" width="13" height="13" rx="2" fill="#55C9A9"/>
<rect id="Rectangle 50" x="26" y="60" width="13" height="13" rx="2" fill="#55C9A9"/>
<rect id="Rectangle 51" x="11" y="60" width="13" height="13" rx="2" fill="#55C9A9"/>
<rect id="Rectangle 48" x="41" y="30" width="12" height="13" rx="2" fill="#8DDBC6"/>
<path id="Vector_2" d="M43.5381 51.3068L41.9084 49.1412C41.9193 48.9443 41.9084 48.7365 41.9084 48.5834L43.5381 46.4068C43.6191 46.3009 43.6742 46.1774 43.6989 46.0464C43.7236 45.9153 43.7172 45.7803 43.6802 45.6521C43.4046 44.6437 43.0041 43.6737 42.4881 42.7646C42.4215 42.6491 42.33 42.55 42.2203 42.4743C42.1105 42.3986 41.9853 42.3483 41.8537 42.3271L39.174 41.9443L38.7693 41.5396L38.3865 38.8599C38.3651 38.7298 38.3159 38.6057 38.2423 38.4963C38.1687 38.3868 38.0724 38.2945 37.9599 38.2256C37.046 37.7114 36.0727 37.311 35.0615 37.0334C34.9333 36.9964 34.7983 36.9901 34.6673 37.0148C34.5362 37.0394 34.4127 37.0945 34.3068 37.1756L32.1412 38.7943H31.5724L29.4068 37.1756C29.3009 37.0945 29.1774 37.0394 29.0464 37.0148C28.9153 36.9901 28.7803 36.9964 28.6521 37.0334C27.6437 37.309 26.6737 37.7095 25.7646 38.2256C25.6491 38.2921 25.55 38.3836 25.4743 38.4934C25.3986 38.6031 25.3483 38.7283 25.3271 38.8599L24.9443 41.5396L24.5396 41.9443L21.8599 42.3271C21.7283 42.3483 21.6031 42.3986 21.4934 42.4743C21.3836 42.55 21.2921 42.6491 21.2256 42.7646C20.7095 43.6737 20.309 44.6437 20.0334 45.6521C19.9964 45.7803 19.9901 45.9153 20.0148 46.0464C20.0394 46.1774 20.0945 46.3009 20.1756 46.4068L21.8053 48.5724V49.1302L20.1756 51.3068C20.0945 51.4127 20.0394 51.5362 20.0148 51.6673C19.9901 51.7983 19.9964 51.9333 20.0334 52.0615C20.309 53.0699 20.7095 54.0399 21.2256 54.949C21.2921 55.0645 21.3836 55.1637 21.4934 55.2394C21.6031 55.315 21.7283 55.3653 21.8599 55.3865L24.5396 55.7693L24.9443 56.174L25.3271 58.8537C25.3483 58.9853 25.3986 59.1105 25.4743 59.2203C25.55 59.33 25.6491 59.4215 25.7646 59.4881C26.6737 60.0041 27.6437 60.4046 28.6521 60.6802C28.7268 60.7019 28.8041 60.7129 28.8818 60.7131C29.0715 60.7155 29.2565 60.6539 29.4068 60.5381L31.5724 58.9193H32.1412L34.3068 60.5381C34.4127 60.6191 34.5362 60.6742 34.6673 60.6989C34.7983 60.7236 34.9333 60.7172 35.0615 60.6802C36.0705 60.4066 37.0408 60.006 37.949 59.4881C38.0645 59.4215 38.1637 59.33 38.2394 59.2203C38.315 59.1105 38.3653 58.9853 38.3865 58.8537L38.7693 56.1631C38.9006 56.0318 39.0537 55.8896 39.1631 55.7693L41.8537 55.3865C41.9853 55.3653 42.1105 55.315 42.2203 55.2394C42.33 55.1637 42.4215 55.0645 42.4881 54.949C43.0041 54.0399 43.4046 53.0699 43.6802 52.0615C43.7172 51.9333 43.7236 51.7983 43.6989 51.6673C43.6742 51.5362 43.6191 51.4127 43.5381 51.3068ZM31.8568 53.6693C30.905 53.6693 29.9745 53.3871 29.1831 52.8583C28.3917 52.3295 27.7749 51.5778 27.4106 50.6985C27.0464 49.8191 26.9511 48.8515 27.1368 47.9179C27.3225 46.9844 27.7808 46.1269 28.4539 45.4539C29.1269 44.7808 29.9844 44.3225 30.9179 44.1368C31.8515 43.9511 32.8191 44.0464 33.6985 44.4106C34.5778 44.7749 35.3295 45.3917 35.8583 46.1831C36.3871 46.9745 36.6693 47.905 36.6693 48.8568C36.6693 50.1332 36.1623 51.3572 35.2598 52.2598C34.3572 53.1623 33.1332 53.6693 31.8568 53.6693Z" fill="white"/>
</g>
</g>
<defs>
<clipPath id="clip0_4183_111700">
<rect width="64" height="64" rx="6" fill="white"/>
</clipPath>
</defs>
</svg>
