<svg width="100%" height="100%" viewBox="0 0 64 64" fill="none" xmlns="http://www.w3.org/2000/svg">
<rect width="64" height="64" fill="#F5F5F5"/>
<g id="Business Landing Page">
<path d="M-753 -2762C-753 -2763.1 -752.105 -2764 -751 -2764H878C879.104 -2764 880 -2763.1 880 -2762V3147C880 3148.1 879.105 3149 878 3149H-751C-752.105 3149 -753 3148.1 -753 3147V-2762Z" fill="white"/>
<g id="Landing page">
<rect width="1440" height="5713" transform="translate(-653 -2664)" fill="white"/>
<g id="Why us">
<g id="Content-container">
<g id="Card">
<g id="Row">
<g id="Card_2">
<g id="Imagery">
<rect width="64" height="64" rx="6" fill="#052C47"/>
<g id="Group 781">
<path id="Vector" d="M51.2308 9H12.7692C9.58297 9 7 11.5744 7 14.75V41.5833C7 44.759 9.58297 47.3333 12.7692 47.3333H51.2308C54.417 47.3333 57 44.759 57 41.5833V14.75C57 11.5744 54.417 9 51.2308 9Z" fill="#1CB78D"/>
<path id="Vector_2" d="M39.6925 51.1667H24.3078C23.7978 51.1667 23.3087 51.3686 22.948 51.728C22.5874 52.0875 22.3848 52.575 22.3848 53.0833C22.3848 53.5917 22.5874 54.0792 22.948 54.4386C23.3087 54.7981 23.7978 55 24.3078 55H39.6925C40.2025 55 40.6916 54.7981 41.0523 54.4386C41.4129 54.0792 41.6155 53.5917 41.6155 53.0833C41.6155 52.575 41.4129 52.0875 41.0523 51.728C40.6916 51.3686 40.2025 51.1667 39.6925 51.1667Z" fill="#8DDBC6"/>
<path id="Rectangle 55" d="M9.30127 40.6407C9.30127 43.4021 11.5398 45.668 14.3013 45.668H49.6985C52.4599 45.668 54.6985 43.4021 54.6985 40.6407H9.30127Z" fill="#55C9A9"/>
<path id="Vector 31 (Stroke)" fill-rule="evenodd" clip-rule="evenodd" d="M9.30127 34.6079C9.30127 34.0526 9.42445 33.6025 9.5764 33.6025L19.1144 33.6025C19.2664 33.6025 19.3895 34.0526 19.3895 34.6079C19.3895 35.1632 19.2664 35.6134 19.1144 35.6134L9.5764 35.6134C9.42445 35.6134 9.30127 35.1632 9.30127 34.6079Z" fill="#C6EDE3"/>
<path id="Vector 31 (Stroke)_2" fill-rule="evenodd" clip-rule="evenodd" d="M44.6104 19.526C44.6104 18.9707 44.7335 18.5205 44.8855 18.5205L54.4235 18.5205C54.5754 18.5205 54.6986 18.9707 54.6986 19.526C54.6986 20.0813 54.5754 20.5314 54.4235 20.5314L44.8855 20.5314C44.7335 20.5314 44.6104 20.0813 44.6104 19.526Z" fill="#8DDBC6"/>
<path id="Vector 31 (Stroke)_3" fill-rule="evenodd" clip-rule="evenodd" d="M9.30127 31.5915C9.30127 31.0362 9.42445 30.5861 9.5764 30.5861L19.1144 30.5861C19.2664 30.5861 19.3895 31.0362 19.3895 31.5915C19.3895 32.1468 19.2664 32.597 19.1144 32.597L9.5764 32.597C9.42445 32.597 9.30127 32.1468 9.30127 31.5915Z" fill="#C6EDE3"/>
<path id="Vector 31 (Stroke)_4" fill-rule="evenodd" clip-rule="evenodd" d="M44.6104 16.5096C44.6104 15.9543 44.7335 15.5041 44.8855 15.5041L54.4235 15.5041C54.5754 15.5041 54.6986 15.9543 54.6986 16.5096C54.6986 17.0649 54.5754 17.515 54.4235 17.515L44.8855 17.515C44.7335 17.515 44.6104 17.0649 44.6104 16.5096Z" fill="#8DDBC6"/>
<path id="Vector 31 (Stroke)_5" fill-rule="evenodd" clip-rule="evenodd" d="M9.30127 28.5751C9.30127 28.0198 9.42445 27.5697 9.5764 27.5697L19.1144 27.5697C19.2664 27.5697 19.3895 28.0198 19.3895 28.5751C19.3895 29.1304 19.2664 29.5806 19.1144 29.5806L9.5764 29.5806C9.42445 29.5806 9.30127 29.1304 9.30127 28.5751Z" fill="#C6EDE3"/>
<path id="Vector 31 (Stroke)_6" fill-rule="evenodd" clip-rule="evenodd" d="M44.6104 13.4932C44.6104 12.9379 44.7335 12.4877 44.8855 12.4877L54.4235 12.4877C54.5754 12.4877 54.6986 12.9379 54.6986 13.4932C54.6986 14.0485 54.5754 14.4986 54.4235 14.4986L44.8855 14.4986C44.7335 14.4986 44.6104 14.0485 44.6104 13.4932Z" fill="#8DDBC6"/>
<path id="Vector_3" d="M34.2993 28.3582L34.3009 28.3566C35.0366 27.6285 36.0309 27.2201 37.067 27.2201C38.1031 27.2201 39.0974 27.6285 39.8331 28.3566L39.8343 28.3578C40.1975 28.7204 40.4853 29.1512 40.6811 29.6252C40.8768 30.0991 40.9766 30.607 40.9748 31.1196L34.2993 28.3582ZM34.2993 28.3582C33.8461 28.8117 33.5118 29.3696 33.3261 29.9827C33.1404 30.5959 33.1091 31.2452 33.2348 31.8733C33.3606 32.5014 33.6395 33.0889 34.047 33.5837C34.4544 34.0786 34.9777 34.4657 35.5706 34.7108C36.1635 34.956 36.8078 35.0517 37.4465 34.9895C38.0852 34.9273 38.6988 34.7092 39.2331 34.3543C39.7673 33.9995 40.2058 33.5187 40.5096 32.9545C40.8134 32.3905 40.9732 31.7604 40.9748 31.12L34.2993 28.3582ZM39.8537 19.9073L39.8676 19.8934L39.8801 19.8783C40.0675 19.6505 40.1635 19.3611 40.1489 19.0665C40.1344 18.7718 40.0105 18.4933 39.8017 18.285L39.5192 18.5682L39.8016 18.285C39.5928 18.0767 39.3139 17.9536 39.0194 17.9392C38.7248 17.9247 38.4353 18.02 38.2071 18.2068L38.1919 18.2193L38.178 18.2331L24.1466 32.2248L24.1452 32.2262C23.9245 32.4484 23.8005 32.7487 23.8005 33.0619C23.8005 33.3751 23.9245 33.6754 24.1452 33.8976L24.1451 33.8977L24.1514 33.9037C24.375 34.1193 24.6738 34.2397 24.9844 34.2397C25.2951 34.2397 25.5938 34.1193 25.8175 33.9037L25.8175 33.9037L25.8223 33.899L39.8537 19.9073ZM24.165 23.7734L24.172 23.7804L24.1793 23.787C24.9239 24.4647 25.9016 24.8299 26.9091 24.807C27.9166 24.7841 28.8766 24.3748 29.5895 23.6639C30.3025 22.953 30.7134 21.9952 30.7364 20.9896C30.7594 19.9839 30.3927 19.0084 29.713 18.2658L29.7063 18.2585L29.6993 18.2515C28.9636 17.5234 27.9693 17.115 26.9332 17.115C25.8971 17.115 24.9029 17.5234 24.1671 18.2515L24.1671 18.2515L24.165 18.2536C23.4348 18.9873 23.0248 19.9793 23.0248 21.0135C23.0248 22.0477 23.4348 23.0397 24.165 23.7734ZM25.8423 22.1009L25.8423 22.1008L25.8391 22.0977C25.6947 21.9563 25.5801 21.7876 25.502 21.6016C25.424 21.4156 25.384 21.2159 25.3844 21.0143L25.3844 21.0127C25.384 20.8111 25.424 20.6114 25.502 20.4254C25.5801 20.2394 25.6947 20.0707 25.8391 19.9293L25.8391 19.9294L25.8438 19.9247C25.986 19.7809 26.1555 19.6666 26.3426 19.5885C26.5296 19.5105 26.7304 19.4703 26.9332 19.4703C27.136 19.4703 27.3368 19.5105 27.5239 19.5885C27.7109 19.6666 27.8804 19.7809 28.0227 19.9247L28.0226 19.9247L28.0267 19.9287C28.171 20.0706 28.2855 20.2395 28.3636 20.4257C28.4417 20.6119 28.482 20.8117 28.482 21.0135C28.482 21.2153 28.4417 21.4151 28.3636 21.6013C28.2855 21.7875 28.171 21.9565 28.0267 22.0983L28.0267 22.0983L28.0241 22.1009C27.8812 22.244 27.7112 22.3576 27.524 22.4352C27.3368 22.5127 27.136 22.5526 26.9332 22.5526C26.7304 22.5526 26.5296 22.5127 26.3424 22.4352C26.1552 22.3576 25.9853 22.244 25.8423 22.1009ZM38.1565 30.0298L38.1564 30.0298L38.1611 30.0344C38.3055 30.1758 38.4201 30.3445 38.4982 30.5305C38.5761 30.7161 38.6161 30.9154 38.6158 31.1165C38.6136 31.367 38.5499 31.6132 38.4301 31.8335C38.3101 32.0542 38.1376 32.2423 37.9276 32.3811C37.7175 32.52 37.4764 32.6053 37.2254 32.6296C36.9744 32.6538 36.7213 32.6163 36.4883 32.5202C36.2554 32.4241 36.0497 32.2726 35.8894 32.0789C35.7292 31.8852 35.6191 31.6554 35.5688 31.4095C35.5185 31.1637 35.5295 30.9093 35.6008 30.6687C35.6721 30.4282 35.8015 30.2088 35.9777 30.0296C36.1199 29.8858 36.2894 29.7716 36.4764 29.6936C36.6634 29.6156 36.8642 29.5754 37.067 29.5754C37.2698 29.5754 37.4706 29.6156 37.6576 29.6936C37.8447 29.7717 38.0142 29.886 38.1565 30.0298Z" fill="white" stroke="white" stroke-width="0.8"/>
</g>
</g>
<rect x="-168.5" y="-23.5" width="401" height="241" rx="11.5" stroke="#F1F3F5"/>
</g>
</g>
</g>
</g>
</g>
</g>
<path d="M-751 -2763H878V-2765H-751V-2763ZM879 -2762V3147H881V-2762H879ZM878 3148H-751V3150H878V3148ZM-752 3147V-2762H-754V3147H-752ZM-751 3148C-751.552 3148 -752 3147.55 -752 3147H-754C-754 3148.66 -752.657 3150 -751 3150V3148ZM879 3147C879 3147.55 878.552 3148 878 3148V3150C879.657 3150 881 3148.66 881 3147H879ZM878 -2763C878.552 -2763 879 -2762.55 879 -2762H881C881 -2763.66 879.657 -2765 878 -2765V-2763ZM-751 -2765C-752.657 -2765 -754 -2763.66 -754 -2762H-752C-752 -2762.55 -751.552 -2763 -751 -2763V-2765Z" fill="black" fill-opacity="0.1"/>
</g>
</svg>
