<svg width="100%" height="100%" viewBox="0 0 24 24" fill="none" xmlns="http://www.w3.org/2000/svg">
<path d="M11.9995 1.49976C9.81221 1.50235 7.7153 2.37238 6.16869 3.91899C4.62207 5.4656 3.75205 7.56252 3.74945 9.74976C3.74945 16.8088 11.2495 22.1409 11.5688 22.3643C11.6951 22.4525 11.8454 22.4998 11.9995 22.4998C12.1535 22.4998 12.3038 22.4525 12.4301 22.3643C12.7495 22.1409 20.2495 16.8088 20.2495 9.74976C20.2469 7.56252 19.3768 5.4656 17.8302 3.91899C16.2836 2.37238 14.1867 1.50235 11.9995 1.49976ZM12 6.75003C12.5933 6.75003 13.1734 6.92597 13.6667 7.25562C14.1601 7.58526 14.5446 8.0538 14.7716 8.60198C14.9987 9.15016 15.0581 9.75336 14.9424 10.3353C14.8266 10.9172 14.5409 11.4518 14.1213 11.8713C13.7018 12.2909 13.1672 12.5766 12.5853 12.6924C12.0033 12.8081 11.4001 12.7487 10.8519 12.5217C10.3038 12.2946 9.83524 11.9101 9.50559 11.4167C9.17595 10.9234 9 10.3434 9 9.75003C8.99999 9.35606 9.07758 8.96595 9.22834 8.60196C9.3791 8.23798 9.60008 7.90726 9.87865 7.62868C10.1572 7.3501 10.488 7.12913 10.8519 6.97837C11.2159 6.82761 11.606 6.75002 12 6.75003Z" fill="currentColor"/>
</svg>
