<svg width="100%" height="100%" viewBox="0 0 21 21" fill="none" xmlns="http://www.w3.org/2000/svg">
<path d="M18.457 5.25854H2.20703C1.86185 5.25854 1.58203 5.53837 1.58203 5.88354V14.6335C1.58203 14.9787 1.86185 15.2585 2.20703 15.2585H18.457C18.8022 15.2585 19.082 14.9787 19.082 14.6335V5.88354C19.082 5.53837 18.8022 5.25854 18.457 5.25854Z" stroke="currentColor" stroke-width="1.5" stroke-linecap="round" stroke-linejoin="round"/>
<path d="M10.332 12.7585C11.7127 12.7585 12.832 11.6393 12.832 10.2585C12.832 8.87783 11.7127 7.75854 10.332 7.75854C8.95132 7.75854 7.83203 8.87783 7.83203 10.2585C7.83203 11.6393 8.95132 12.7585 10.332 12.7585Z" stroke="currentColor" stroke-width="1.5" stroke-linecap="round" stroke-linejoin="round"/>
<path d="M14.082 5.25854L19.082 9.63354" stroke="currentColor" stroke-width="1.5" stroke-linecap="round" stroke-linejoin="round"/>
<path d="M14.082 15.2585L19.082 10.8835" stroke="currentColor" stroke-width="1.5" stroke-linecap="round" stroke-linejoin="round"/>
<path d="M6.58203 5.25854L1.58203 9.63354" stroke="currentColor" stroke-width="1.5" stroke-linecap="round" stroke-linejoin="round"/>
<path d="M6.58203 15.2585L1.58203 10.8835" stroke="currentColor" stroke-width="1.5" stroke-linecap="round" stroke-linejoin="round"/>
</svg>
