<svg width="100%" height="100%" viewBox="0 0 64 64" fill="none" xmlns="http://www.w3.org/2000/svg">
<rect width="64" height="64" rx="6" fill="#052C47"/>
<path d="M22.1957 25.6649H19.6678C16.986 25.6649 14.4141 26.7302 12.5177 28.6265C10.6214 30.5229 9.55609 33.0948 9.55609 35.7766V38.3045C9.55609 40.9863 10.6214 43.5583 12.5177 45.4546C14.4141 47.3509 16.986 48.4162 19.6678 48.4162H22.1957C23.5366 48.4162 24.8226 47.8836 25.7707 46.9354C26.7189 45.9872 27.2516 44.7013 27.2516 43.3604V30.7208C27.2516 29.3799 26.7189 28.0939 25.7707 27.1457C24.8226 26.1976 23.5366 25.6649 22.1957 25.6649Z" fill="#1CB78D"/>
<path d="M44.9468 25.6649H42.4189C41.078 25.6649 39.792 26.1976 38.8439 27.1457C37.8957 28.0939 37.363 29.3799 37.363 30.7208V43.3604C37.363 44.7013 37.8957 45.9872 38.8439 46.9354C39.792 47.8836 41.078 48.4162 42.4189 48.4162H44.9468C47.6286 48.4162 50.2006 47.3509 52.0969 45.4546C53.9932 43.5583 55.0585 40.9863 55.0585 38.3045V35.7766C55.0585 33.0948 53.9932 30.5229 52.0969 28.6265C50.2006 26.7302 47.6286 25.6649 44.9468 25.6649Z" fill="#1CB78D"/>
<path d="M52.5309 40.8324H52.3034C51.9709 40.8039 51.6474 40.7098 51.3515 40.5556C51.0555 40.4013 50.7931 40.1901 50.5792 39.9339C50.3654 39.6777 50.2043 39.3818 50.1054 39.0631C50.0065 38.7444 49.9717 38.4092 50.003 38.077L50.4833 33.0212C50.7143 30.4947 50.4161 27.9479 49.6077 25.5432C48.7993 23.1385 47.4984 20.9287 45.7882 19.0549C44.0779 17.1811 41.9958 15.6844 39.6746 14.6604C37.3535 13.6363 34.8444 13.1074 32.3075 13.1074C29.7705 13.1074 27.2614 13.6363 24.9403 14.6604C22.6192 15.6844 20.5371 17.1811 18.8268 19.0549C17.1165 20.9287 15.8157 23.1385 15.0073 25.5432C14.1989 27.9479 13.9007 30.4947 14.1317 33.0212L14.612 38.077C14.6723 38.7475 14.4639 39.4144 14.0325 39.9312C13.601 40.4479 12.982 40.7721 12.3116 40.8324C11.6411 40.8928 10.9742 40.6843 10.4574 40.2529C9.94069 39.8215 9.61649 39.2025 9.55615 38.532L9.10112 33.4762C8.79931 30.2466 9.17491 26.9896 10.2039 23.9135C11.2329 20.8375 12.8926 18.01 15.0769 15.6121C17.2612 13.2141 19.9219 11.2985 22.8889 9.98778C25.8559 8.67703 29.0638 8 32.3075 8C35.5511 8 38.759 8.67703 41.726 9.98778C44.693 11.2985 47.3538 13.2141 49.538 15.6121C51.7223 18.01 53.3821 20.8375 54.411 23.9135C55.44 26.9896 55.8156 30.2466 55.5138 33.4762L55.0588 38.532C55.0019 39.1623 54.7106 39.7483 54.2425 40.1742C53.7745 40.6001 53.1637 40.835 52.5309 40.8324Z" fill="#1CB78D"/>
<path d="M40.5231 56H32.3073C31.6369 56 30.9939 55.7337 30.5198 55.2596C30.0458 54.7855 29.7794 54.1425 29.7794 53.4721C29.7794 52.8016 30.0458 52.1586 30.5198 51.6846C30.9939 51.2105 31.6369 50.9441 32.3073 50.9441H40.5231C41.5596 50.9441 42.419 49.7813 42.419 48.4162V45.8883C42.419 45.2178 42.6854 44.5749 43.1595 44.1008C43.6335 43.6267 44.2765 43.3604 44.947 43.3604C45.6174 43.3604 46.2604 43.6267 46.7345 44.1008C47.2086 44.5749 47.4749 45.2178 47.4749 45.8883V48.4162C47.5504 50.3416 46.8623 52.2188 45.5602 53.6392C44.2582 55.0596 42.4478 55.9081 40.5231 56Z" fill="#1CB78D"/>
<rect x="17.9379" y="28.4589" width="6.38634" height="17.5624" rx="3" fill="#C6EDE3"/>
<rect x="40.2905" y="28.4589" width="6.38634" height="17.5624" rx="3" fill="#C6EDE3"/>
<circle cx="46" cy="13" r="2" fill="#1CB78D"/>
<circle cx="50" cy="13" r="2" fill="#1CB78D"/>
<circle cx="54" cy="13" r="2" fill="#1CB78D"/>
<path d="M42.09 18.51C40.7547 16.9836 40.0129 15.028 40 13C40 8 44.49 4 50 4C55.51 4 60 8 60 13C60 18 55.51 22 50 22C48.9858 22.0036 47.9761 21.8656 47 21.59L42.41 23.89C42.2839 23.9585 42.1434 23.9962 42 24C41.7744 23.9987 41.5559 23.9212 41.38 23.78C41.2339 23.6628 41.1236 23.507 41.0617 23.3302C40.9998 23.1534 40.9888 22.9627 41.03 22.78L42.09 18.51ZM54 14C54.1978 14 54.3911 13.9414 54.5556 13.8315C54.72 13.7216 54.8482 13.5654 54.9239 13.3827C54.9996 13.2 55.0194 12.9989 54.9808 12.8049C54.9422 12.6109 54.847 12.4327 54.7071 12.2929C54.5673 12.153 54.3891 12.0578 54.1951 12.0192C54.0011 11.9806 53.8 12.0004 53.6173 12.0761C53.4346 12.1518 53.2784 12.28 53.1685 12.4444C53.0586 12.6089 53 12.8022 53 13C53 13.2652 53.1054 13.5196 53.2929 13.7071C53.4804 13.8946 53.7348 14 54 14ZM50 14C50.1978 14 50.3911 13.9414 50.5556 13.8315C50.72 13.7216 50.8482 13.5654 50.9239 13.3827C50.9996 13.2 51.0194 12.9989 50.9808 12.8049C50.9422 12.6109 50.847 12.4327 50.7071 12.2929C50.5673 12.153 50.3891 12.0578 50.1951 12.0192C50.0011 11.9806 49.8 12.0004 49.6173 12.0761C49.4346 12.1518 49.2784 12.28 49.1685 12.4444C49.0586 12.6089 49 12.8022 49 13C49 13.2652 49.1054 13.5196 49.2929 13.7071C49.4804 13.8946 49.7348 14 50 14ZM46 14C46.1978 14 46.3911 13.9414 46.5556 13.8315C46.72 13.7216 46.8482 13.5654 46.9239 13.3827C46.9996 13.2 47.0194 12.9989 46.9808 12.8049C46.9422 12.6109 46.847 12.4327 46.7071 12.2929C46.5673 12.153 46.3891 12.0578 46.1951 12.0192C46.0011 11.9806 45.8 12.0004 45.6173 12.0761C45.4346 12.1518 45.2784 12.28 45.1685 12.4444C45.0586 12.6089 45 12.8022 45 13C45 13.2652 45.1054 13.5196 45.2929 13.7071C45.4804 13.8946 45.7348 14 46 14Z" fill="white"/>
</svg>
