<svg width="100%" height="100%" viewBox="0 0 16 16" fill="none" xmlns="http://www.w3.org/2000/svg">
<path d="M13.5414 9.54047C12.5599 9.8132 11.5236 9.82039 10.5384 9.56128C9.55318 9.30217 8.65447 8.78607 7.93415 8.06574C7.21382 7.34542 6.69771 6.44672 6.4386 5.46152C6.17949 4.47633 6.18667 3.44 6.4594 2.4585L6.45956 2.45854C5.49148 2.72786 4.61086 3.24612 3.90542 3.96171C3.19999 4.67731 2.69437 5.56525 2.43892 6.53708C2.18348 7.50891 2.18714 8.53071 2.44952 9.5007C2.71191 10.4707 3.22387 11.355 3.93441 12.0655C4.64494 12.776 5.52925 13.288 6.49923 13.5504C7.46921 13.8127 8.49102 13.8164 9.46285 13.5609C10.4347 13.3055 11.3226 12.7999 12.0382 12.0944C12.7538 11.389 13.272 10.5083 13.5413 9.54026L13.5414 9.54047Z" stroke="currentColor" stroke-opacity="0.96" stroke-linecap="round" stroke-linejoin="round"/>
</svg>
