<svg width="100%" height="100%" viewBox="0 0 24 25" fill="none" xmlns="http://www.w3.org/2000/svg">
<path d="M12.375 14.1335C13.2034 14.1335 13.875 13.462 13.875 12.6335C13.875 11.8051 13.2034 11.1335 12.375 11.1335C11.5466 11.1335 10.875 11.8051 10.875 12.6335C10.875 13.462 11.5466 14.1335 12.375 14.1335Z" fill="currentColor"/>
<path d="M18.375 14.1335C19.2034 14.1335 19.875 13.462 19.875 12.6335C19.875 11.8051 19.2034 11.1335 18.375 11.1335C17.5466 11.1335 16.875 11.8051 16.875 12.6335C16.875 13.462 17.5466 14.1335 18.375 14.1335Z" fill="currentColor"/>
<path d="M6.375 14.1335C7.20343 14.1335 7.875 13.462 7.875 12.6335C7.875 11.8051 7.20343 11.1335 6.375 11.1335C5.54657 11.1335 4.875 11.8051 4.875 12.6335C4.875 13.462 5.54657 14.1335 6.375 14.1335Z" fill="currentColor"/>
</svg>
