<svg width="100%" height="100%" viewBox="0 0 32 24" fill="none" xmlns="http://www.w3.org/2000/svg">
<rect x="0.5" y="0.5" width="31" height="23" rx="3.5" fill="white" stroke="#D9D9D9"/>
<path fill-rule="evenodd" clip-rule="evenodd" d="M16.1679 16.8293C15.0535 17.8273 13.6079 18.4298 12.0283 18.4298C8.50373 18.4298 5.64648 15.4301 5.64648 11.7298C5.64648 8.02948 8.50373 5.02979 12.0283 5.02979C13.6079 5.02979 15.0535 5.63228 16.1679 6.63032C17.2823 5.63228 18.7278 5.02979 20.3074 5.02979C23.832 5.02979 26.6892 8.02948 26.6892 11.7298C26.6892 15.4301 23.832 18.4298 20.3074 18.4298C18.7278 18.4298 17.2823 17.8273 16.1679 16.8293Z" fill="#ED0006"/>
<path fill-rule="evenodd" clip-rule="evenodd" d="M16.168 16.8293C17.5402 15.6004 18.4103 13.7717 18.4103 11.7298C18.4103 9.68783 17.5402 7.85922 16.168 6.63032C17.2824 5.63228 18.728 5.02979 20.3076 5.02979C23.8321 5.02979 26.6894 8.02948 26.6894 11.7298C26.6894 15.4301 23.8321 18.4298 20.3076 18.4298C18.728 18.4298 17.2824 17.8273 16.168 16.8293Z" fill="#F9A000"/>
<path fill-rule="evenodd" clip-rule="evenodd" d="M16.168 16.8292C17.5402 15.6003 18.4103 13.7717 18.4103 11.7298C18.4103 9.68784 17.5402 7.85924 16.168 6.63034C14.7959 7.85924 13.9258 9.68784 13.9258 11.7298C13.9258 13.7717 14.7959 15.6003 16.168 16.8292Z" fill="#FF5E00"/>
</svg>
