<svg width="100%" height="100%" viewBox="0 0 32 24" fill="none" xmlns="http://www.w3.org/2000/svg">
<rect x="0.5" y="0.5" width="31" height="23" rx="3.5" fill="white" stroke="#D9D9D9"/>
<path d="M14.7038 9.65346C14.7164 9.60654 14.7291 9.55623 14.909 9.55623C15.4677 9.55623 15.5749 9.9686 15.5749 10.3074C15.5749 10.5119 15.4707 11.5446 14.4766 11.5446C14.3283 11.5446 14.2525 11.5246 14.2525 11.4139C14.2525 11.3602 14.2936 11.2127 14.3219 11.102L14.7038 9.65346ZM14.1264 9.50916C14.2873 9.52258 14.3694 9.53941 14.3694 9.65346C14.3694 9.72059 14.3441 9.82446 14.3347 9.86134L13.9466 11.3435C13.893 11.5514 13.8456 11.5615 13.6909 11.5916V11.6453H14.4894C15.4173 11.6453 15.9254 11.0248 15.9254 10.3476C15.9254 9.99561 15.7297 9.4556 15.0039 9.4556H14.1265V9.50916H14.1264ZM16.5785 11.2999C16.4554 11.4977 16.3166 11.6821 16.1398 11.6821C15.9915 11.6821 15.9915 11.5346 15.9915 11.4743C15.9915 11.3167 16.2408 10.485 16.2408 10.3912C16.2408 10.3208 16.2155 10.304 16.0419 10.304V10.2503C16.1619 10.2436 16.4238 10.1899 16.5468 10.1665L16.5563 10.1731L16.2785 11.2528C16.2659 11.2997 16.228 11.4338 16.228 11.4741C16.228 11.4976 16.2501 11.5244 16.2785 11.5244C16.3164 11.5244 16.4079 11.4573 16.5374 11.2628L16.5785 11.2999ZM16.5154 9.80764C16.4366 9.80764 16.3639 9.75053 16.3639 9.63324C16.3639 9.51595 16.4366 9.45221 16.5122 9.45221C16.6164 9.45221 16.67 9.56287 16.67 9.63664C16.67 9.70362 16.6194 9.80764 16.5154 9.80764ZM18.0524 11.2965C17.8946 11.5212 17.7841 11.6754 17.6137 11.6754C17.4685 11.6754 17.4622 11.5747 17.4622 11.4775C17.4622 11.3971 17.6958 10.5788 17.6958 10.4447C17.6958 10.3844 17.6769 10.3375 17.6169 10.3375C17.4654 10.3375 17.2666 10.6259 17.153 10.8136C17.0079 11.0449 16.9667 11.1892 16.8375 11.6451H16.6008C16.6986 11.2662 16.9101 10.4816 16.9101 10.4111C16.9101 10.3608 16.8786 10.3239 16.7082 10.3239V10.2702C16.8786 10.2367 17.049 10.2032 17.2195 10.1663L17.2289 10.1729L17.0269 10.8738L17.0331 10.8804C17.1814 10.6322 17.4718 10.1661 17.7337 10.1661C17.879 10.1661 17.9514 10.2466 17.9514 10.3875C17.9514 10.5316 17.699 11.3599 17.699 11.4605C17.699 11.5108 17.7431 11.5176 17.7495 11.5176C17.8127 11.5176 17.8916 11.4104 18.0084 11.2526L18.0524 11.2965ZM18.4564 10.8001C18.5731 10.5017 18.7877 10.2436 18.9582 10.2436C19.0371 10.2436 19.0686 10.3074 19.0686 10.3777C19.0686 10.4046 19.0529 10.8069 18.4028 10.9478L18.4564 10.8001ZM19.1064 11.2797C18.9486 11.4172 18.816 11.5312 18.6456 11.5312C18.513 11.5312 18.349 11.454 18.349 11.2259C18.349 11.1588 18.3648 11.0918 18.3805 11.0215L18.4688 11.008C18.9802 10.9309 19.2768 10.6592 19.2768 10.3944C19.2768 10.2469 19.1789 10.1663 19.0179 10.1663C18.573 10.1663 18.0743 10.7296 18.0743 11.2091C18.0743 11.4204 18.1753 11.6818 18.5068 11.6818C18.8224 11.6818 19.1096 11.3733 19.1443 11.3196L19.1064 11.2797ZM19.299 11.6451L19.5546 10.666C19.5862 10.5419 19.605 10.428 19.605 10.3978C19.605 10.3509 19.5894 10.2973 19.4915 10.2973C19.4567 10.2973 19.422 10.3074 19.3873 10.314V10.257C19.5483 10.2336 19.7345 10.1899 19.8765 10.1665L19.886 10.1731L19.7314 10.8404L19.7377 10.8471L19.7629 10.7799C19.8671 10.5586 20.1071 10.1663 20.3058 10.1663C20.3784 10.1663 20.4573 10.2166 20.4573 10.3305C20.4573 10.5049 20.3437 10.5049 20.309 10.5049C20.1733 10.5049 20.2206 10.3842 20.1448 10.3842C20.0471 10.3842 19.8576 10.7565 19.8324 10.8068C19.7124 11.0482 19.6682 11.1991 19.5388 11.6451H19.299ZM20.2962 11.1556C20.3183 11.3031 20.3688 11.6116 20.6245 11.6116C20.8011 11.6116 20.8516 11.4507 20.8516 11.34C20.8516 11.1187 20.4762 10.7967 20.4762 10.5386C20.4762 10.4347 20.5203 10.1663 20.8548 10.1663C20.9969 10.1663 21.0599 10.2234 21.1546 10.2234C21.2084 10.2234 21.2273 10.1899 21.243 10.1629H21.2871L21.2239 10.6291H21.1734C21.1577 10.4379 21.0819 10.2435 20.8768 10.2435C20.8073 10.2435 20.7064 10.2736 20.7064 10.4379C20.7064 10.6492 21.0913 10.9477 21.0913 11.2326C21.0913 11.598 20.7977 11.682 20.6211 11.682C20.5264 11.682 20.4002 11.6183 20.3087 11.6183C20.2645 11.6183 20.2519 11.6517 20.233 11.6888H20.1824L20.2456 11.1556H20.2962ZM23.8972 10.0759C23.891 9.98203 23.8625 9.53262 23.4112 9.53262C22.7801 9.53262 22.458 10.3441 22.458 10.837C22.458 11.2764 22.6316 11.5547 23.0072 11.5547C23.3639 11.5547 23.5848 11.3165 23.7363 11.159L23.7899 11.2059C23.6731 11.3534 23.3922 11.7055 22.9314 11.7055C22.5652 11.7055 22.1046 11.4707 22.1046 10.8001C22.1046 10.153 22.6631 9.41193 23.3859 9.41193C23.6131 9.41193 23.8057 9.49234 23.8782 9.49234C23.9697 9.49234 23.9886 9.45206 24.0044 9.41857H24.0707L23.9539 10.0859L23.8972 10.0759ZM24.4778 11.2628C24.3169 11.521 24.1937 11.682 23.998 11.682C23.8592 11.682 23.8465 11.5679 23.8465 11.4741C23.8465 11.4036 24.3042 9.6533 24.3042 9.58293C24.3042 9.49588 24.1716 9.49589 24.0896 9.49913V9.44542C24.2537 9.42536 24.4178 9.39511 24.5818 9.35498L24.5977 9.37165L24.1211 11.3131C24.1148 11.3434 24.0896 11.4338 24.0896 11.4707C24.0896 11.4908 24.0896 11.5378 24.1369 11.5378C24.2158 11.5378 24.2822 11.444 24.4367 11.2326L24.4778 11.2628ZM25.9359 11.283C25.7371 11.5882 25.655 11.6754 25.4972 11.6754C25.3552 11.6754 25.3489 11.5513 25.3489 11.501C25.3489 11.4406 25.4121 11.159 25.4846 10.8839H25.4752C25.2605 11.2628 25.027 11.682 24.7429 11.682C24.6293 11.682 24.5693 11.6317 24.5693 11.4841C24.5693 11.3366 24.8092 10.4915 24.8092 10.401C24.8092 10.3038 24.7492 10.3038 24.6199 10.3038V10.257C24.7792 10.2366 24.9373 10.2063 25.0933 10.1665L25.1027 10.1731L24.8154 11.3903C24.806 11.4338 24.8154 11.5042 24.8818 11.5042C25.0175 11.5042 25.2163 11.1891 25.3237 11.0147C25.4784 10.7665 25.5478 10.5552 25.6708 10.1964H25.9044L25.6551 11.1991C25.6362 11.2662 25.5951 11.4138 25.5951 11.4641C25.5951 11.4807 25.5982 11.5178 25.6331 11.5178C25.693 11.5178 25.7814 11.4003 25.8919 11.2528L25.9359 11.283ZM27.0816 10.6157C27.0816 10.8974 26.7817 11.605 26.3493 11.605C26.201 11.605 26.201 11.5178 26.201 11.4943C26.201 11.1423 26.504 10.3307 26.8512 10.3307C27.05 10.3307 27.0816 10.5119 27.0816 10.6157ZM26.2042 9.4891C26.3872 9.49249 26.4093 9.50916 26.4093 9.58632C26.4093 9.63324 26.381 9.71704 26.3589 9.81103L25.9297 11.4909V11.5044C25.9297 11.5781 26.1727 11.6821 26.34 11.6821C26.8229 11.6821 27.3498 11.102 27.3498 10.5722C27.3498 10.3274 27.1953 10.1665 26.9744 10.1665C26.6904 10.1665 26.4915 10.4784 26.3874 10.6526L26.3811 10.6494C26.4885 10.2703 26.6336 9.64667 26.703 9.3718L26.6873 9.35513C26.5232 9.38862 26.3622 9.41208 26.2045 9.4323V9.4891H26.2042ZM13.6919 14.2044C13.8466 14.1741 13.894 14.1641 13.9476 13.9562L14.3357 12.474C14.3546 12.4069 14.3704 12.3265 14.3704 12.2661C14.3704 12.1488 14.2853 12.1388 14.1495 12.122V12.0683H14.9291V12.122C14.7745 12.1522 14.724 12.1589 14.6702 12.3702L14.2821 13.8556C14.2632 13.9227 14.2474 13.9897 14.2474 14.0703C14.2474 14.1775 14.3263 14.1877 14.4621 14.2044V14.2581H13.6919V14.2044Z" fill="black"/>
<path d="M15.9806 13.91C15.8227 14.1347 15.7123 14.289 15.5418 14.289C15.3967 14.289 15.3903 14.1884 15.3903 14.0912C15.3903 14.0108 15.6239 13.1925 15.6239 13.0584C15.6239 12.998 15.605 12.9511 15.545 12.9511C15.3935 12.9511 15.1947 13.2395 15.0811 13.4272C14.9358 13.6586 14.8948 13.8027 14.7654 14.2588H14.5288C14.6266 13.8799 14.8381 13.0951 14.8381 13.0247C14.8381 12.9744 14.8065 12.9375 14.6362 12.9375V12.8838C14.8065 12.8503 14.9769 12.8167 15.1474 12.7798L15.1569 12.7866L14.955 13.4874L14.9612 13.4942C15.1095 13.246 15.3999 12.7799 15.6618 12.7799C15.807 12.7799 15.8797 12.8605 15.8797 13.0014C15.8797 13.1456 15.6272 13.9739 15.6272 14.0745C15.6272 14.1248 15.6714 14.1315 15.6778 14.1315C15.741 14.1315 15.8198 14.0242 15.9365 13.8666L15.9806 13.91ZM16.8232 12.9307H16.5582L16.2804 14.0473C16.2772 14.0574 16.2772 14.064 16.2772 14.0742C16.2772 14.1043 16.2929 14.1312 16.3278 14.1312C16.391 14.1312 16.5014 13.9736 16.5802 13.8663L16.6212 13.8898C16.4603 14.148 16.3372 14.2955 16.1731 14.2955C16.1099 14.2955 16.0216 14.262 16.0216 14.1614C16.0216 14.1111 16.0816 13.9066 16.0942 13.8529L16.3214 12.9307H16.0878C16.0848 12.9107 16.0848 12.8938 16.0942 12.877C16.1131 12.8468 16.2014 12.8233 16.2552 12.7932C16.3593 12.7361 16.5108 12.5853 16.5991 12.4679C16.6118 12.4512 16.6244 12.4209 16.6527 12.4277C16.6748 12.4209 16.6812 12.4512 16.6748 12.478L16.5865 12.8235H16.8389L16.8232 12.9307ZM17.104 13.4136C17.2208 13.1152 17.4355 12.8569 17.6059 12.8569C17.6848 12.8569 17.7164 12.9207 17.7164 12.9911C17.7164 13.0179 17.7006 13.4203 17.0506 13.5612L17.104 13.4136ZM17.7542 13.8932C17.5964 14.0307 17.4638 14.1446 17.2934 14.1446C17.1608 14.1446 16.9968 14.0674 16.9968 13.8395C16.9968 13.7723 17.0125 13.7053 17.0283 13.635L17.1167 13.6215C17.628 13.5444 17.9246 13.2727 17.9246 13.0077C17.9246 12.8602 17.8267 12.7796 17.6657 12.7796C17.2208 12.7796 16.722 13.343 16.722 13.8225C16.722 14.0338 16.823 14.2952 17.1544 14.2952C17.4701 14.2952 17.7572 13.9867 17.792 13.9331L17.7542 13.8932ZM18.0098 14.2586L18.2655 13.2795C18.297 13.1554 18.316 13.0414 18.316 13.0113C18.316 12.9644 18.3002 12.9107 18.2024 12.9107C18.1677 12.9107 18.133 12.9207 18.0983 12.9275V12.8704C18.2592 12.8469 18.4455 12.8032 18.5875 12.7798L18.597 12.7866L18.4424 13.4539L18.4486 13.4606L18.4739 13.3934C18.5781 13.1721 18.8179 12.7796 19.0167 12.7796C19.0894 12.7796 19.1682 12.8299 19.1682 12.944C19.1682 13.1184 19.0547 13.1184 19.0199 13.1184C18.8843 13.1184 18.9316 12.9977 18.8559 12.9977C18.758 12.9977 18.5686 13.37 18.5435 13.4203C18.4235 13.6617 18.3794 13.8126 18.2499 14.2586H18.0098Z" fill="black"/>
<path d="M20.4336 13.9111C20.2759 14.1358 20.1654 14.2902 19.995 14.2902C19.8497 14.2902 19.8435 14.1895 19.8435 14.0923C19.8435 14.0119 20.077 13.1935 20.077 13.0594C20.077 12.999 20.0582 12.9521 19.9982 12.9521C19.8468 12.9521 19.6478 13.2406 19.5342 13.4283C19.3891 13.6597 19.348 13.8038 19.2186 14.2599H18.9819C19.0798 13.881 19.2912 13.0961 19.2912 13.0257C19.2912 12.9754 19.2597 12.9385 19.0891 12.9385V12.8848C19.2595 12.8513 19.4301 12.8177 19.6004 12.7808L19.6099 12.7876L19.4078 13.4885L19.4141 13.4953C19.5624 13.2471 19.8528 12.7809 20.1148 12.7809C20.2601 12.7809 20.3325 12.8615 20.3325 13.0024C20.3325 13.1466 20.0801 13.975 20.0801 14.0756C20.0801 14.126 20.1242 14.1326 20.1306 14.1326C20.1938 14.1326 20.2727 14.0253 20.3895 13.8677L20.4336 13.9111Z" fill="black"/>
<path d="M20.6784 13.8923C20.6784 13.5905 20.9625 12.8529 21.3317 12.8529C21.4232 12.8529 21.5117 12.9167 21.5117 13.0776C21.5117 13.4062 21.2024 14.1305 20.8678 14.1305C20.7825 14.1305 20.6784 14.0701 20.6784 13.8923ZM21.824 13.889C21.6819 14.0365 21.6187 14.1204 21.5715 14.1204C21.5462 14.1204 21.5274 14.1004 21.5274 14.0768C21.5274 13.9729 21.8177 12.8293 21.8272 12.7892L21.8051 12.7792L21.6126 12.8026L21.6032 12.8127L21.5717 12.9604H21.5654C21.556 12.8664 21.4518 12.7792 21.3162 12.7792C20.8964 12.7792 20.4136 13.4062 20.4136 13.8991C20.4136 13.9964 20.423 14.2947 20.7386 14.2947C20.9281 14.2947 21.0952 14.1941 21.3571 13.7851L21.3634 13.7917C21.3128 13.9962 21.2971 14.07 21.2971 14.1471C21.2971 14.2041 21.2971 14.2913 21.4298 14.2913C21.5654 14.2913 21.6728 14.1706 21.8622 13.9224L21.824 13.889ZM22.7613 12.93H22.4962L22.2185 14.0465C22.2153 14.0566 22.2153 14.0632 22.2153 14.0734C22.2153 14.1035 22.2311 14.1303 22.2658 14.1303C22.329 14.1303 22.4394 13.9728 22.5183 13.8655L22.5592 13.889C22.3983 14.1471 22.2753 14.2947 22.1111 14.2947C22.048 14.2947 21.9596 14.2612 21.9596 14.1606C21.9596 14.1103 22.0196 13.9058 22.0323 13.8521L22.2594 12.93H22.0259C22.0228 12.9099 22.0228 12.8931 22.0323 12.8762C22.0511 12.846 22.1395 12.8225 22.1932 12.7924C22.2973 12.7353 22.4488 12.5846 22.5372 12.4671C22.5498 12.4505 22.5624 12.4202 22.5909 12.427C22.613 12.4202 22.6192 12.4505 22.613 12.4773L22.5247 12.8227H22.7771L22.7613 12.93ZM23.3673 13.9126C23.2441 14.1104 23.1054 14.2948 22.9286 14.2948C22.7803 14.2948 22.7803 14.1473 22.7803 14.087C22.7803 13.9294 23.0296 13.0979 23.0296 13.0039C23.0296 12.9333 23.0043 12.9167 22.8307 12.9167V12.863C22.9505 12.8563 23.2124 12.8026 23.3356 12.7792L23.3451 12.786L23.0673 13.8657C23.0547 13.9126 23.0168 14.0467 23.0168 14.087C23.0168 14.1104 23.0389 14.1373 23.0673 14.1373C23.1052 14.1373 23.1967 14.0701 23.326 13.8757L23.3673 13.9126ZM23.3041 12.4204C23.2252 12.4204 23.1526 12.3634 23.1526 12.246C23.1526 12.1287 23.2252 12.0649 23.3009 12.0649C23.405 12.0649 23.4586 12.1756 23.4586 12.2494C23.4588 12.3163 23.4082 12.4204 23.3041 12.4204ZM24.3993 12.8495C24.5506 12.8495 24.6202 12.9971 24.6202 13.1715C24.6202 13.5303 24.371 14.2243 24.0112 14.2243C23.8534 14.2243 23.7587 14.1036 23.7587 13.9124C23.7586 13.5169 24.0457 12.8495 24.3993 12.8495ZM24.4214 12.779C23.9606 12.779 23.4935 13.319 23.4935 13.8118C23.4935 14.09 23.6356 14.2945 23.9701 14.2945C24.4529 14.2945 24.8853 13.6877 24.8853 13.2752C24.8852 13.054 24.7874 12.779 24.4214 12.779Z" fill="black"/>
<path d="M26.2613 13.9099C26.1035 14.1346 25.993 14.289 25.8226 14.289C25.6773 14.289 25.6711 14.1884 25.6711 14.0911C25.6711 14.0107 25.9047 13.1924 25.9047 13.0583C25.9047 12.9979 25.8858 12.951 25.8258 12.951C25.6743 12.951 25.4754 13.2395 25.3618 13.4272C25.2166 13.6585 25.1756 13.8027 25.0462 14.2587H24.8096C24.9075 13.8798 25.1188 13.095 25.1188 13.0246C25.1188 12.9743 25.0873 12.9374 24.9168 12.9374V12.8837C25.0872 12.8502 25.2577 12.8166 25.4281 12.7797L25.4375 12.7865L25.2355 13.4873L25.2417 13.4941C25.39 13.246 25.6804 12.7799 25.9424 12.7799C26.0877 12.7799 26.1602 12.8604 26.1602 13.0013C26.1602 13.1455 25.9077 13.9738 25.9077 14.0745C25.9077 14.1248 25.9519 14.1314 25.9583 14.1314C26.0215 14.1314 26.1003 14.0241 26.2171 13.8666L26.2613 13.9099ZM26.5674 13.8931C26.5674 13.5912 26.8515 12.8536 27.2207 12.8536C27.3122 12.8536 27.4006 12.9174 27.4006 13.0783C27.4006 13.4069 27.0913 14.1313 26.7568 14.1313C26.6715 14.1313 26.5674 14.0709 26.5674 13.8931ZM27.713 13.8897C27.5709 14.0373 27.5078 14.1212 27.4605 14.1212C27.4353 14.1212 27.4164 14.1012 27.4164 14.0775C27.4164 13.9737 27.7068 12.83 27.7162 12.7899L27.6941 12.7799L27.5015 12.8033L27.4921 12.8133L27.4605 12.961H27.4543C27.4449 12.8671 27.3407 12.7799 27.205 12.7799C26.7852 12.7799 26.3024 13.4069 26.3024 13.8999C26.3024 13.9971 26.3118 14.2955 26.6275 14.2955C26.8168 14.2955 26.9841 14.1948 27.246 13.7858L27.2522 13.7925C27.2017 13.997 27.186 14.0708 27.186 14.1479C27.186 14.2049 27.186 14.2921 27.3185 14.2921C27.4543 14.2921 27.5615 14.1714 27.7509 13.9232L27.713 13.8897ZM28.4294 13.8763C28.2685 14.1345 28.1454 14.2955 27.9498 14.2955C27.8109 14.2955 27.7983 14.1816 27.7983 14.0876C27.7983 14.0172 28.2558 12.2667 28.2558 12.1963C28.2558 12.1091 28.1232 12.1091 28.0412 12.1125V12.0588C28.2068 12.0384 28.3712 12.0082 28.5336 11.9682L28.5493 11.985L28.0727 13.9266C28.0664 13.9567 28.0412 14.0473 28.0412 14.0842C28.0412 14.1042 28.0411 14.1513 28.0885 14.1513C28.1674 14.1513 28.2336 14.0575 28.3883 13.8462L28.4294 13.8763ZM28.872 12.0438H28.9044C28.9345 12.0438 28.9589 12.0597 28.9589 12.1075C28.9589 12.152 28.9439 12.1838 28.9052 12.1838H28.872V12.0438ZM28.7837 12.0404C28.8224 12.0446 28.8216 12.0438 28.8216 12.0807V12.281C28.8216 12.317 28.8224 12.317 28.7837 12.3213V12.3338H28.9099V12.3213C28.8706 12.3171 28.872 12.3171 28.872 12.281V12.1989H28.9091C28.9588 12.2769 28.9785 12.3338 29.0038 12.3338H29.0535V12.3262C29.0384 12.3145 29.0148 12.2861 28.9943 12.2559L28.9493 12.1904C28.9849 12.1779 29.0116 12.146 29.0116 12.1034C29.0116 12.0514 28.9682 12.0279 28.9217 12.0279H28.7836V12.0404H28.7837ZM29.1766 12.1855C29.1766 12.027 29.0607 11.898 28.9107 11.898C28.8752 11.8978 28.84 11.9052 28.8072 11.9197C28.7744 11.9341 28.7447 11.9553 28.7197 11.982C28.6946 12.0088 28.6749 12.0405 28.6615 12.0755C28.6481 12.1104 28.6413 12.1478 28.6417 12.1855C28.6417 12.3438 28.7593 12.4713 28.9107 12.4713C29.0607 12.4713 29.1766 12.3438 29.1766 12.1855ZM29.1332 12.1855C29.1332 12.3187 29.0346 12.4361 28.9107 12.4361C28.7844 12.4361 28.6851 12.3187 28.6851 12.1855C28.6851 12.0521 28.7837 11.9331 28.9107 11.9331C29.0354 11.9331 29.1332 12.0514 29.1332 12.1855Z" fill="black"/>
<path d="M9.77209 15.142C11.5775 15.1514 13.0579 13.5783 13.0453 11.6642C13.0578 9.69786 11.5775 8.12487 9.77209 8.12549H6.15447C4.32743 8.12503 2.84697 9.69786 2.82373 11.6642C2.84697 13.5783 4.32743 15.1513 6.15432 15.142H9.77209Z" fill="#2D4F9E"/>
<path d="M3.0542 11.6648C3.07221 9.83016 4.45199 8.36396 6.15511 8.37014C7.85633 8.36396 9.23626 9.83016 9.25587 11.6649C9.23626 13.4474 7.85633 14.9136 6.15511 14.8986C4.45199 14.9136 3.07221 13.4472 3.0542 11.6648Z" fill="white"/>
<path d="M5.46494 9.71191C4.7513 10.0541 4.2159 10.7856 4.20166 11.6643C4.2159 12.5099 4.72574 13.2547 5.46494 13.5557V9.71191ZM6.84312 13.5558C7.58058 13.2549 8.09028 12.5099 8.1064 11.6644C8.09028 10.7668 7.58043 10.0218 6.84312 9.71207V13.5558Z" fill="#2D4F9E"/>
</svg>
