<svg width="100%" height="100%" viewBox="0 0 32 24" fill="none" xmlns="http://www.w3.org/2000/svg">
<rect width="32" height="24" rx="4" fill="#1F72CD"/>
<path fill-rule="evenodd" clip-rule="evenodd" d="M5.73617 8.5L2.74219 15.7467H6.32641L6.77075 14.5913H7.78641L8.23075 15.7467H12.176V14.8649L12.5275 15.7467H14.5683L14.9198 14.8462V15.7467H23.1248L24.1225 14.6213L25.0567 15.7467L29.271 15.7561L26.2675 12.1436L29.271 8.5H25.1221L24.1509 9.60463L23.2461 8.5H14.3201L13.5537 10.3704L12.7692 8.5H9.19248V9.35186L8.79459 8.5H5.73617ZM6.42968 9.52905H8.1768L10.1627 14.4431V9.52905H12.0766L13.6105 13.0524L15.0241 9.52905H16.9285V14.7291H15.7697L15.7603 10.6544L14.0709 14.7291H13.0344L11.3356 10.6544V14.7291H8.95179L8.49987 13.5633H6.05829L5.6073 14.728H4.33009L6.42968 9.52905ZM22.7003 9.52905H17.9886V14.726H22.6274L24.1225 13.0036L25.5636 14.726H27.0701L24.8805 12.1426L27.0701 9.52905H25.629L24.1414 11.2316L22.7003 9.52905ZM7.27959 10.4089L6.47518 12.4856H8.08305L7.27959 10.4089ZM19.1522 11.555V10.6057V10.6048H22.0921L23.375 12.1229L22.0353 13.6493H19.1522V12.613H21.7226V11.555H19.1522Z" fill="white"/>
</svg>
