<svg width="100%" height="100%" viewBox="0 0 32 24" fill="none" xmlns="http://www.w3.org/2000/svg">
<rect x="0.5" y="0.5" width="31" height="23" rx="3.5" fill="white" stroke="#D9D9D9"/>
<path d="M20.6886 11.9542C21.1886 11.9658 21.6915 11.9308 22.1895 11.9724C22.6938 12.0724 22.8154 12.8836 22.3673 13.1493C22.0616 13.3243 21.6984 13.2145 21.367 13.2454H20.6886V11.9542ZM22.4786 10.4928C22.5897 10.9095 22.2117 11.2835 21.8341 11.2262H20.6886C20.6967 10.8333 20.6729 10.4068 20.7003 10.0346C21.1591 10.0484 21.6222 10.0066 22.0784 10.0564C22.2744 10.1088 22.4385 10.28 22.4786 10.4928ZM25.2352 4.31448C25.2566 5.11012 25.2383 5.94781 25.2444 6.75959C25.243 10.06 25.2474 13.3603 25.242 16.6609C25.2219 17.8978 24.1902 18.9726 23.0341 18.9972C21.8769 19.0022 20.7195 18.998 19.5621 18.9994V14.0099C20.8232 14.003 22.0848 14.0239 23.3453 13.9994C23.93 13.9604 24.5705 13.5505 24.5977 12.8668C24.6666 12.1801 24.0573 11.7051 23.4788 11.6301C23.2564 11.624 23.2629 11.5613 23.4788 11.5339C24.0305 11.4072 24.4638 10.8004 24.3015 10.1928C24.1631 9.55368 23.4983 9.30631 22.9453 9.30754C21.8178 9.2994 20.69 9.30641 19.5624 9.30404C19.5697 8.37256 19.5472 7.44008 19.5745 6.50928C19.6639 5.2947 20.7215 4.29307 21.8614 4.3148C22.9861 4.31462 24.1107 4.31462 25.2352 4.31457V4.31448Z" fill="url(#paint0_linear_866_3248)"/>
<path d="M6.82003 6.63481C6.84883 5.39987 7.88495 4.33391 9.03954 4.31586C10.1925 4.31208 11.3456 4.31531 12.4985 4.31422C12.4953 8.44608 12.5048 12.5784 12.4938 16.71C12.4493 17.93 11.4245 18.9756 10.2825 18.9972C9.12739 19.0017 7.97215 18.9978 6.81699 18.9991V13.8414C7.93903 14.123 9.11566 14.2429 10.2603 14.0561C10.9446 13.9391 11.6932 13.5821 11.9248 12.8279C12.0953 12.1827 11.9993 11.5037 12.0247 10.8416V9.30378H10.0437C10.0348 10.3208 10.062 11.3396 10.0294 12.3555C9.97601 12.9798 9.39405 13.3765 8.83981 13.3554C8.15246 13.3631 6.79038 12.8261 6.79038 12.8261C6.78696 10.9206 6.81032 8.53419 6.82003 6.63499V6.63481Z" fill="url(#paint1_linear_866_3248)"/>
<path d="M13.2373 9.92427C13.133 9.94778 13.2163 9.54689 13.1897 9.39482C13.1968 8.43328 13.1748 7.4707 13.2018 6.50985C13.2908 5.29014 14.3567 4.28601 15.5011 4.31456H18.8714C18.8683 8.44642 18.8776 12.5787 18.8667 16.7104C18.8222 17.9303 17.7973 18.9759 16.6553 18.9976C15.5001 19.0022 14.3448 18.9983 13.1896 18.9995V13.3485C13.9786 14.0363 15.0509 14.1433 16.0338 14.1452C16.7748 14.1449 17.5115 14.0235 18.2311 13.842V12.8067C17.4201 13.2361 16.4668 13.5089 15.5679 13.2622C14.9407 13.0963 14.4855 12.4524 14.4957 11.7648C14.423 11.0497 14.8175 10.2947 15.4789 10.0822C16.3 9.80903 17.195 10.0179 17.9647 10.373C18.1296 10.4648 18.297 10.5786 18.2311 10.2857V9.47197C16.9437 9.14654 15.5738 9.0268 14.2804 9.38081C13.9061 9.49301 13.5414 9.66318 13.2373 9.92436V9.92427Z" fill="url(#paint2_linear_866_3248)"/>
<defs>
<linearGradient id="paint0_linear_866_3248" x1="19.5234" y1="11.343" x2="25.2086" y2="11.343" gradientUnits="userSpaceOnUse">
<stop stop-color="#58B03A"/>
<stop offset="1" stop-color="#55B330"/>
</linearGradient>
<linearGradient id="paint1_linear_866_3248" x1="6.69611" y1="11.7973" x2="12.4054" y2="11.7973" gradientUnits="userSpaceOnUse">
<stop stop-color="#0F6EB6"/>
<stop offset="1" stop-color="#006DBA"/>
</linearGradient>
<linearGradient id="paint2_linear_866_3248" x1="13.1813" y1="11.4853" x2="18.8704" y2="11.4853" gradientUnits="userSpaceOnUse">
<stop stop-color="#DE0D3D"/>
<stop offset="1" stop-color="#E30138"/>
</linearGradient>
</defs>
</svg>
