<svg width="100%" height="100%" viewBox="0 0 32 24" fill="none" xmlns="http://www.w3.org/2000/svg">
<rect x="0.5" y="0.5" width="31" height="23" rx="3.5" fill="white" stroke="#D9D9D9"/>
<path fill-rule="evenodd" clip-rule="evenodd" d="M10.1178 15.8583H8.17923L6.72554 9.79247C6.65654 9.51344 6.51003 9.26676 6.29453 9.1505C5.75672 8.85833 5.16409 8.6258 4.51758 8.50853V8.27499H7.64048C8.07148 8.27499 8.39474 8.6258 8.44861 9.03323L9.20287 13.4087L11.1405 8.27499H13.0252L10.1178 15.8583ZM14.1028 15.8583H12.2719L13.7795 8.27499H15.6103L14.1028 15.8583ZM17.9789 10.3758C18.0328 9.96738 18.356 9.73384 18.7332 9.73384C19.3258 9.6752 19.9714 9.79248 20.5101 10.0836L20.8334 8.45091C20.2946 8.21737 19.702 8.1001 19.1642 8.1001C17.3872 8.1001 16.0942 9.1505 16.0942 10.6083C16.0942 11.7174 17.0101 12.2997 17.6566 12.6505C18.356 13.0003 18.6254 13.2338 18.5715 13.5836C18.5715 14.1083 18.0328 14.3419 17.495 14.3419C16.8485 14.3419 16.2019 14.167 15.6103 13.8748L15.287 15.5086C15.9335 15.7997 16.6329 15.917 17.2795 15.917C19.2719 15.9746 20.5101 14.9252 20.5101 13.3501C20.5101 11.3666 17.9789 11.2503 17.9789 10.3758ZM26.9175 15.8583L25.4638 8.27499H23.9024C23.5791 8.27499 23.2559 8.50853 23.1481 8.85833L20.4562 15.8583H22.3409L22.7171 14.7503H25.0328L25.2483 15.8583H26.9175ZM24.1719 10.3172L24.7097 13.1752H23.2021L24.1719 10.3172Z" fill="#172B85"/>
</svg>
