<svg width="100%" height="100%" viewBox="0 0 32 24" fill="none" xmlns="http://www.w3.org/2000/svg">
<rect x="0.5" y="0.5" width="31" height="23" rx="3.5" fill="white" stroke="#D9D9D9"/>
<path d="M12 23L31 17.25V20C31 21.6569 29.6569 23 28 23H12Z" fill="#FD6020"/>
<path fill-rule="evenodd" clip-rule="evenodd" d="M27.6648 9.11084C28.6486 9.11084 29.1897 9.59438 29.1897 10.5077C29.2389 11.2062 28.7962 11.7972 28.2059 11.9046L29.534 13.8925H28.501L27.3696 11.9584H27.2713V13.8925H26.435V9.11084H27.6648ZM27.2713 11.3137H27.5172C28.0583 11.3137 28.3043 11.045 28.3043 10.5615C28.3043 10.1317 28.0583 9.86304 27.5172 9.86304H27.2713V11.3137ZM23.5328 13.8925H25.894V13.0866H24.3691V11.7972H25.8448V10.9913H24.3691V9.91674H25.894V9.11084H23.5328V13.8925ZM21.0733 12.3345L19.9419 9.11084H19.0565L20.8765 14H21.3193L23.1393 9.11084H22.2539L21.0733 12.3345ZM11.0877 11.5286C11.0877 12.8717 12.0715 14 13.3012 14C13.6947 14 14.0391 13.8925 14.3834 13.7314V12.6568C14.1375 12.9792 13.7931 13.1941 13.3996 13.1941C12.6126 13.1941 11.9731 12.5494 11.9731 11.6897V11.5823C11.9239 10.7227 12.5634 9.97048 13.3504 9.91675C13.7439 9.91675 14.1375 10.1317 14.3834 10.454V9.37948C14.0883 9.16458 13.6947 9.11085 13.3504 9.11085C12.0715 9.0034 11.0877 10.1317 11.0877 11.5286ZM9.56283 10.9376C9.07093 10.7227 8.92335 10.6152 8.92335 10.3466C8.97255 10.0242 9.2185 9.75557 9.51364 9.8093C9.75959 9.8093 10.0055 9.97048 10.2023 10.1854L10.645 9.54066C10.3007 9.2183 9.85797 9.00339 9.41526 9.00339C8.72659 8.94967 8.13631 9.54066 8.08712 10.2928V10.3466C8.08712 10.9913 8.33307 11.3674 9.12012 11.636C9.31688 11.6897 9.51364 11.7972 9.7104 11.9046C9.85797 12.0121 9.95635 12.1733 9.95635 12.3882C9.95635 12.7643 9.66121 13.0866 9.36607 13.0866H9.31688C8.92336 13.0866 8.57902 12.818 8.43145 12.4419L7.89036 13.0329C8.1855 13.6239 8.77578 13.9463 9.36607 13.9463C10.1531 14 10.7926 13.3553 10.8418 12.4956V12.3345C10.7926 11.6897 10.5466 11.3674 9.56283 10.9376ZM6.70977 13.8925H7.546V9.11084H6.70977V13.8925ZM2.82373 9.11086H4.05349H4.29944C5.48001 9.16458 6.41462 10.2391 6.36543 11.5286C6.36543 12.227 6.07029 12.8717 5.57839 13.3553C5.13568 13.7314 4.59458 13.9463 4.05349 13.8926H2.82373V9.11086ZM3.90591 13.0866C4.29943 13.1404 4.74214 12.9792 5.03729 12.7105C5.33243 12.3882 5.48 11.9584 5.48 11.4748C5.48 11.045 5.33243 10.6152 5.03729 10.2928C4.74214 10.0242 4.29943 9.86302 3.90591 9.91674H3.65996V13.0866H3.90591Z" fill="black"/>
<path fill-rule="evenodd" clip-rule="evenodd" d="M16.8921 9C15.6624 9 14.6294 10.0745 14.6294 11.4714C14.6294 12.8146 15.6132 13.9429 16.8921 13.9966C18.1711 14.0503 19.1549 12.9221 19.2041 11.5252C19.1549 10.1283 18.1711 9 16.8921 9V9Z" fill="#FD6020"/>
</svg>
