<svg width="100%" height="100%" viewBox="0 0 21 21" fill="none" xmlns="http://www.w3.org/2000/svg">
<path d="M7.72471 10.2512C8.37302 11.5766 9.44739 12.6461 10.7758 13.2884C10.8729 13.3344 10.9804 13.3544 11.0877 13.3463C11.1949 13.3381 11.2982 13.3022 11.3874 13.2421L13.3433 11.9378C13.4298 11.8802 13.5293 11.845 13.6328 11.8355C13.7364 11.8259 13.8407 11.8424 13.9362 11.8834L17.5954 13.4516C17.7197 13.5044 17.8234 13.5961 17.8911 13.713C17.9587 13.83 17.9865 13.9657 17.9702 14.0998C17.8546 15.0048 17.413 15.8366 16.7282 16.4395C16.0434 17.0423 15.1624 17.3749 14.25 17.375C11.4321 17.375 8.72956 16.2556 6.73699 14.263C4.74442 12.2704 3.625 9.56791 3.625 6.74999C3.62505 5.83762 3.95765 4.95656 4.56053 4.27176C5.16341 3.58697 5.99523 3.14541 6.90023 3.02975C7.03431 3.01353 7.17002 3.04131 7.28693 3.10892C7.40384 3.17654 7.49561 3.28031 7.54841 3.40461L9.11798 7.06695C9.15858 7.16168 9.17512 7.26497 9.16614 7.36764C9.15715 7.47031 9.12291 7.56917 9.06647 7.6554L7.76676 9.64132C7.7076 9.73066 7.67263 9.83381 7.66526 9.9407C7.65789 10.0476 7.67837 10.1546 7.72471 10.2512V10.2512Z" stroke="currentColor" stroke-opacity="0.96" stroke-width="1.5" stroke-linecap="round" stroke-linejoin="round"/>
</svg>
