<svg width="100%" height="100%" viewBox="0 0 29 28" fill="currentColor" xmlns="http://www.w3.org/2000/svg">
<g id="Icon / Phone" clip-path="url(#clip0_4274_72)">
<path id="Vector" d="M24.5312 17.325L19.4016 15.1375C19.1369 15.0189 18.8463 14.9697 18.5574 14.9946C18.2684 15.0194 17.9905 15.1176 17.75 15.2797L15.0047 17.1063C13.3315 16.2936 11.9768 14.9466 11.1547 13.2781L12.9703 10.5C13.1314 10.2592 13.2297 9.98208 13.2565 9.69366C13.2832 9.40524 13.2375 9.11471 13.1234 8.84845L10.925 3.71876C10.7716 3.37238 10.5118 3.08388 10.1834 2.89508C9.85499 2.70628 9.47496 2.62701 9.09844 2.66876C7.62143 2.86225 6.26494 3.58551 5.28117 4.70407C4.29739 5.82264 3.75328 7.26039 3.75 8.75001C3.75 17.4344 10.8156 24.5 19.5 24.5C20.9896 24.4967 22.4274 23.9526 23.5459 22.9688C24.6645 21.9851 25.3878 20.6286 25.5813 19.1516C25.623 18.7751 25.5437 18.395 25.3549 18.0666C25.1661 17.7382 24.8776 17.4784 24.5312 17.325Z" fill="#1CB78D"/>
</g>
<defs>
<clipPath id="clip0_4274_72">
<rect width="28" height="28" fill="white" transform="translate(0.25)"/>
</clipPath>
</defs>
</svg>
