<svg width="100%" height="100%" viewBox="0 0 20 20" fill="none" xmlns="http://www.w3.org/2000/svg">
<path d="M10.5454 1.79483L10.5455 1.79489L18.7058 9.95522C18.8161 10.0655 18.9036 10.1964 18.9632 10.3405C19.0229 10.4846 19.0536 10.639 19.0536 10.795C19.0536 10.9509 19.0229 11.1054 18.9632 11.2494C18.9035 11.3935 18.816 11.5244 18.7057 11.6347L18.7499 11.6789L18.7057 11.6347L11.6347 18.7057C11.5245 18.816 11.3935 18.9035 11.2494 18.9632C11.1054 19.0228 10.9509 19.0535 10.795 19.0535C10.639 19.0535 10.4846 19.0228 10.3405 18.9631C10.1964 18.9034 10.0655 18.8159 9.95524 18.7056L9.91104 18.7498L9.95524 18.7056L1.79499 10.5454L1.79495 10.5453C1.65655 10.4072 1.55447 10.237 1.4978 10.0499C1.44114 9.86276 1.43166 9.66451 1.4702 9.47283L1.47021 9.47276L2.73043 3.17159C2.73043 3.17158 2.73043 3.17158 2.73043 3.17157C2.75224 3.06269 2.80577 2.9627 2.88428 2.88419C2.9628 2.80567 3.06279 2.75214 3.17167 2.73033C3.17167 2.73033 3.17168 2.73033 3.17168 2.73033L9.47286 1.47011L9.47295 1.47009C9.66463 1.43149 9.86288 1.44094 10.05 1.4976C10.2372 1.55426 10.4074 1.65638 10.5454 1.79483ZM6.00647 7.39388C6.17092 7.50376 6.36426 7.56241 6.56205 7.56241C6.82726 7.56241 7.08162 7.45705 7.26915 7.26951C7.45669 7.08198 7.56205 6.82762 7.56205 6.56241C7.56205 6.36462 7.5034 6.17128 7.39351 6.00684C7.28363 5.84239 7.12745 5.71421 6.94473 5.63853C6.762 5.56284 6.56094 5.54304 6.36695 5.58162C6.17297 5.62021 5.99479 5.71545 5.85494 5.8553C5.71509 5.99515 5.61984 6.17333 5.58126 6.36731C5.54267 6.5613 5.56248 6.76236 5.63816 6.94509C5.71385 7.12781 5.84202 7.28399 6.00647 7.39388Z" fill="currentColor" stroke="currentColor" stroke-width="0.125"/>
</svg>
