<svg width="100%" height="100%" viewBox="0 0 64 64" fill="none" xmlns="http://www.w3.org/2000/svg">
<rect width="64" height="64" rx="6" fill="#052C47"/>
<path d="M31.625 11.875H14.375C13.2327 11.8797 12.1386 12.3356 11.3308 13.1433C10.5231 13.9511 10.0672 15.0452 10.0625 16.1875V47.8125C10.0672 48.9548 10.5231 50.0489 11.3308 50.8567C12.1386 51.6644 13.2327 52.1203 14.375 52.125H31.625C32.7673 52.1203 33.8614 51.6644 34.6692 50.8567C35.4769 50.0489 35.9328 48.9548 35.9375 47.8125V16.1875C35.9328 15.0452 35.4769 13.9511 34.6692 13.1433C33.8614 12.3356 32.7673 11.8797 31.625 11.875ZM14.375 14.75H31.625C32.0062 14.75 32.3719 14.9015 32.6415 15.171C32.9111 15.4406 33.0625 15.8063 33.0625 16.1875V17.625H12.9375V16.1875C12.9375 15.8063 13.089 15.4406 13.3585 15.171C13.6281 14.9015 13.9938 14.75 14.375 14.75ZM31.625 49.25H14.375C13.9938 49.25 13.6281 49.0986 13.3585 48.829C13.089 48.5594 12.9375 48.1937 12.9375 47.8125V46.375H33.0625V47.8125C33.0625 48.1937 32.9111 48.5594 32.6415 48.829C32.3719 49.0986 32.0062 49.25 31.625 49.25Z" fill="#1CB78D"/>
<path fill-rule="evenodd" clip-rule="evenodd" d="M13 44C13 43.4477 13.2442 43 13.5455 43L32.4545 43C32.7558 43 33 43.4477 33 44C33 44.5523 32.7558 45 32.4545 45L13.5455 45C13.2442 45 13 44.5523 13 44Z" fill="#8DDBC6"/>
<path fill-rule="evenodd" clip-rule="evenodd" d="M13 40C13 39.4477 13.2442 39 13.5455 39L32.4545 39C32.7558 39 33 39.4477 33 40C33 40.5523 32.7558 41 32.4545 41L13.5455 41C13.2442 41 13 40.5523 13 40Z" fill="#8DDBC6"/>
<path fill-rule="evenodd" clip-rule="evenodd" d="M13 36C13 35.4477 13.2442 35 13.5455 35L32.4545 35C32.7558 35 33 35.4477 33 36C33 36.5523 32.7558 37 32.4545 37L13.5455 37C13.2442 37 13 36.5523 13 36Z" fill="#8DDBC6"/>
<path fill-rule="evenodd" clip-rule="evenodd" d="M13 32C13 31.4477 13.2442 31 13.5455 31L32.4545 31C32.7558 31 33 31.4477 33 32C33 32.5523 32.7558 33 32.4545 33L13.5455 33C13.2442 33 13 32.5523 13 32Z" fill="#8DDBC6"/>
<path d="M53.75 21.375H28.25C27.6864 21.375 27.1459 21.5989 26.7474 21.9974C26.3489 22.3959 26.125 22.9364 26.125 23.5V27.8695V40.4867C26.125 41.0503 26.3489 41.5908 26.7474 41.9893C27.1459 42.3878 27.6864 42.6117 28.25 42.6117H53.75C54.3136 42.6117 54.8541 42.3878 55.2526 41.9893C55.6511 41.5908 55.875 41.0503 55.875 40.4867V23.5C55.875 22.9364 55.6511 22.3959 55.2526 21.9974C54.8541 21.5989 54.3136 21.375 53.75 21.375ZM42.0625 38.375H39.9375C39.6557 38.375 39.3855 38.2631 39.1862 38.0638C38.9869 37.8645 38.875 37.5943 38.875 37.3125C38.875 37.0307 38.9869 36.7605 39.1862 36.5612C39.3855 36.3619 39.6557 36.25 39.9375 36.25H42.0625C42.3443 36.25 42.6145 36.3619 42.8138 36.5612C43.0131 36.7605 43.125 37.0307 43.125 37.3125C43.125 37.5943 43.0131 37.8645 42.8138 38.0638C42.6145 38.2631 42.3443 38.375 42.0625 38.375ZM50.5625 38.375H46.3125C46.0307 38.375 45.7605 38.2631 45.5612 38.0638C45.3619 37.8645 45.25 37.5943 45.25 37.3125C45.25 37.0307 45.3619 36.7605 45.5612 36.5612C45.7605 36.3619 46.0307 36.25 46.3125 36.25H50.5625C50.8443 36.25 51.1145 36.3619 51.3138 36.5612C51.5131 36.7605 51.625 37.0307 51.625 37.3125C51.625 37.5943 51.5131 37.8645 51.3138 38.0638C51.1145 38.2631 50.8443 38.375 50.5625 38.375ZM28.25 26.807V23.5H53.75V26.807H28.25Z" fill="white"/>
<path d="M28.25 23.5V26.807H53.75V23.5H28.25Z" fill="#1CB78D"/>
<path d="M39.9375 38.375H42.0625C42.3443 38.375 42.6145 38.2631 42.8138 38.0638C43.0131 37.8645 43.125 37.5943 43.125 37.3125C43.125 37.0307 43.0131 36.7605 42.8138 36.5612C42.6145 36.3619 42.3443 36.25 42.0625 36.25H39.9375C39.6557 36.25 39.3855 36.3619 39.1862 36.5612C38.9869 36.7605 38.875 37.0307 38.875 37.3125C38.875 37.5943 38.9869 37.8645 39.1862 38.0638C39.3855 38.2631 39.6557 38.375 39.9375 38.375Z" fill="#1CB78D"/>
<path d="M46.3125 38.375H50.5625C50.8443 38.375 51.1145 38.2631 51.3138 38.0638C51.5131 37.8645 51.625 37.5943 51.625 37.3125C51.625 37.0307 51.5131 36.7605 51.3138 36.5612C51.1145 36.3619 50.8443 36.25 50.5625 36.25H46.3125C46.0307 36.25 45.7605 36.3619 45.5612 36.5612C45.3619 36.7605 45.25 37.0307 45.25 37.3125C45.25 37.5943 45.3619 37.8645 45.5612 38.0638C45.7605 38.2631 46.0307 38.375 46.3125 38.375Z" fill="#1CB78D"/>
</svg>
