<svg width="100%" height="100%" viewBox="0 0 20 20" fill="none" xmlns="http://www.w3.org/2000/svg">
<g id="Icon / Send" clip-path="url(#clip0_5028_17491)">
<path id="Vector" d="M17.4758 3.29452C17.506 3.18761 17.5071 3.0746 17.479 2.96713C17.451 2.85966 17.3948 2.7616 17.3162 2.68306C17.2377 2.60452 17.1396 2.54832 17.0321 2.52027C16.9247 2.49221 16.8117 2.4933 16.7048 2.52343L1.70475 7.07187C1.58229 7.10643 1.4733 7.17755 1.39234 7.27571C1.31138 7.37388 1.26231 7.49442 1.25169 7.62123C1.24107 7.74803 1.26942 7.87505 1.33293 7.98531C1.39643 8.09558 1.49209 8.18383 1.6071 8.23827L8.29616 11.4055C8.42639 11.4672 8.53127 11.5721 8.59304 11.7023L11.761 18.3906C11.8154 18.5056 11.9037 18.6013 12.014 18.6648C12.1242 18.7283 12.2512 18.7566 12.3781 18.746C12.5049 18.7354 12.6254 18.6863 12.7236 18.6054C12.8217 18.5244 12.8928 18.4154 12.9274 18.293L17.4758 3.29452Z" stroke="currentColor" stroke-width="1.5" stroke-linecap="round" stroke-linejoin="round"/>
<path id="Vector_2" d="M8.47021 11.5297L12.4999 7.5" stroke="currentColor" stroke-width="1.5" stroke-linecap="round" stroke-linejoin="round"/>
</g>
<defs>
<clipPath id="clip0_5028_17491">
<rect width="20" height="20" fill="currentColor"/>
</clipPath>
</defs>
</svg>
