<svg width="100%" height="100%" viewBox="0 0 20 21" fill="none" xmlns="http://www.w3.org/2000/svg">
<path d="M10 14.0087C12.0711 14.0087 13.75 12.3297 13.75 10.2587C13.75 8.1876 12.0711 6.50867 10 6.50867C7.92893 6.50867 6.25 8.1876 6.25 10.2587C6.25 12.3297 7.92893 14.0087 10 14.0087Z" stroke="currentColor" stroke-opacity="0.96" stroke-width="1.5" stroke-linecap="round" stroke-linejoin="round"/>
<path d="M15.4236 6.5594C15.6085 6.83081 15.7727 7.11573 15.9148 7.41174L17.9419 8.53701C18.1888 9.67097 18.1896 10.8447 17.9444 11.979L15.9162 13.1049C15.7736 13.4007 15.6089 13.6854 15.4237 13.9565L15.4627 16.2746C14.6041 17.0554 13.588 17.643 12.4831 17.9977L10.4939 16.8042C10.1664 16.8286 9.8376 16.8283 9.51016 16.8034L7.52213 17.9963C6.41664 17.6431 5.39974 17.057 4.54002 16.2775L4.57906 13.9581C4.39421 13.6866 4.23001 13.4017 4.08786 13.1057L2.06081 11.9804C1.81391 10.8465 1.81306 9.67276 2.05832 8.53844L4.0865 7.41255C4.22912 7.11676 4.39377 6.8321 4.57905 6.56098L4.54003 4.24287C5.39862 3.46207 6.41467 2.87447 7.51965 2.51971L9.50878 3.71322C9.83626 3.68884 10.1651 3.6891 10.4925 3.714L12.4806 2.52115C13.5861 2.87431 14.603 3.46044 15.4627 4.24L15.4236 6.5594Z" stroke="currentColor" stroke-opacity="0.96" stroke-width="1.5" stroke-linecap="round" stroke-linejoin="round"/>
</svg>
