<svg width="100%" height="100%" viewBox="0 0 29 28" fill="currentColor" xmlns="http://www.w3.org/2000/svg">
<g id="Icon / Setting" clip-path="url(#clip0_4274_48)">
<path id="Vector" d="M25.8322 12.2266L23.2267 11.4489C23.0465 10.8199 22.7988 10.2123 22.4878 9.63664L23.7633 7.24887C23.8112 7.15874 23.8287 7.05557 23.8133 6.9547C23.7979 6.85382 23.7504 6.76059 23.6778 6.68887L21.8189 4.8222C21.7472 4.74961 21.6539 4.70208 21.5531 4.68667C21.4522 4.67126 21.349 4.68878 21.2589 4.73664L18.8867 6.00442C18.3054 5.67827 17.6898 5.41742 17.0511 5.22664L16.2733 2.6522C16.2404 2.55732 16.1783 2.47533 16.0958 2.41803C16.0134 2.36072 15.9148 2.33106 15.8144 2.33331H13.1856C13.0846 2.33378 12.9863 2.36647 12.9052 2.42662C12.8241 2.48677 12.7642 2.57125 12.7344 2.66775L11.9567 5.23442C11.3127 5.42418 10.6918 5.68505 10.1056 6.0122L7.77222 4.7522C7.68209 4.70434 7.57893 4.68681 7.47805 4.70222C7.37717 4.71764 7.28395 4.76516 7.21222 4.83775L5.32222 6.68109C5.24963 6.75282 5.2021 6.84604 5.18669 6.94692C5.17128 7.0478 5.1888 7.15096 5.23666 7.24109L6.49666 9.57442C6.17004 10.1582 5.90919 10.7764 5.71889 11.4178L3.14444 12.1955C3.04794 12.2253 2.96346 12.2852 2.90331 12.3663C2.84316 12.4474 2.81047 12.5456 2.81 12.6466V15.2755C2.81047 15.3765 2.84316 15.4747 2.90331 15.5559C2.96346 15.637 3.04794 15.6968 3.14444 15.7266L5.73444 16.5044C5.92682 17.1351 6.18763 17.7427 6.51222 18.3166L5.23666 20.7589C5.1888 20.849 5.17128 20.9522 5.18669 21.053C5.2021 21.1539 5.24963 21.2471 5.32222 21.3189L7.18111 23.1778C7.25284 23.2503 7.34606 23.2979 7.44694 23.3133C7.54782 23.3287 7.65098 23.3112 7.74111 23.2633L10.1444 21.98C10.713 22.2868 11.3127 22.5319 11.9333 22.7111L12.7111 25.3322C12.7409 25.4287 12.8007 25.5132 12.8819 25.5733C12.963 25.6335 13.0612 25.6662 13.1622 25.6666H15.7911C15.8921 25.6662 15.9903 25.6335 16.0715 25.5733C16.1526 25.5132 16.2124 25.4287 16.2422 25.3322L17.02 22.7033C17.6354 22.5231 18.2298 22.2781 18.7933 21.9722L21.2122 23.2633C21.3024 23.3112 21.4055 23.3287 21.5064 23.3133C21.6073 23.2979 21.7005 23.2503 21.7722 23.1778L23.6311 21.3189C23.7037 21.2471 23.7512 21.1539 23.7666 21.053C23.7821 20.9522 23.7645 20.849 23.7167 20.7589L22.4256 18.3478C22.7346 17.7821 22.9823 17.185 23.1644 16.5666L25.7856 15.7889C25.8821 15.7591 25.9665 15.6992 26.0267 15.6181C26.0868 15.537 26.1195 15.4388 26.12 15.3378V12.6855C26.1246 12.5888 26.0995 12.493 26.048 12.411C25.9966 12.329 25.9213 12.2646 25.8322 12.2266ZM14.5 18.2778C13.6539 18.2778 12.8269 18.0269 12.1234 17.5568C11.4199 17.0868 10.8716 16.4187 10.5478 15.637C10.2241 14.8553 10.1394 13.9952 10.3044 13.1654C10.4695 12.3356 10.8769 11.5734 11.4752 10.9751C12.0734 10.3769 12.8356 9.96946 13.6654 9.8044C14.4953 9.63934 15.3554 9.72405 16.137 10.0478C16.9187 10.3716 17.5868 10.9199 18.0568 11.6234C18.5269 12.3268 18.7778 13.1539 18.7778 14C18.7778 15.1345 18.3271 16.2226 17.5248 17.0248C16.7226 17.8271 15.6345 18.2778 14.5 18.2778Z" fill="#1CB78D"/>
</g>
<defs>
<clipPath id="clip0_4274_48">
<rect width="28" height="28" fill="white" transform="translate(0.5)"/>
</clipPath>
</defs>
</svg>
