<svg width="100%" height="100%" viewBox="0 0 20 20" fill="none" xmlns="http://www.w3.org/2000/svg">
<path d="M15.1611 12.8299L15.1744 12.8745H15.221H16.8749C17.0241 12.8745 17.1672 12.9338 17.2727 13.0393C17.3782 13.1448 17.4374 13.2878 17.4374 13.437C17.4374 13.5862 17.3782 13.7293 17.2727 13.8348C17.1672 13.9402 17.0241 13.9995 16.8749 13.9995H15.221H15.1744L15.1611 14.0442C15.0304 14.4827 14.7616 14.8673 14.3948 15.1408C14.0279 15.4143 13.5825 15.562 13.1249 15.562C12.6673 15.562 12.222 15.4143 11.8551 15.1408C11.4882 14.8673 11.2195 14.4827 11.0888 14.0442L11.0755 13.9995H11.0289H3.12494C2.97575 13.9995 2.83268 13.9402 2.72719 13.8348C2.6217 13.7293 2.56244 13.5862 2.56244 13.437C2.56244 13.2878 2.6217 13.1448 2.72719 13.0393C2.83268 12.9338 2.97575 12.8745 3.12494 12.8745H11.0289H11.0755L11.0888 12.8299C11.2195 12.3913 11.4882 12.0067 11.8551 11.7332C12.222 11.4597 12.6673 11.312 13.1249 11.312C13.5825 11.312 14.0279 11.4597 14.3948 11.7332C14.7616 12.0067 15.0304 12.3913 15.1611 12.8299Z" fill="currentColor" stroke="currentColor" stroke-width="0.125"/>
<path d="M3.12492 7.18693L6.02889 7.18701C6.16343 7.63844 6.44011 8.03438 6.81778 8.31591C7.19544 8.59743 7.6539 8.74951 8.12496 8.74951C8.59601 8.74951 9.05447 8.59743 9.43214 8.31591C9.8098 8.03438 10.0865 7.63844 10.221 7.18701L16.875 7.18693C17.0407 7.18693 17.1997 7.12109 17.3169 7.00388C17.4341 6.88667 17.5 6.72769 17.5 6.56193C17.5 6.39617 17.4341 6.2372 17.3169 6.11999C17.1997 6.00278 17.0407 5.93693 16.875 5.93693L10.221 5.93701C10.0865 5.48558 9.8098 5.08965 9.43214 4.80812C9.05447 4.52659 8.59601 4.37451 8.12496 4.37451C7.6539 4.37451 7.19544 4.52659 6.81778 4.80812C6.44011 5.08965 6.16343 5.48558 6.02889 5.93701L3.125 5.93693H3.12496C2.9592 5.93693 2.80022 6.00277 2.68301 6.11998C2.5658 6.23719 2.49994 6.39615 2.49994 6.56191C2.49993 6.72768 2.56578 6.88665 2.68298 7.00386C2.80019 7.12108 2.95916 7.18693 3.12492 7.18693H3.12492Z" fill="currentColor"/>
</svg>
