<svg width="24" height="24" viewBox="0 0 24 24" fill="none" xmlns="http://www.w3.org/2000/svg">
<g id="SortAscending">
<path id="Vector" d="M21.2858 12C21.2858 12.1989 21.2067 12.3897 21.0661 12.5303C20.9254 12.671 20.7347 12.75 20.5358 12.75H4.03577C3.83685 12.75 3.64609 12.671 3.50544 12.5303C3.36478 12.3897 3.28577 12.1989 3.28577 12C3.28577 11.8011 3.36478 11.6103 3.50544 11.4697C3.64609 11.329 3.83685 11.25 4.03577 11.25H20.5358C20.7347 11.25 20.9254 11.329 21.0661 11.4697C21.2067 11.6103 21.2858 11.8011 21.2858 12ZM4.03577 6.75H20.5358C20.7347 6.75 20.9254 6.67098 21.0661 6.53033C21.2067 6.38968 21.2858 6.19891 21.2858 6C21.2858 5.80109 21.2067 5.61032 21.0661 5.46967C20.9254 5.32902 20.7347 5.25 20.5358 5.25H4.03577C3.83685 5.25 3.64609 5.32902 3.50544 5.46967C3.36478 5.61032 3.28577 5.80109 3.28577 6C3.28577 6.19891 3.36478 6.38968 3.50544 6.53033C3.64609 6.67098 3.83685 6.75 4.03577 6.75ZM20.5358 17.25H4.03577C3.83685 17.25 3.64609 17.329 3.50544 17.4697C3.36478 17.6103 3.28577 17.8011 3.28577 18C3.28577 18.1989 3.36478 18.3897 3.50544 18.5303C3.64609 18.671 3.83685 18.75 4.03577 18.75H20.5358C20.7347 18.75 20.9254 18.671 21.0661 18.5303C21.2067 18.3897 21.2858 18.1989 21.2858 18C21.2858 17.8011 21.2067 17.6103 21.0661 17.4697C20.9254 17.329 20.7347 17.25 20.5358 17.25Z" fill="currentColor" fill-opacity="0.96"/>
</g>
</svg>
