<svg width="100%" height="100%" viewBox="0 0 24 24" fill="currentColor" xmlns="http://www.w3.org/2000/svg">
<path d="M22.4218 9.13208C22.3282 8.8381 22.1481 8.57916 21.9051 8.38906C21.6621 8.19896 21.3674 8.08652 21.0595 8.06641L15.4917 7.67676L13.4262 2.47583C13.3145 2.1883 13.1184 1.94124 12.8638 1.76702C12.6092 1.59281 12.308 1.49956 11.9995 1.49951H11.998C11.69 1.50006 11.3893 1.59354 11.1353 1.76773C10.8812 1.94192 10.6857 2.18871 10.5742 2.47583L8.47798 7.70678L2.94087 8.06641C2.63299 8.08652 2.33832 8.19896 2.0953 8.38906C1.85229 8.57916 1.67221 8.8381 1.57857 9.13208C1.47978 9.43024 1.47306 9.75123 1.55928 10.0533C1.6455 10.3553 1.82067 10.6244 2.06197 10.8254L6.32173 14.426L5.05464 19.4102C4.96731 19.7459 4.98337 20.1002 5.10072 20.4266C5.21808 20.7531 5.43125 21.0365 5.71236 21.2397C5.98375 21.4372 6.3083 21.5484 6.64376 21.5588C6.97922 21.5693 7.31006 21.4785 7.59321 21.2983L11.9877 18.5144C11.9936 18.51 11.9995 18.5071 12.0126 18.5144L16.7412 21.51C16.9979 21.674 17.2981 21.7567 17.6026 21.7473C17.9071 21.7379 18.2016 21.6368 18.4477 21.4573C18.7024 21.2732 18.8956 21.0164 19.002 20.7207C19.1084 20.425 19.123 20.104 19.0439 19.7998L17.6977 14.355L21.9384 10.8254C22.1797 10.6244 22.3549 10.3553 22.4411 10.0533C22.5273 9.75123 22.5206 9.43024 22.4218 9.13208Z" fill="currentColor"/>
</svg>
