<svg width="100%" height="100%" viewBox="0 0 21 20" fill="none" xmlns="http://www.w3.org/2000/svg">
<path d="M17.375 5.625H3.625C3.27982 5.625 3 5.90482 3 6.25V16.25C3 16.5952 3.27982 16.875 3.625 16.875H17.375C17.7202 16.875 18 16.5952 18 16.25V6.25C18 5.90482 17.7202 5.625 17.375 5.625Z" stroke="currentColor" stroke-width="1.5" stroke-linecap="round" stroke-linejoin="round"/>
<path d="M13.625 16.875V4.375C13.625 4.04348 13.4933 3.72554 13.2589 3.49112C13.0245 3.2567 12.7065 3.125 12.375 3.125H8.625C8.29348 3.125 7.97554 3.2567 7.74112 3.49112C7.5067 3.72554 7.375 4.04348 7.375 4.375V16.875" stroke="currentColor" stroke-width="1.5" stroke-linecap="round" stroke-linejoin="round"/>
</svg>
