<svg width="100%" height="100%" viewBox="0 0 24 24" fill="none" xmlns="http://www.w3.org/2000/svg">
<path d="M8.69934 5.53159L7.98181 3.79932" stroke="currentColor" stroke-width="1.5" stroke-linecap="round" stroke-linejoin="round"/>
<path d="M4.03153 10.1995L2.29926 9.48193" stroke="currentColor" stroke-width="1.5" stroke-linecap="round" stroke-linejoin="round"/>
<path d="M19.9684 10.1995L21.7007 9.48193" stroke="currentColor" stroke-width="1.5" stroke-linecap="round" stroke-linejoin="round"/>
<path d="M15.3007 5.53159L16.0182 3.79932" stroke="currentColor" stroke-width="1.5" stroke-linecap="round" stroke-linejoin="round"/>
<path d="M22.5 15H1.5" stroke="currentColor" stroke-width="1.5" stroke-linecap="round" stroke-linejoin="round"/>
<path d="M19.5 18.75H4.5" stroke="currentColor" stroke-width="1.5" stroke-linecap="round" stroke-linejoin="round"/>
<path d="M6.57722 15.0001C6.34705 14.165 6.31285 13.2881 6.47728 12.4376C6.6417 11.5871 7.00032 10.7862 7.52517 10.0971C8.05002 9.40799 8.72692 8.84942 9.50311 8.46492C10.2793 8.08042 11.1338 7.88037 12 7.88037C12.8662 7.88037 13.7207 8.08042 14.4969 8.46492C15.2731 8.84942 15.95 9.40798 16.4748 10.0971C16.9997 10.7862 17.3583 11.5871 17.5227 12.4376C17.6872 13.288 17.653 14.165 17.4228 15" stroke="currentColor" stroke-width="1.5" stroke-linecap="round" stroke-linejoin="round"/>
</svg>
