<svg width="100%" height="100%" viewBox="0 0 20 20" fill="none" xmlns="http://www.w3.org/2000/svg">
<path d="M12.437 5.6875V5.625V4.37507C12.4361 3.56311 12.1131 2.78467 11.539 2.21053C10.9649 1.6364 10.1864 1.31344 9.37451 1.3125C9.27005 1.31249 9.16764 1.34158 9.07878 1.3965C8.98992 1.45142 8.91812 1.53 8.87141 1.62344L8.87141 1.62345L5.91914 7.52795L5.90186 7.5625H5.86323H2.49958C2.18473 7.56286 1.88288 7.68809 1.66024 7.91073C1.43761 8.13336 1.31238 8.4352 1.31201 8.75004L1.31201 15.6249C1.31237 15.9398 1.43761 16.2416 1.66024 16.4643C1.88288 16.6869 2.18473 16.8121 2.49958 16.8125H15.7709C16.2125 16.8119 16.6388 16.6503 16.9699 16.358C17.3009 16.0658 17.5141 15.6629 17.5696 15.2248L12.437 5.6875ZM12.437 5.6875H12.4995H16.7085C16.9655 5.68755 17.2195 5.74223 17.4538 5.8479C17.688 5.95357 17.8972 6.10783 18.0673 6.30045C18.2373 6.49316 18.3645 6.71979 18.4403 6.96535C18.5161 7.21091 18.5389 7.46978 18.5071 7.72479L17.5696 15.2247L12.437 5.6875ZM2.49951 8.6875H2.43701V8.75V15.625V15.6875H2.49951H5.62451H5.68701V15.625V8.75V8.6875H5.62451H2.49951Z" fill="currentColor" stroke="currentColor" stroke-width="0.125"/>
</svg>
