<svg width="100%" height="100%" viewBox="0 0 21 20" fill="none" xmlns="http://www.w3.org/2000/svg">
<g id="Twitter">
<path id="Vector" d="M19.6922 6.06717L17.3562 8.40311C16.8844 13.8734 12.2711 18.125 6.74998 18.125C5.6156 18.125 4.68045 17.9453 3.97029 17.5906C3.39763 17.3039 3.16326 16.9969 3.10467 16.9094C3.05242 16.831 3.01855 16.7419 3.0056 16.6486C2.99265 16.5553 3.00095 16.4603 3.02987 16.3707C3.05879 16.2811 3.10759 16.1991 3.17263 16.131C3.23767 16.0629 3.31725 16.0104 3.40545 15.9773C3.42576 15.9695 5.2992 15.25 6.48904 13.8805C5.82918 13.3379 5.25316 12.7008 4.77967 11.9898C3.81092 10.5515 2.72654 8.05311 3.06092 4.31952C3.07151 4.20088 3.11579 4.08775 3.18853 3.99343C3.26128 3.89911 3.35946 3.82755 3.47151 3.78716C3.58356 3.74677 3.70482 3.73924 3.82101 3.76546C3.93719 3.79168 4.04347 3.85055 4.12732 3.93514C4.15467 3.96249 6.72732 6.52108 9.87263 7.35077V6.87499C9.87144 6.37608 9.97008 5.88197 10.1627 5.42176C10.3554 4.96155 10.6382 4.54455 10.9945 4.1953C11.3405 3.84977 11.7522 3.57705 12.2054 3.39322C12.6585 3.2094 13.1438 3.11819 13.6328 3.12499C14.2887 3.13146 14.9318 3.30753 15.4995 3.63608C16.0672 3.96464 16.5403 4.4345 16.8726 4.99999H19.25C19.3737 4.99989 19.4946 5.03649 19.5975 5.10516C19.7003 5.17383 19.7805 5.27148 19.8279 5.38574C19.8752 5.50001 19.8876 5.62575 19.8634 5.74705C19.8393 5.86836 19.7797 5.97977 19.6922 6.06717Z" fill="currentColor"/>
</g>
</svg>
