<svg width="100%" height="100%" viewBox="0 0 20 21" fill="none" xmlns="http://www.w3.org/2000/svg">
<path d="M5.00816 12.0624C5.01028 12.1047 5.00377 12.147 4.98901 12.1868C4.97426 12.2265 4.95158 12.2628 4.92235 12.2935C4.89311 12.3242 4.85794 12.3486 4.81897 12.3653C4.78 12.382 4.73805 12.3906 4.69566 12.3905H1.24879C1.10772 12.3907 0.970732 12.3432 0.860095 12.2557C0.749458 12.1682 0.671682 12.0458 0.639413 11.9085C0.61932 11.8145 0.620246 11.7172 0.642125 11.6236C0.664005 11.53 0.706296 11.4424 0.765975 11.3671C1.31739 10.6358 2.04901 10.06 2.88941 9.69597C2.52045 9.35956 2.23746 8.93965 2.06416 8.47139C1.89086 8.00313 1.83228 7.50016 1.89333 7.0046C1.95438 6.50905 2.13329 6.03534 2.41507 5.62314C2.69685 5.21095 3.07329 4.87228 3.51287 4.63549C3.95246 4.3987 4.44238 4.27068 4.94161 4.26217C5.44084 4.25366 5.93484 4.3649 6.38224 4.58656C6.82963 4.80823 7.21741 5.13387 7.51307 5.53622C7.80874 5.93857 8.00369 6.40591 8.0816 6.89909C8.09166 6.96542 8.07978 7.03321 8.04777 7.09216C8.01576 7.1511 7.96536 7.19798 7.90426 7.22566C7.03737 7.62642 6.30321 8.26678 5.7884 9.07119C5.27359 9.87559 4.99961 10.8105 4.99879 11.7655C4.99879 11.8655 4.99879 11.9639 5.00816 12.0624ZM19.2269 11.3663C18.6768 10.6359 17.9468 10.0604 17.1082 9.69597C17.4771 9.35956 17.7601 8.93965 17.9334 8.47139C18.1067 8.00313 18.1653 7.50016 18.1042 7.0046C18.0432 6.50905 17.8643 6.03534 17.5825 5.62314C17.3007 5.21095 16.9243 4.87228 16.4847 4.63549C16.0451 4.3987 15.5552 4.27068 15.056 4.26217C14.5567 4.25366 14.0627 4.3649 13.6153 4.58656C13.1679 4.80823 12.7802 5.13387 12.4845 5.53622C12.1888 5.93857 11.9939 6.40591 11.916 6.89909C11.9059 6.96542 11.9178 7.03321 11.9498 7.09216C11.9818 7.1511 12.0322 7.19798 12.0933 7.22566C12.9602 7.62642 13.6944 8.26678 14.2092 9.07119C14.724 9.87559 14.998 10.8105 14.9988 11.7655C14.9988 11.8655 14.9988 11.9639 14.9894 12.0624C14.9873 12.1047 14.9938 12.147 15.0086 12.1868C15.0233 12.2265 15.046 12.2628 15.0752 12.2935C15.1045 12.3242 15.1396 12.3486 15.1786 12.3653C15.2176 12.382 15.2595 12.3906 15.3019 12.3905H18.7488C18.8899 12.3907 19.0268 12.3432 19.1375 12.2557C19.2481 12.1682 19.3259 12.0458 19.3582 11.9085C19.3784 11.8143 19.3774 11.7168 19.3554 11.6231C19.3334 11.5293 19.2908 11.4416 19.2308 11.3663H19.2269ZM12.2738 14.7397C12.8961 14.2631 13.3534 13.6035 13.5815 12.8536C13.8095 12.1037 13.7969 11.3011 13.5453 10.5588C13.2936 9.81642 12.8157 9.17157 12.1787 8.71485C11.5417 8.25813 10.7775 8.01252 9.99371 8.01252C9.20987 8.01252 8.44574 8.25813 7.80871 8.71485C7.17167 9.17157 6.69377 9.81642 6.44216 10.5588C6.19055 11.3011 6.17789 12.1037 6.40595 12.8536C6.63401 13.6035 7.09133 14.2631 7.71363 14.7397C6.60936 15.2182 5.68728 16.0376 5.08238 17.078C5.02752 17.173 4.99864 17.2808 4.99865 17.3905C4.99865 17.5003 5.02755 17.608 5.08242 17.7031C5.13729 17.7981 5.21621 17.877 5.31124 17.9318C5.40627 17.9867 5.51407 18.0155 5.62379 18.0155H14.3738C14.4835 18.0155 14.5913 17.9867 14.6863 17.9318C14.7814 17.877 14.8603 17.7981 14.9152 17.7031C14.97 17.608 14.9989 17.5003 14.9989 17.3905C14.9989 17.2808 14.9701 17.173 14.9152 17.078C14.309 16.0369 13.3852 15.2174 12.2793 14.7397H12.2738Z" fill="currentColor"/>
</svg>
