<svg width="21" height="20" viewBox="0 0 21 20" fill="none" xmlns="http://www.w3.org/2000/svg">
<g clip-path="url(#clip0_4552_26991)">
<path d="M20.3328 10.6252C20.3328 10.791 20.267 10.9499 20.1497 11.0671C20.0325 11.1843 19.8736 11.2502 19.7078 11.2502H18.4578V12.5002C18.4578 12.666 18.392 12.8249 18.2747 12.9421C18.1575 13.0593 17.9986 13.1252 17.8328 13.1252C17.667 13.1252 17.5081 13.0593 17.3909 12.9421C17.2737 12.8249 17.2078 12.666 17.2078 12.5002V11.2502H15.9578C15.792 11.2502 15.6331 11.1843 15.5159 11.0671C15.3987 10.9499 15.3328 10.791 15.3328 10.6252C15.3328 10.4594 15.3987 10.3005 15.5159 10.1833C15.6331 10.066 15.792 10.0002 15.9578 10.0002H17.2078V8.75019C17.2078 8.58443 17.2737 8.42546 17.3909 8.30825C17.5081 8.19104 17.667 8.12519 17.8328 8.12519C17.9986 8.12519 18.1575 8.19104 18.2747 8.30825C18.392 8.42546 18.4578 8.58443 18.4578 8.75019V10.0002H19.7078C19.8736 10.0002 20.0325 10.066 20.1497 10.1833C20.267 10.3005 20.3328 10.4594 20.3328 10.6252ZM15.8117 15.2229C15.9184 15.3499 15.9703 15.5141 15.9559 15.6793C15.9416 15.8446 15.8622 15.9974 15.7351 16.1041C15.6081 16.2108 15.4439 16.2627 15.2787 16.2483C15.1134 16.234 14.9606 16.1546 14.8539 16.0275C13.282 14.1557 11.1211 13.1252 8.77031 13.1252C6.41952 13.1252 4.25859 14.1557 2.68671 16.0275C2.58 16.1544 2.42725 16.2338 2.26206 16.2481C2.09686 16.2623 1.93276 16.2104 1.80585 16.1037C1.67894 15.997 1.59962 15.8442 1.58533 15.6791C1.57105 15.5139 1.62297 15.3498 1.72968 15.2229C2.89687 13.8338 4.34843 12.8471 5.96171 12.3189C4.98195 11.7087 4.22759 10.796 3.81275 9.71885C3.39792 8.64171 3.34519 7.45877 3.66253 6.34899C3.97988 5.23921 4.65003 4.26298 5.57161 3.56799C6.49319 2.873 7.61605 2.49707 8.77031 2.49707C9.92457 2.49707 11.0474 2.873 11.969 3.56799C12.8906 4.26298 13.5607 5.23921 13.8781 6.34899C14.1954 7.45877 14.1427 8.64171 13.7279 9.71885C13.313 10.796 12.5587 11.7087 11.5789 12.3189C13.1922 12.8471 14.6437 13.8338 15.8117 15.2229ZM8.77031 11.8752C9.57379 11.8752 10.3592 11.6369 11.0273 11.1905C11.6954 10.7441 12.2161 10.1097 12.5236 9.36735C12.831 8.62502 12.9115 7.80819 12.7547 7.02014C12.598 6.23209 12.2111 5.50822 11.6429 4.94007C11.0748 4.37192 10.3509 3.98501 9.56286 3.82825C8.77481 3.6715 7.95798 3.75195 7.21565 4.05943C6.47333 4.36691 5.83885 4.88762 5.39246 5.55569C4.94607 6.22377 4.7078 7.00921 4.7078 7.81269C4.70905 8.88976 5.13746 9.92235 5.89905 10.6839C6.66065 11.4455 7.69324 11.874 8.77031 11.8752Z" fill="#1CB78D"/>
</g>
<defs>
<clipPath id="clip0_4552_26991">
<rect width="20" height="20" fill="white" transform="translate(0.333008)"/>
</clipPath>
</defs>
</svg>
