<svg width="100%" height="100%" viewBox="0 0 20 20" fill="none" xmlns="http://www.w3.org/2000/svg">
<path fill-rule="evenodd" clip-rule="evenodd" d="M9.99996 3.33366C6.31806 3.33366 3.33329 6.31843 3.33329 10.0003C3.33329 13.6822 6.31806 16.667 9.99996 16.667C13.6819 16.667 16.6666 13.6822 16.6666 10.0003C16.6666 6.31843 13.6819 3.33366 9.99996 3.33366ZM1.66663 10.0003C1.66663 5.39795 5.39759 1.66699 9.99996 1.66699C14.6023 1.66699 18.3333 5.39795 18.3333 10.0003C18.3333 14.6027 14.6023 18.3337 9.99996 18.3337C5.39759 18.3337 1.66663 14.6027 1.66663 10.0003Z" fill="currentColor"/>
<path fill-rule="evenodd" clip-rule="evenodd" d="M9.99996 5.41699C10.4602 5.41699 10.8333 5.79009 10.8333 6.25033V10.6253C10.8333 11.0856 10.4602 11.4587 9.99996 11.4587C9.53972 11.4587 9.16663 11.0856 9.16663 10.6253V6.25033C9.16663 5.79009 9.53972 5.41699 9.99996 5.41699Z" fill="currentColor"/>
<path d="M10.4375 13.4375C10.4375 13.6791 10.2416 13.875 10 13.875C9.75838 13.875 9.5625 13.6791 9.5625 13.4375C9.5625 13.1959 9.75838 13 10 13C10.2416 13 10.4375 13.1959 10.4375 13.4375Z" stroke="currentColor"/>
</svg>
