<svg width="100%" height="100%" viewBox="0 0 21 20" fill="none" xmlns="http://www.w3.org/2000/svg">
<g id="Whatsapp">
<path id="Vector" d="M12.4203 11.3461L14.2172 12.2429C14.132 12.6685 13.9018 13.0514 13.5659 13.3262C13.2299 13.601 12.809 13.7508 12.375 13.75C10.8837 13.7483 9.45389 13.1551 8.39935 12.1006C7.34482 11.0461 6.75165 9.6163 6.75 8.12496C6.74988 7.69146 6.89997 7.27131 7.17474 6.93601C7.4495 6.60071 7.83196 6.37098 8.25703 6.2859L9.15391 8.08278L8.39062 9.21871C8.33359 9.30427 8.29854 9.40258 8.28859 9.50493C8.27865 9.60727 8.2941 9.71049 8.33359 9.80543C8.78077 10.8682 9.62626 11.7137 10.6891 12.1609C10.7843 12.2021 10.8883 12.219 10.9917 12.21C11.0951 12.201 11.1946 12.1664 11.2812 12.1093L12.4203 11.3461ZM18.625 9.99996C18.6253 11.4027 18.2624 12.7817 17.5717 14.0026C16.881 15.2235 15.8859 16.2448 14.6834 16.967C13.4808 17.6893 12.1118 18.0879 10.7095 18.124C9.30719 18.1602 7.91942 17.8327 6.68125 17.1734L4.02109 18.0601C3.80085 18.1336 3.5645 18.1442 3.33854 18.0909C3.11257 18.0376 2.90593 17.9224 2.74176 17.7582C2.57759 17.594 2.46239 17.3874 2.40906 17.1614C2.35573 16.9355 2.36639 16.6991 2.43984 16.4789L3.32656 13.8187C2.74699 12.7291 2.42328 11.5217 2.38 10.2882C2.33672 9.05477 2.575 7.82768 3.07677 6.70007C3.57854 5.57246 4.3306 4.57398 5.27587 3.78043C6.22114 2.98687 7.33477 2.41909 8.53224 2.12018C9.72971 1.82127 10.9795 1.79909 12.1868 2.05533C13.3942 2.31157 14.5272 2.83948 15.5001 3.599C16.4729 4.35853 17.2599 5.32969 17.8014 6.43879C18.3428 7.54788 18.6245 8.76576 18.625 9.99996ZM15.5 11.875C15.5001 11.7589 15.4678 11.645 15.4068 11.5462C15.3458 11.4474 15.2585 11.3675 15.1547 11.3156L12.6547 10.0656C12.5563 10.0166 12.4467 9.99434 12.3369 10.0012C12.2272 10.0081 12.1212 10.0437 12.0297 10.1047L10.882 10.8703C10.3552 10.5807 9.92165 10.1471 9.63203 9.62028L10.3977 8.47262C10.4586 8.38108 10.4943 8.2751 10.5011 8.16537C10.508 8.05563 10.4858 7.94603 10.4367 7.84762L9.18672 5.34762C9.13491 5.24299 9.05482 5.15496 8.95554 5.09351C8.85626 5.03207 8.74176 4.99966 8.625 4.99996C7.7962 4.99996 7.00134 5.3292 6.41529 5.91526C5.82924 6.50131 5.5 7.29616 5.5 8.12496C5.50207 9.94769 6.22706 11.6952 7.51592 12.984C8.80479 14.2729 10.5523 14.9979 12.375 15C12.7854 15 13.1917 14.9191 13.5709 14.7621C13.95 14.605 14.2945 14.3749 14.5847 14.0847C14.8749 13.7945 15.1051 13.45 15.2621 13.0709C15.4192 12.6917 15.5 12.2853 15.5 11.875Z" fill="currentColor"/>
</g>
</svg>
