<svg width="100%" height="100%" viewBox="0 0 21 20" fill="none" xmlns="http://www.w3.org/2000/svg">
<path d="M7.75934 12.9733C8.49738 12.2684 9.47874 11.875 10.4994 11.875C11.52 11.875 12.5014 12.2684 13.2394 12.9733" stroke="currentColor" stroke-width="1.5" stroke-linecap="round" stroke-linejoin="round"/>
<path d="M5.10773 10.3217C6.54911 8.91343 8.48427 8.125 10.4994 8.125C12.5146 8.125 14.4497 8.91343 15.8911 10.3217" stroke="currentColor" stroke-width="1.5" stroke-linecap="round" stroke-linejoin="round"/>
<path d="M2.45813 7.67005C4.60199 5.55855 7.49033 4.375 10.4994 4.375C13.5085 4.375 16.3968 5.55855 18.5407 7.67005" stroke="currentColor" stroke-width="1.5" stroke-linecap="round" stroke-linejoin="round"/>
<path d="M11.2188 15.625C11.2188 16.022 10.897 16.3438 10.5 16.3438C10.103 16.3438 9.78125 16.022 9.78125 15.625C9.78125 15.228 10.103 14.9062 10.5 14.9062C10.897 14.9062 11.2188 15.228 11.2188 15.625Z" fill="currentColor" stroke="#616161" stroke-width="0.125"/>
</svg>
