<svg width="100%" height="100%" viewBox="0 0 24 24" fill="none" xmlns="http://www.w3.org/2000/svg">
<path d="M15 12L10.5 9V15L15 12Z" stroke="currentColor" stroke-width="1.5" stroke-linecap="round" stroke-linejoin="round"/>
<path d="M2.25 12.0009C2.25 14.7905 2.5382 16.4272 2.75729 17.2684C2.81585 17.4982 2.92832 17.7107 3.08537 17.8883C3.24241 18.0659 3.43952 18.2035 3.66037 18.2898C6.79883 19.4959 12 19.4627 12 19.4627C12 19.4627 17.2011 19.4959 20.3396 18.2898C20.5604 18.2036 20.7576 18.0659 20.9146 17.8883C21.0717 17.7107 21.1841 17.4982 21.2427 17.2685C21.4618 16.4273 21.75 14.7905 21.75 12.0009C21.75 9.21137 21.4618 7.57465 21.2427 6.73345C21.1841 6.50371 21.0717 6.29123 20.9146 6.11361C20.7576 5.936 20.5605 5.79836 20.3396 5.71211C17.2012 4.50603 12 4.53915 12 4.53915C12 4.53915 6.79888 4.50604 3.66039 5.71209C3.43955 5.79835 3.24244 5.93598 3.08539 6.1136C2.92834 6.29121 2.81588 6.50369 2.75731 6.73344C2.53821 7.57464 2.25 9.21137 2.25 12.0009Z" stroke="currentColor" stroke-width="1.5" stroke-linecap="round" stroke-linejoin="round"/>
</svg>
